STARTFONT 2.1
FONT -Baekmuk-Gulim-Medium-R-Normal--10-100-75-75-M-100-ksx1001.1997-0
SIZE 10 75 75
FONTBOUNDINGBOX 10 10 0 -3
STARTPROPERTIES 18
FOUNDRY "Baekmuk"
FAMILY_NAME "Gulim"
WEIGHT_NAME "Medium"
SLANT "R"
SETWIDTH_NAME "Normal"
ADD_STYLE_NAME ""
PIXEL_SIZE 10
POINT_SIZE 100
RESOLUTION_X 75
RESOLUTION_Y 75
SPACING "M"
AVERAGE_WIDTH 100
CHARSET_REGISTRY "ksx1001.1997"
CHARSET_ENCODING "0"
DEFAULT_CHAR 8481
FONT_ASCENT 8
FONT_DESCENT 2
COPYRIGHT "(c)Hwan Design Inc. and Mizi Research Inc."
ENDPROPERTIES
CHARS 8224
STARTCHAR 3000
ENCODING 8481
SWIDTH 1000 0
DWIDTH 10 0
BBX 0 0 0 0
BITMAP
ENDCHAR
STARTCHAR 3001
ENCODING 8482
SWIDTH 1000 0
DWIDTH 10 0
BBX 1 1 7 6
BITMAP
80
ENDCHAR
STARTCHAR 3002
ENCODING 8483
SWIDTH 1000 0
DWIDTH 10 0
BBX 2 2 6 6
BITMAP
C0
C0
ENDCHAR
STARTCHAR 00B7
ENCODING 8484
SWIDTH 1000 0
DWIDTH 10 0
BBX 1 2 4 2
BITMAP
80
80
ENDCHAR
STARTCHAR 2025
ENCODING 8485
SWIDTH 1000 0
DWIDTH 10 0
BBX 1 1 2 3
BITMAP
80
ENDCHAR
STARTCHAR 2026
ENCODING 8486
SWIDTH 1000 0
DWIDTH 10 0
BBX 6 2 2 2
BITMAP
A4
A4
ENDCHAR
STARTCHAR 00A8
ENCODING 8487
SWIDTH 1000 0
DWIDTH 10 0
BBX 4 1 3 6
BITMAP
90
ENDCHAR
STARTCHAR 3003
ENCODING 8488
SWIDTH 1000 0
DWIDTH 10 0
BBX 4 3 3 2
BITMAP
50
50
A0
ENDCHAR
STARTCHAR 00AD
ENCODING 8489
SWIDTH 1000 0
DWIDTH 10 0
BBX 2 1 4 2
BITMAP
C0
ENDCHAR
STARTCHAR 2015
ENCODING 8490
SWIDTH 1000 0
DWIDTH 10 0
BBX 6 1 2 2
BITMAP
FC
ENDCHAR
STARTCHAR 2225
ENCODING 8491
SWIDTH 1000 0
DWIDTH 10 0
BBX 2 7 4 0
BITMAP
C0
C0
C0
C0
C0
C0
C0
ENDCHAR
STARTCHAR FF3C
ENCODING 8492
SWIDTH 1000 0
DWIDTH 10 0
BBX 7 8 1 -1
BITMAP
80
40
20
10
08
04
04
02
ENDCHAR
STARTCHAR 223C
ENCODING 8493
SWIDTH 1000 0
DWIDTH 10 0
BBX 5 2 3 2
BITMAP
C8
30
ENDCHAR
STARTCHAR 2018
ENCODING 8494
SWIDTH 1000 0
DWIDTH 10 0
BBX 1 2 6 5
BITMAP
80
80
ENDCHAR
STARTCHAR 2019
ENCODING 8495
SWIDTH 1000 0
DWIDTH 10 0
BBX 1 2 2 6
BITMAP
80
80
ENDCHAR
STARTCHAR 201C
ENCODING 8496
SWIDTH 1000 0
DWIDTH 10 0
BBX 1 1 7 5
BITMAP
80
ENDCHAR
STARTCHAR 201D
ENCODING 8497
SWIDTH 1000 0
DWIDTH 10 0
BBX 3 2 1 6
BITMAP
A0
80
ENDCHAR
STARTCHAR 3014
ENCODING 8498
SWIDTH 1000 0
DWIDTH 10 0
BBX 2 10 7 -2
BITMAP
40
80
80
80
80
80
80
80
80
40
ENDCHAR
STARTCHAR 3015
ENCODING 8499
SWIDTH 1000 0
DWIDTH 10 0
BBX 2 10 1 -2
BITMAP
80
40
40
40
40
40
40
40
40
80
ENDCHAR
STARTCHAR 3008
ENCODING 8500
SWIDTH 1000 0
DWIDTH 10 0
BBX 3 6 5 0
BITMAP
20
40
80
80
40
20
ENDCHAR
STARTCHAR 3009
ENCODING 8501
SWIDTH 1000 0
DWIDTH 10 0
BBX 3 8 1 -1
BITMAP
80
40
40
20
20
40
40
80
ENDCHAR
STARTCHAR 300A
ENCODING 8502
SWIDTH 1000 0
DWIDTH 10 0
BBX 5 8 4 -1
BITMAP
08
30
50
60
E0
60
30
08
ENDCHAR
STARTCHAR 300B
ENCODING 8503
SWIDTH 1000 0
DWIDTH 10 0
BBX 3 8 1 -1
BITMAP
C0
C0
60
60
60
60
C0
C0
ENDCHAR
STARTCHAR 300C
ENCODING 8504
SWIDTH 1000 0
DWIDTH 10 0
BBX 4 5 6 3
BITMAP
F0
80
80
80
80
ENDCHAR
STARTCHAR 300D
ENCODING 8505
SWIDTH 1000 0
DWIDTH 10 0
BBX 4 5 0 -2
BITMAP
10
10
10
10
F0
ENDCHAR
STARTCHAR 300E
ENCODING 8506
SWIDTH 1000 0
DWIDTH 10 0
BBX 4 5 6 3
BITMAP
F0
F0
C0
C0
C0
ENDCHAR
STARTCHAR 300F
ENCODING 8507
SWIDTH 1000 0
DWIDTH 10 0
BBX 4 5 0 -2
BITMAP
30
30
30
F0
F0
ENDCHAR
STARTCHAR 3010
ENCODING 8508
SWIDTH 1000 0
DWIDTH 10 0
BBX 2 9 6 -1
BITMAP
C0
80
80
80
80
80
80
80
C0
ENDCHAR
STARTCHAR 3011
ENCODING 8509
SWIDTH 1000 0
DWIDTH 10 0
BBX 2 9 1 -1
BITMAP
C0
40
40
40
40
40
40
C0
C0
ENDCHAR
STARTCHAR 00B1
ENCODING 8510
SWIDTH 1000 0
DWIDTH 10 0
BBX 6 7 2 0
BITMAP
20
20
20
F8
20
20
FC
ENDCHAR
STARTCHAR 00D7
ENCODING 8511
SWIDTH 1000 0
DWIDTH 10 0
BBX 6 6 2 0
BITMAP
84
48
30
30
50
80
ENDCHAR
STARTCHAR 00F7
ENCODING 8512
SWIDTH 1000 0
DWIDTH 10 0
BBX 6 6 2 0
BITMAP
20
00
FC
00
00
20
ENDCHAR
STARTCHAR 2260
ENCODING 8513
SWIDTH 1000 0
DWIDTH 10 0
BBX 6 5 2 0
BITMAP
20
FC
FC
10
10
ENDCHAR
STARTCHAR 2264
ENCODING 8514
SWIDTH 1000 0
DWIDTH 10 0
BBX 6 6 2 0
BITMAP
04
38
C0
60
1C
FC
ENDCHAR
STARTCHAR 2265
ENCODING 8515
SWIDTH 1000 0
DWIDTH 10 0
BBX 6 6 2 0
BITMAP
80
60
18
10
E0
FC
ENDCHAR
STARTCHAR 221E
ENCODING 8516
SWIDTH 1000 0
DWIDTH 10 0
BBX 8 4 1 1
BITMAP
66
99
99
66
ENDCHAR
STARTCHAR 2234
ENCODING 8517
SWIDTH 1000 0
DWIDTH 10 0
BBX 5 4 2 1
BITMAP
20
00
00
88
ENDCHAR
STARTCHAR 00B0
ENCODING 8518
SWIDTH 1000 0
DWIDTH 10 0
BBX 2 2 1 6
BITMAP
C0
C0
ENDCHAR
STARTCHAR 2032
ENCODING 8519
SWIDTH 1000 0
DWIDTH 10 0
BBX 2 2 1 6
BITMAP
40
80
ENDCHAR
STARTCHAR 2033
ENCODING 8520
SWIDTH 1000 0
DWIDTH 10 0
BBX 3 2 1 6
BITMAP
60
A0
ENDCHAR
STARTCHAR 2103
ENCODING 8521
SWIDTH 1000 0
DWIDTH 10 0
BBX 7 7 1 0
BITMAP
DC
B2
22
20
20
20
1E
ENDCHAR
STARTCHAR 212B
ENCODING 8522
SWIDTH 1000 0
DWIDTH 10 0
BBX 5 7 2 0
BITMAP
30
00
30
50
50
A8
88
ENDCHAR
STARTCHAR FFE0
ENCODING 8523
SWIDTH 1000 0
DWIDTH 10 0
BBX 7 8 1 -1
BITMAP
3C
62
4E
48
52
62
64
98
ENDCHAR
STARTCHAR FFE1
ENCODING 8524
SWIDTH 1000 0
DWIDTH 10 0
BBX 6 7 2 0
BITMAP
38
40
40
F8
20
E4
D8
ENDCHAR
STARTCHAR FFE5
ENCODING 8525
SWIDTH 1000 0
DWIDTH 10 0
BBX 5 7 2 0
BITMAP
88
90
78
20
F8
20
20
ENDCHAR
STARTCHAR 2642
ENCODING 8526
SWIDTH 1000 0
DWIDTH 10 0
BBX 5 9 2 -1
BITMAP
20
60
B0
A8
20
20
58
48
30
ENDCHAR
STARTCHAR 2640
ENCODING 8527
SWIDTH 1000 0
DWIDTH 10 0
BBX 7 8 1 -1
BITMAP
3C
24
28
10
FE
10
10
10
ENDCHAR
STARTCHAR 2220
ENCODING 8528
SWIDTH 1000 0
DWIDTH 10 0
BBX 5 6 2 0
BITMAP
08
10
20
40
80
F8
ENDCHAR
STARTCHAR 22A5
ENCODING 8529
SWIDTH 1000 0
DWIDTH 10 0
BBX 6 5 2 0
BITMAP
20
20
20
20
FC
ENDCHAR
STARTCHAR 2312
ENCODING 8530
SWIDTH 1000 0
DWIDTH 10 0
BBX 6 2 2 5
BITMAP
70
8C
ENDCHAR
STARTCHAR 2202
ENCODING 8531
SWIDTH 1000 0
DWIDTH 10 0
BBX 5 7 2 0
BITMAP
30
48
08
38
50
90
70
ENDCHAR
STARTCHAR 2207
ENCODING 8532
SWIDTH 1000 0
DWIDTH 10 0
BBX 6 6 2 0
BITMAP
FC
88
88
50
50
20
ENDCHAR
STARTCHAR 2261
ENCODING 8533
SWIDTH 1000 0
DWIDTH 10 0
BBX 6 4 2 1
BITMAP
FC
00
FC
FC
ENDCHAR
STARTCHAR 2252
ENCODING 8534
SWIDTH 1000 0
DWIDTH 10 0
BBX 6 6 2 0
BITMAP
40
00
FC
FC
00
08
ENDCHAR
STARTCHAR 00A7
ENCODING 8535
SWIDTH 1000 0
DWIDTH 10 0
BBX 4 8 3 -1
BITMAP
E0
A0
40
B0
90
60
90
F0
ENDCHAR
STARTCHAR 203B
ENCODING 8536
SWIDTH 1000 0
DWIDTH 10 0
BBX 6 6 2 0
BITMAP
20
58
A8
30
68
84
ENDCHAR
STARTCHAR 2606
ENCODING 8537
SWIDTH 1000 0
DWIDTH 10 0
BBX 7 7 1 -1
BITMAP
10
18
EE
44
24
54
6C
ENDCHAR
STARTCHAR 2605
ENCODING 8538
SWIDTH 1000 0
DWIDTH 10 0
BBX 6 7 2 -1
BITMAP
20
30
FC
78
70
58
08
ENDCHAR
STARTCHAR 25CB
ENCODING 8539
SWIDTH 1000 0
DWIDTH 10 0
BBX 7 8 1 -1
BITMAP
38
44
82
82
82
82
44
38
ENDCHAR
STARTCHAR 25CF
ENCODING 8540
SWIDTH 1000 0
DWIDTH 10 0
BBX 7 8 1 -1
BITMAP
3C
7E
7E
FE
FE
7E
7E
3C
ENDCHAR
STARTCHAR 25CE
ENCODING 8541
SWIDTH 1000 0
DWIDTH 10 0
BBX 7 8 1 -1
BITMAP
38
7C
C6
C6
C6
C6
7C
38
ENDCHAR
STARTCHAR 25C7
ENCODING 8542
SWIDTH 1000 0
DWIDTH 10 0
BBX 8 8 1 -1
BITMAP
18
24
42
81
82
44
28
10
ENDCHAR
STARTCHAR 25C6
ENCODING 8543
SWIDTH 1000 0
DWIDTH 10 0
BBX 7 8 1 -1
BITMAP
10
38
7C
FE
FE
7C
38
10
ENDCHAR
STARTCHAR 25A1
ENCODING 8544
SWIDTH 1000 0
DWIDTH 10 0
BBX 7 8 1 -1
BITMAP
FE
82
82
82
82
82
82
FE
ENDCHAR
STARTCHAR 25A0
ENCODING 8545
SWIDTH 1000 0
DWIDTH 10 0
BBX 6 8 2 -1
BITMAP
FC
FC
FC
FC
FC
FC
FC
FC
ENDCHAR
STARTCHAR 25B3
ENCODING 8546
SWIDTH 1000 0
DWIDTH 10 0
BBX 6 6 2 0
BITMAP
20
50
48
88
84
FC
ENDCHAR
STARTCHAR 25B2
ENCODING 8547
SWIDTH 1000 0
DWIDTH 10 0
BBX 6 6 2 0
BITMAP
20
30
78
78
FC
FC
ENDCHAR
STARTCHAR 25BD
ENCODING 8548
SWIDTH 1000 0
DWIDTH 10 0
BBX 7 6 1 0
BITMAP
7E
82
44
28
28
10
ENDCHAR
STARTCHAR 25BC
ENCODING 8549
SWIDTH 1000 0
DWIDTH 10 0
BBX 6 5 2 1
BITMAP
FC
F8
78
30
20
ENDCHAR
STARTCHAR 2192
ENCODING 8550
SWIDTH 1000 0
DWIDTH 10 0
BBX 7 4 2 1
BITMAP
08
04
FE
08
ENDCHAR
STARTCHAR 2190
ENCODING 8551
SWIDTH 1000 0
DWIDTH 10 0
BBX 6 4 2 1
BITMAP
40
80
FC
40
ENDCHAR
STARTCHAR 2191
ENCODING 8552
SWIDTH 1000 0
DWIDTH 10 0
BBX 3 8 4 -1
BITMAP
40
E0
40
40
40
40
40
40
ENDCHAR
STARTCHAR 2193
ENCODING 8553
SWIDTH 1000 0
DWIDTH 10 0
BBX 3 7 4 -1
BITMAP
40
40
40
40
40
E0
40
ENDCHAR
STARTCHAR 2194
ENCODING 8554
SWIDTH 1000 0
DWIDTH 10 0
BBX 6 2 2 2
BITMAP
04
FC
ENDCHAR
STARTCHAR 3013
ENCODING 8555
SWIDTH 1000 0
DWIDTH 10 0
BBX 6 2 2 2
BITMAP
FC
FC
ENDCHAR
STARTCHAR 226A
ENCODING 8556
SWIDTH 1000 0
DWIDTH 10 0
BBX 6 6 2 0
BITMAP
14
78
A0
A0
50
3C
ENDCHAR
STARTCHAR 226B
ENCODING 8557
SWIDTH 1000 0
DWIDTH 10 0
BBX 7 8 1 -1
BITMAP
80
50
38
0E
12
2C
50
20
ENDCHAR
STARTCHAR 221A
ENCODING 8558
SWIDTH 1000 0
DWIDTH 10 0
BBX 8 8 1 0
BITMAP
0F
10
10
10
20
20
E0
40
ENDCHAR
STARTCHAR 223D
ENCODING 8559
SWIDTH 1000 0
DWIDTH 10 0
BBX 8 4 1 1
BITMAP
67
89
91
66
ENDCHAR
STARTCHAR 221D
ENCODING 8560
SWIDTH 1000 0
DWIDTH 10 0
BBX 6 4 2 1
BITMAP
6C
90
90
EC
ENDCHAR
STARTCHAR 2235
ENCODING 8561
SWIDTH 1000 0
DWIDTH 10 0
BBX 4 5 3 0
BITMAP
90
00
00
00
40
ENDCHAR
STARTCHAR 222B
ENCODING 8562
SWIDTH 1000 0
DWIDTH 10 0
BBX 3 7 4 0
BITMAP
60
80
80
80
80
80
80
ENDCHAR
STARTCHAR 222C
ENCODING 8563
SWIDTH 1000 0
DWIDTH 10 0
BBX 6 8 2 -1
BITMAP
2C
4C
50
50
50
50
B0
20
ENDCHAR
STARTCHAR 2208
ENCODING 8564
SWIDTH 1000 0
DWIDTH 10 0
BBX 7 6 2 0
BITMAP
3E
C0
FE
80
C0
3E
ENDCHAR
STARTCHAR 220B
ENCODING 8565
SWIDTH 1000 0
DWIDTH 10 0
BBX 7 6 1 0
BITMAP
F8
06
FE
02
06
F8
ENDCHAR
STARTCHAR 2286
ENCODING 8566
SWIDTH 1000 0
DWIDTH 10 0
BBX 6 6 2 0
BITMAP
7C
80
80
80
78
FC
ENDCHAR
STARTCHAR 2287
ENCODING 8567
SWIDTH 1000 0
DWIDTH 10 0
BBX 6 6 2 0
BITMAP
F8
04
04
08
F0
FC
ENDCHAR
STARTCHAR 2282
ENCODING 8568
SWIDTH 1000 0
DWIDTH 10 0
BBX 7 6 2 0
BITMAP
1E
60
80
80
80
7E
ENDCHAR
STARTCHAR 2283
ENCODING 8569
SWIDTH 1000 0
DWIDTH 10 0
BBX 7 6 1 0
BITMAP
F0
0C
02
02
02
FC
ENDCHAR
STARTCHAR 222A
ENCODING 8570
SWIDTH 1000 0
DWIDTH 10 0
BBX 6 7 2 0
BITMAP
04
84
84
84
84
88
78
ENDCHAR
STARTCHAR 2229
ENCODING 8571
SWIDTH 1000 0
DWIDTH 10 0
BBX 5 7 2 0
BITMAP
78
88
88
88
88
88
08
ENDCHAR
STARTCHAR 2227
ENCODING 8572
SWIDTH 1000 0
DWIDTH 10 0
BBX 6 6 2 0
BITMAP
20
50
50
88
88
04
ENDCHAR
STARTCHAR 2228
ENCODING 8573
SWIDTH 1000 0
DWIDTH 10 0
BBX 6 5 2 1
BITMAP
84
88
48
50
30
ENDCHAR
STARTCHAR FFE2
ENCODING 8574
SWIDTH 1000 0
DWIDTH 10 0
BBX 6 4 2 1
BITMAP
FC
04
04
04
ENDCHAR
STARTCHAR 21D2
ENCODING 8737
SWIDTH 1000 0
DWIDTH 10 0
BBX 6 4 2 1
BITMAP
08
F4
04
F8
ENDCHAR
STARTCHAR 21D4
ENCODING 8738
SWIDTH 1000 0
DWIDTH 10 0
BBX 7 4 1 1
BITMAP
44
BA
82
7C
ENDCHAR
STARTCHAR 2200
ENCODING 8739
SWIDTH 1000 0
DWIDTH 10 0
BBX 6 6 2 1
BITMAP
84
88
78
48
50
30
ENDCHAR
STARTCHAR 2203
ENCODING 8740
SWIDTH 1000 0
DWIDTH 10 0
BBX 5 7 2 0
BITMAP
F8
08
08
F8
08
08
F8
ENDCHAR
STARTCHAR 00B4
ENCODING 8741
SWIDTH 1000 0
DWIDTH 10 0
BBX 1 1 4 6
BITMAP
80
ENDCHAR
STARTCHAR FF5E
ENCODING 8742
SWIDTH 1000 0
DWIDTH 10 0
BBX 2 1 3 6
BITMAP
C0
ENDCHAR
STARTCHAR 02C7
ENCODING 8743
SWIDTH 1000 0
DWIDTH 10 0
BBX 3 2 3 6
BITMAP
80
60
ENDCHAR
STARTCHAR 02D8
ENCODING 8744
SWIDTH 1000 0
DWIDTH 10 0
BBX 4 2 3 6
BITMAP
90
60
ENDCHAR
STARTCHAR 02DD
ENCODING 8745
SWIDTH 1000 0
DWIDTH 10 0
BBX 2 1 4 7
BITMAP
C0
ENDCHAR
STARTCHAR 02DA
ENCODING 8746
SWIDTH 1000 0
DWIDTH 10 0
BBX 2 2 4 6
BITMAP
C0
C0
ENDCHAR
STARTCHAR 02D9
ENCODING 8747
SWIDTH 1000 0
DWIDTH 10 0
BBX 1 1 4 6
BITMAP
80
ENDCHAR
STARTCHAR 00B8
ENCODING 8748
SWIDTH 1000 0
DWIDTH 10 0
BBX 2 2 4 -1
BITMAP
40
80
ENDCHAR
STARTCHAR 02DB
ENCODING 8749
SWIDTH 1000 0
DWIDTH 10 0
BBX 2 2 4 -1
BITMAP
80
C0
ENDCHAR
STARTCHAR 00A1
ENCODING 8750
SWIDTH 1000 0
DWIDTH 10 0
BBX 1 7 4 0
BITMAP
80
00
80
80
80
80
80
ENDCHAR
STARTCHAR 00BF
ENCODING 8751
SWIDTH 1000 0
DWIDTH 10 0
BBX 4 7 3 0
BITMAP
20
00
20
20
C0
90
70
ENDCHAR
STARTCHAR 02D0
ENCODING 8752
SWIDTH 1000 0
DWIDTH 10 0
BBX 1 4 4 1
BITMAP
80
00
00
80
ENDCHAR
STARTCHAR 222E
ENCODING 8753
SWIDTH 1000 0
DWIDTH 10 0
BBX 4 7 3 0
BITMAP
70
40
60
A0
40
40
C0
ENDCHAR
STARTCHAR 2211
ENCODING 8754
SWIDTH 1000 0
DWIDTH 10 0
BBX 7 7 1 0
BITMAP
FE
42
22
10
22
42
7E
ENDCHAR
STARTCHAR 220F
ENCODING 8755
SWIDTH 1000 0
DWIDTH 10 0
BBX 5 7 2 0
BITMAP
F8
88
88
88
88
88
88
ENDCHAR
STARTCHAR 00A4
ENCODING 8756
SWIDTH 1000 0
DWIDTH 10 0
BBX 6 6 2 0
BITMAP
F8
84
84
84
88
FC
ENDCHAR
STARTCHAR 2109
ENCODING 8757
SWIDTH 1000 0
DWIDTH 10 0
BBX 6 7 1 0
BITMAP
DC
D0
1C
10
10
10
10
ENDCHAR
STARTCHAR 2030
ENCODING 8758
SWIDTH 1000 0
DWIDTH 10 0
BBX 8 9 1 -1
BITMAP
44
A8
A8
B0
FA
5D
5D
9D
1A
ENDCHAR
STARTCHAR 25C1
ENCODING 8759
SWIDTH 1000 0
DWIDTH 10 0
BBX 6 7 2 0
BITMAP
04
1C
24
C4
44
34
0C
ENDCHAR
STARTCHAR 25C0
ENCODING 8760
SWIDTH 1000 0
DWIDTH 10 0
BBX 5 5 2 1
BITMAP
18
38
F8
38
18
ENDCHAR
STARTCHAR 25B7
ENCODING 8761
SWIDTH 1000 0
DWIDTH 10 0
BBX 5 7 2 0
BITMAP
80
C0
B0
88
90
E0
80
ENDCHAR
STARTCHAR 25B6
ENCODING 8762
SWIDTH 1000 0
DWIDTH 10 0
BBX 5 7 2 0
BITMAP
80
E0
F0
F8
F0
E0
80
ENDCHAR
STARTCHAR 2664
ENCODING 8763
SWIDTH 1000 0
DWIDTH 10 0
BBX 6 8 2 -1
BITMAP
20
50
48
84
84
B4
78
30
ENDCHAR
STARTCHAR 2660
ENCODING 8764
SWIDTH 1000 0
DWIDTH 10 0
BBX 6 8 2 -1
BITMAP
20
30
78
F8
FC
FC
68
30
ENDCHAR
STARTCHAR 2661
ENCODING 8765
SWIDTH 1000 0
DWIDTH 10 0
BBX 6 8 2 -1
BITMAP
48
B4
84
84
88
48
50
20
ENDCHAR
STARTCHAR 2665
ENCODING 8766
SWIDTH 1000 0
DWIDTH 10 0
BBX 6 8 2 -1
BITMAP
DC
FC
FC
FC
F8
78
30
20
ENDCHAR
STARTCHAR 2667
ENCODING 8767
SWIDTH 1000 0
DWIDTH 10 0
BBX 8 9 1 -1
BITMAP
18
24
24
1C
FB
81
D9
7E
18
ENDCHAR
STARTCHAR 2663
ENCODING 8768
SWIDTH 1000 0
DWIDTH 10 0
BBX 8 8 1 -1
BITMAP
18
38
38
7E
FF
EE
10
18
ENDCHAR
STARTCHAR 2299
ENCODING 8769
SWIDTH 1000 0
DWIDTH 10 0
BBX 8 8 1 -1
BITMAP
3C
5A
BD
BD
BD
BD
42
3C
ENDCHAR
STARTCHAR 25C8
ENCODING 8770
SWIDTH 1000 0
DWIDTH 10 0
BBX 8 9 1 -1
BITMAP
10
28
54
7A
FD
BE
5C
28
10
ENDCHAR
STARTCHAR 25A3
ENCODING 8771
SWIDTH 1000 0
DWIDTH 10 0
BBX 7 8 1 -1
BITMAP
FE
82
BE
BE
BE
BE
82
FE
ENDCHAR
STARTCHAR 25D0
ENCODING 8772
SWIDTH 1000 0
DWIDTH 10 0
BBX 7 8 2 -1
BITMAP
38
64
E2
E2
E2
E2
64
38
ENDCHAR
STARTCHAR 25D1
ENCODING 8773
SWIDTH 1000 0
DWIDTH 10 0
BBX 7 8 1 -1
BITMAP
38
4C
8E
8E
8E
8E
4C
38
ENDCHAR
STARTCHAR 2592
ENCODING 8774
SWIDTH 1000 0
DWIDTH 10 0
BBX 7 8 1 -1
BITMAP
FE
9A
DE
C6
DE
92
C6
FE
ENDCHAR
STARTCHAR 25A4
ENCODING 8775
SWIDTH 1000 0
DWIDTH 10 0
BBX 8 8 1 -1
BITMAP
FF
FF
81
FF
81
FF
81
FF
ENDCHAR
STARTCHAR 25A5
ENCODING 8776
SWIDTH 1000 0
DWIDTH 10 0
BBX 7 8 1 -1
BITMAP
FE
B6
B6
B6
B6
B6
B6
FE
ENDCHAR
STARTCHAR 25A8
ENCODING 8777
SWIDTH 1000 0
DWIDTH 10 0
BBX 8 8 1 -1
BITMAP
FF
95
A9
C9
97
A5
C9
FF
ENDCHAR
STARTCHAR 25A7
ENCODING 8778
SWIDTH 1000 0
DWIDTH 10 0
BBX 7 8 1 -1
BITMAP
FE
D2
AA
B6
DA
AA
96
FE
ENDCHAR
STARTCHAR 25A6
ENCODING 8779
SWIDTH 1000 0
DWIDTH 10 0
BBX 8 8 1 -1
BITMAP
FF
FF
B5
FF
B5
FF
B5
FF
ENDCHAR
STARTCHAR 25A9
ENCODING 8780
SWIDTH 1000 0
DWIDTH 10 0
BBX 8 8 1 -1
BITMAP
FF
ED
E5
9B
EB
A5
DB
FF
ENDCHAR
STARTCHAR 2668
ENCODING 8781
SWIDTH 1000 0
DWIDTH 10 0
BBX 8 8 1 -1
BITMAP
24
54
34
2C
6C
AD
C2
3C
ENDCHAR
STARTCHAR 260F
ENCODING 8782
SWIDTH 1000 0
DWIDTH 10 0
BBX 8 7 1 -1
BITMAP
7E
BD
F7
66
A6
99
66
ENDCHAR
STARTCHAR 260E
ENCODING 8783
SWIDTH 1000 0
DWIDTH 10 0
BBX 8 6 1 0
BITMAP
7E
E7
DD
46
46
7E
ENDCHAR
STARTCHAR 261C
ENCODING 8784
SWIDTH 1000 0
DWIDTH 10 0
BBX 8 5 1 1
BITMAP
1C
EB
51
3D
06
ENDCHAR
STARTCHAR 261E
ENCODING 8785
SWIDTH 1000 0
DWIDTH 10 0
BBX 8 5 1 1
BITMAP
38
D7
8E
BC
70
ENDCHAR
STARTCHAR 00B6
ENCODING 8786
SWIDTH 1000 0
DWIDTH 10 0
BBX 5 10 2 -2
BITMAP
70
98
98
98
78
18
18
18
18
10
ENDCHAR
STARTCHAR 2020
ENCODING 8787
SWIDTH 1000 0
DWIDTH 10 0
BBX 5 9 2 -1
BITMAP
20
20
F8
20
20
20
20
20
20
ENDCHAR
STARTCHAR 2021
ENCODING 8788
SWIDTH 1000 0
DWIDTH 10 0
BBX 5 9 2 -1
BITMAP
20
20
70
F8
20
20
20
20
20
ENDCHAR
STARTCHAR 2195
ENCODING 8789
SWIDTH 1000 0
DWIDTH 10 0
BBX 1 6 4 0
BITMAP
80
80
80
80
80
80
ENDCHAR
STARTCHAR 2197
ENCODING 8790
SWIDTH 1000 0
DWIDTH 10 0
BBX 5 6 2 0
BITMAP
08
10
20
40
40
80
ENDCHAR
STARTCHAR 2199
ENCODING 8791
SWIDTH 1000 0
DWIDTH 10 0
BBX 6 6 2 1
BITMAP
04
08
10
20
C0
C0
ENDCHAR
STARTCHAR 2196
ENCODING 8792
SWIDTH 1000 0
DWIDTH 10 0
BBX 5 6 3 0
BITMAP
80
80
40
20
10
08
ENDCHAR
STARTCHAR 2198
ENCODING 8793
SWIDTH 1000 0
DWIDTH 10 0
BBX 6 6 2 0
BITMAP
80
40
20
10
0C
1C
ENDCHAR
STARTCHAR 266D
ENCODING 8794
SWIDTH 1000 0
DWIDTH 10 0
BBX 4 7 3 0
BITMAP
80
80
F0
90
90
A0
C0
ENDCHAR
STARTCHAR 2669
ENCODING 8795
SWIDTH 1000 0
DWIDTH 10 0
BBX 2 8 4 -1
BITMAP
40
40
40
40
40
40
40
80
ENDCHAR
STARTCHAR 266A
ENCODING 8796
SWIDTH 1000 0
DWIDTH 10 0
BBX 4 7 3 -1
BITMAP
60
50
50
50
40
40
80
ENDCHAR
STARTCHAR 266C
ENCODING 8797
SWIDTH 1000 0
DWIDTH 10 0
BBX 6 8 2 -1
BITMAP
7C
44
7C
44
44
44
CC
98
ENDCHAR
STARTCHAR 327F
ENCODING 8798
SWIDTH 1000 0
DWIDTH 10 0
BBX 8 8 1 -1
BITMAP
3C
64
AA
F3
29
69
46
3C
ENDCHAR
STARTCHAR 321C
ENCODING 8799
SWIDTH 1000 0
DWIDTH 10 0
BBX 8 8 1 -1
BITMAP
7E
9A
A5
81
FF
91
52
34
ENDCHAR
STARTCHAR 2116
ENCODING 8800
SWIDTH 1000 0
DWIDTH 10 0
BBX 9 7 1 0
BITMAP
A000
A000
A600
E900
A900
A900
A680
ENDCHAR
STARTCHAR 33C7
ENCODING 8801
SWIDTH 1000 0
DWIDTH 10 0
BBX 9 7 0 0
BITMAP
7000
C800
8300
8480
8C80
CC80
7300
ENDCHAR
STARTCHAR 2122
ENCODING 8802
SWIDTH 1000 0
DWIDTH 10 0
BBX 8 7 1 0
BITMAP
E9
49
49
49
4F
4D
49
ENDCHAR
STARTCHAR 33C2
ENCODING 8803
SWIDTH 1000 0
DWIDTH 10 0
BBX 8 5 1 0
BITMAP
6F
AD
ED
AD
FD
ENDCHAR
STARTCHAR 33D8
ENCODING 8804
SWIDTH 1000 0
DWIDTH 10 0
BBX 7 7 1 -2
BITMAP
EE
AE
AE
AE
FE
80
80
ENDCHAR
STARTCHAR 2121
ENCODING 8805
SWIDTH 1000 0
DWIDTH 10 0
BBX 8 7 0 0
BITMAP
F1
21
2D
33
2F
33
2F
ENDCHAR
STARTCHAR FF01
ENCODING 8993
SWIDTH 1000 0
DWIDTH 10 0
BBX 2 8 4 -1
BITMAP
40
40
40
40
40
40
00
80
ENDCHAR
STARTCHAR FF02
ENCODING 8994
SWIDTH 1000 0
DWIDTH 10 0
BBX 3 2 4 6
BITMAP
20
C0
ENDCHAR
STARTCHAR FF03
ENCODING 8995
SWIDTH 1000 0
DWIDTH 10 0
BBX 6 7 2 -1
BITMAP
48
FC
48
50
FC
90
10
ENDCHAR
STARTCHAR FF04
ENCODING 8996
SWIDTH 1000 0
DWIDTH 10 0
BBX 6 8 2 -1
BITMAP
78
B4
B0
78
34
B4
78
30
ENDCHAR
STARTCHAR FF05
ENCODING 8997
SWIDTH 1000 0
DWIDTH 10 0
BBX 8 8 1 -1
BITMAP
F0
96
98
70
2F
49
09
06
ENDCHAR
STARTCHAR FF06
ENCODING 8998
SWIDTH 1000 0
DWIDTH 10 0
BBX 6 7 2 0
BITMAP
30
48
50
60
94
88
74
ENDCHAR
STARTCHAR FF07
ENCODING 8999
SWIDTH 1000 0
DWIDTH 10 0
BBX 1 1 4 6
BITMAP
80
ENDCHAR
STARTCHAR FF08
ENCODING 9000
SWIDTH 1000 0
DWIDTH 10 0
BBX 3 9 3 -1
BITMAP
20
40
40
80
80
80
80
40
20
ENDCHAR
STARTCHAR FF09
ENCODING 9001
SWIDTH 1000 0
DWIDTH 10 0
BBX 3 9 3 -1
BITMAP
80
40
40
20
20
20
20
40
80
ENDCHAR
STARTCHAR FF0A
ENCODING 9002
SWIDTH 1000 0
DWIDTH 10 0
BBX 6 5 2 1
BITMAP
40
30
EC
30
58
ENDCHAR
STARTCHAR FF0B
ENCODING 9003
SWIDTH 1000 0
DWIDTH 10 0
BBX 7 8 1 -1
BITMAP
10
10
10
FE
10
10
10
10
ENDCHAR
STARTCHAR FF0C
ENCODING 9004
SWIDTH 1000 0
DWIDTH 10 0
BBX 2 1 4 0
BITMAP
C0
ENDCHAR
STARTCHAR FF0D
ENCODING 9005
SWIDTH 1000 0
DWIDTH 10 0
BBX 7 1 2 3
BITMAP
FE
ENDCHAR
STARTCHAR FF0E
ENCODING 9006
SWIDTH 1000 0
DWIDTH 10 0
BBX 1 2 5 -1
BITMAP
80
80
ENDCHAR
STARTCHAR FF0F
ENCODING 9007
SWIDTH 1000 0
DWIDTH 10 0
BBX 4 8 3 -1
BITMAP
10
20
20
40
40
40
80
80
ENDCHAR
STARTCHAR FF10
ENCODING 9008
SWIDTH 1000 0
DWIDTH 10 0
BBX 6 7 2 0
BITMAP
78
CC
84
84
84
CC
78
ENDCHAR
STARTCHAR FF11
ENCODING 9009
SWIDTH 1000 0
DWIDTH 10 0
BBX 3 7 3 0
BITMAP
20
E0
A0
20
20
20
20
ENDCHAR
STARTCHAR FF12
ENCODING 9010
SWIDTH 1000 0
DWIDTH 10 0
BBX 5 7 2 0
BITMAP
78
88
88
10
60
80
F8
ENDCHAR
STARTCHAR FF13
ENCODING 9011
SWIDTH 1000 0
DWIDTH 10 0
BBX 5 7 2 0
BITMAP
38
08
08
38
88
88
78
ENDCHAR
STARTCHAR FF14
ENCODING 9012
SWIDTH 1000 0
DWIDTH 10 0
BBX 6 7 2 0
BITMAP
18
28
28
48
88
FC
08
ENDCHAR
STARTCHAR FF15
ENCODING 9013
SWIDTH 1000 0
DWIDTH 10 0
BBX 5 7 3 0
BITMAP
F8
80
80
78
88
88
70
ENDCHAR
STARTCHAR FF16
ENCODING 9014
SWIDTH 1000 0
DWIDTH 10 0
BBX 6 7 2 0
BITMAP
70
88
B8
C4
84
C4
78
ENDCHAR
STARTCHAR FF17
ENCODING 9015
SWIDTH 1000 0
DWIDTH 10 0
BBX 5 6 3 1
BITMAP
F8
10
10
20
20
40
ENDCHAR
STARTCHAR FF18
ENCODING 9016
SWIDTH 1000 0
DWIDTH 10 0
BBX 5 7 2 0
BITMAP
78
48
48
78
88
88
78
ENDCHAR
STARTCHAR FF19
ENCODING 9017
SWIDTH 1000 0
DWIDTH 10 0
BBX 5 8 2 -1
BITMAP
70
88
88
88
78
08
90
60
ENDCHAR
STARTCHAR FF1A
ENCODING 9018
SWIDTH 1000 0
DWIDTH 10 0
BBX 1 6 5 0
BITMAP
80
00
00
00
00
80
ENDCHAR
STARTCHAR FF1B
ENCODING 9019
SWIDTH 1000 0
DWIDTH 10 0
BBX 1 6 5 0
BITMAP
80
00
00
00
00
80
ENDCHAR
STARTCHAR FF1C
ENCODING 9020
SWIDTH 1000 0
DWIDTH 10 0
BBX 7 8 1 -1
BITMAP
02
0C
30
C0
40
30
0C
02
ENDCHAR
STARTCHAR FF1D
ENCODING 9021
SWIDTH 1000 0
DWIDTH 10 0
BBX 7 3 2 2
BITMAP
FE
00
FE
ENDCHAR
STARTCHAR FF1E
ENCODING 9022
SWIDTH 1000 0
DWIDTH 10 0
BBX 6 7 2 0
BITMAP
C0
30
08
04
08
30
C0
ENDCHAR
STARTCHAR FF1F
ENCODING 9023
SWIDTH 1000 0
DWIDTH 10 0
BBX 7 9 1 -1
BITMAP
38
46
82
42
1C
10
10
00
10
ENDCHAR
STARTCHAR FF20
ENCODING 9024
SWIDTH 1000 0
DWIDTH 10 0
BBX 8 8 1 -1
BITMAP
3C
42
BD
A5
A5
BE
40
38
ENDCHAR
STARTCHAR FF21
ENCODING 9025
SWIDTH 1000 0
DWIDTH 10 0
BBX 6 6 2 0
BITMAP
30
50
48
88
78
84
ENDCHAR
STARTCHAR FF22
ENCODING 9026
SWIDTH 1000 0
DWIDTH 10 0
BBX 6 8 2 0
BITMAP
F8
84
84
88
FC
84
84
F8
ENDCHAR
STARTCHAR FF23
ENCODING 9027
SWIDTH 1000 0
DWIDTH 10 0
BBX 6 8 2 0
BITMAP
38
44
80
80
80
80
44
38
ENDCHAR
STARTCHAR FF24
ENCODING 9028
SWIDTH 1000 0
DWIDTH 10 0
BBX 7 8 2 0
BITMAP
F8
84
82
82
82
82
84
F8
ENDCHAR
STARTCHAR FF25
ENCODING 9029
SWIDTH 1000 0
DWIDTH 10 0
BBX 5 8 2 0
BITMAP
F8
80
80
80
F8
80
80
F8
ENDCHAR
STARTCHAR FF26
ENCODING 9030
SWIDTH 1000 0
DWIDTH 10 0
BBX 6 8 3 -1
BITMAP
FC
80
80
F8
80
80
80
80
ENDCHAR
STARTCHAR FF27
ENCODING 9031
SWIDTH 1000 0
DWIDTH 10 0
BBX 6 9 2 -1
BITMAP
38
44
80
80
9C
84
84
48
38
ENDCHAR
STARTCHAR FF28
ENCODING 9032
SWIDTH 1000 0
DWIDTH 10 0
BBX 6 8 2 -1
BITMAP
84
84
84
FC
84
84
84
84
ENDCHAR
STARTCHAR FF29
ENCODING 9033
SWIDTH 1000 0
DWIDTH 10 0
BBX 1 8 5 -1
BITMAP
80
80
80
80
80
80
80
80
ENDCHAR
STARTCHAR FF2A
ENCODING 9034
SWIDTH 1000 0
DWIDTH 10 0
BBX 5 7 2 0
BITMAP
08
08
08
88
88
48
70
ENDCHAR
STARTCHAR FF2B
ENCODING 9035
SWIDTH 1000 0
DWIDTH 10 0
BBX 6 8 3 -1
BITMAP
88
90
A0
C0
A0
90
88
04
ENDCHAR
STARTCHAR FF2C
ENCODING 9036
SWIDTH 1000 0
DWIDTH 10 0
BBX 6 7 3 0
BITMAP
80
80
80
80
80
80
FC
ENDCHAR
STARTCHAR FF2D
ENCODING 9037
SWIDTH 1000 0
DWIDTH 10 0
BBX 8 7 1 0
BITMAP
81
C3
C5
A5
A9
99
81
ENDCHAR
STARTCHAR FF2E
ENCODING 9038
SWIDTH 1000 0
DWIDTH 10 0
BBX 6 8 2 0
BITMAP
84
84
C4
A4
A4
94
8C
84
ENDCHAR
STARTCHAR FF2F
ENCODING 9039
SWIDTH 1000 0
DWIDTH 10 0
BBX 6 9 2 -1
BITMAP
78
48
84
84
84
84
84
48
78
ENDCHAR
STARTCHAR FF30
ENCODING 9040
SWIDTH 1000 0
DWIDTH 10 0
BBX 7 8 2 0
BITMAP
FC
82
82
82
FC
80
80
80
ENDCHAR
STARTCHAR FF31
ENCODING 9041
SWIDTH 1000 0
DWIDTH 10 0
BBX 7 10 1 -2
BITMAP
38
44
82
82
82
82
44
38
48
04
ENDCHAR
STARTCHAR FF32
ENCODING 9042
SWIDTH 1000 0
DWIDTH 10 0
BBX 6 8 2 0
BITMAP
F8
84
84
84
F8
88
84
84
ENDCHAR
STARTCHAR FF33
ENCODING 9043
SWIDTH 1000 0
DWIDTH 10 0
BBX 6 9 2 -1
BITMAP
70
88
80
80
70
0C
84
84
78
ENDCHAR
STARTCHAR FF34
ENCODING 9044
SWIDTH 1000 0
DWIDTH 10 0
BBX 7 8 2 0
BITMAP
FE
10
10
10
10
10
10
10
ENDCHAR
STARTCHAR FF35
ENCODING 9045
SWIDTH 1000 0
DWIDTH 10 0
BBX 6 8 2 0
BITMAP
04
84
84
84
84
84
C8
70
ENDCHAR
STARTCHAR FF36
ENCODING 9046
SWIDTH 1000 0
DWIDTH 10 0
BBX 6 8 2 0
BITMAP
84
84
88
48
48
50
30
30
ENDCHAR
STARTCHAR FF37
ENCODING 9047
SWIDTH 1000 0
DWIDTH 10 0
BBX 8 7 1 0
BITMAP
99
99
9A
AA
66
66
20
ENDCHAR
STARTCHAR FF38
ENCODING 9048
SWIDTH 1000 0
DWIDTH 10 0
BBX 6 7 2 -1
BITMAP
48
30
20
30
48
84
80
ENDCHAR
STARTCHAR FF39
ENCODING 9049
SWIDTH 1000 0
DWIDTH 10 0
BBX 7 8 1 0
BITMAP
82
44
48
28
10
10
10
10
ENDCHAR
STARTCHAR FF3A
ENCODING 9050
SWIDTH 1000 0
DWIDTH 10 0
BBX 6 7 2 0
BITMAP
F8
08
10
20
40
80
FC
ENDCHAR
STARTCHAR FF3B
ENCODING 9051
SWIDTH 1000 0
DWIDTH 10 0
BBX 4 10 3 -2
BITMAP
F0
80
80
80
80
80
80
80
F0
40
ENDCHAR
STARTCHAR FFE6
ENCODING 9052
SWIDTH 1000 0
DWIDTH 10 0
BBX 8 7 1 0
BITMAP
99
9A
FF
AA
FF
6A
66
ENDCHAR
STARTCHAR FF3D
ENCODING 9053
SWIDTH 1000 0
DWIDTH 10 0
BBX 4 9 2 -1
BITMAP
F0
10
10
10
10
10
10
10
F0
ENDCHAR
STARTCHAR FF3E
ENCODING 9054
SWIDTH 1000 0
DWIDTH 10 0
BBX 2 1 4 6
BITMAP
C0
ENDCHAR
STARTCHAR FF3F
ENCODING 9055
SWIDTH 1000 0
DWIDTH 10 0
BBX 9 1 1 -2
BITMAP
FF80
ENDCHAR
STARTCHAR FF40
ENCODING 9056
SWIDTH 1000 0
DWIDTH 10 0
BBX 2 2 4 5
BITMAP
80
40
ENDCHAR
STARTCHAR FF41
ENCODING 9057
SWIDTH 1000 0
DWIDTH 10 0
BBX 5 5 2 0
BITMAP
38
48
78
88
78
ENDCHAR
STARTCHAR FF42
ENCODING 9058
SWIDTH 1000 0
DWIDTH 10 0
BBX 5 7 3 0
BITMAP
80
80
F0
88
88
88
F0
ENDCHAR
STARTCHAR FF43
ENCODING 9059
SWIDTH 1000 0
DWIDTH 10 0
BBX 5 5 3 0
BITMAP
70
88
80
88
70
ENDCHAR
STARTCHAR FF44
ENCODING 9060
SWIDTH 1000 0
DWIDTH 10 0
BBX 4 7 3 0
BITMAP
10
10
70
90
90
90
70
ENDCHAR
STARTCHAR FF45
ENCODING 9061
SWIDTH 1000 0
DWIDTH 10 0
BBX 4 5 3 0
BITMAP
60
90
F0
90
60
ENDCHAR
STARTCHAR FF46
ENCODING 9062
SWIDTH 1000 0
DWIDTH 10 0
BBX 4 7 3 0
BITMAP
70
40
E0
40
40
40
40
ENDCHAR
STARTCHAR FF47
ENCODING 9063
SWIDTH 1000 0
DWIDTH 10 0
BBX 4 7 3 -2
BITMAP
70
90
90
90
70
10
60
ENDCHAR
STARTCHAR FF48
ENCODING 9064
SWIDTH 1000 0
DWIDTH 10 0
BBX 4 8 3 -1
BITMAP
80
80
F0
90
90
90
90
80
ENDCHAR
STARTCHAR FF49
ENCODING 9065
SWIDTH 1000 0
DWIDTH 10 0
BBX 1 7 4 0
BITMAP
80
80
80
80
80
80
80
ENDCHAR
STARTCHAR FF4A
ENCODING 9066
SWIDTH 1000 0
DWIDTH 10 0
BBX 2 9 4 -2
BITMAP
40
40
40
40
40
40
40
40
80
ENDCHAR
STARTCHAR FF4B
ENCODING 9067
SWIDTH 1000 0
DWIDTH 10 0
BBX 4 7 3 0
BITMAP
80
80
A0
C0
C0
A0
90
ENDCHAR
STARTCHAR FF4C
ENCODING 9068
SWIDTH 1000 0
DWIDTH 10 0
BBX 1 7 5 0
BITMAP
80
80
80
80
80
80
80
ENDCHAR
STARTCHAR FF4D
ENCODING 9069
SWIDTH 1000 0
DWIDTH 10 0
BBX 6 5 2 0
BITMAP
FC
94
94
94
94
ENDCHAR
STARTCHAR FF4E
ENCODING 9070
SWIDTH 1000 0
DWIDTH 10 0
BBX 4 5 3 0
BITMAP
F0
90
90
90
90
ENDCHAR
STARTCHAR FF4F
ENCODING 9071
SWIDTH 1000 0
DWIDTH 10 0
BBX 4 6 3 0
BITMAP
60
90
90
90
90
60
ENDCHAR
STARTCHAR FF50
ENCODING 9072
SWIDTH 1000 0
DWIDTH 10 0
BBX 4 7 3 -1
BITMAP
80
E0
90
90
90
A0
C0
ENDCHAR
STARTCHAR FF51
ENCODING 9073
SWIDTH 1000 0
DWIDTH 10 0
BBX 4 6 3 -1
BITMAP
70
90
90
90
70
10
ENDCHAR
STARTCHAR FF52
ENCODING 9074
SWIDTH 1000 0
DWIDTH 10 0
BBX 4 5 4 0
BITMAP
F0
80
80
80
80
ENDCHAR
STARTCHAR FF53
ENCODING 9075
SWIDTH 1000 0
DWIDTH 10 0
BBX 4 6 3 0
BITMAP
60
90
40
30
90
60
ENDCHAR
STARTCHAR FF54
ENCODING 9076
SWIDTH 1000 0
DWIDTH 10 0
BBX 4 7 3 0
BITMAP
40
40
F0
40
40
40
70
ENDCHAR
STARTCHAR FF55
ENCODING 9077
SWIDTH 1000 0
DWIDTH 10 0
BBX 4 6 3 0
BITMAP
90
90
90
90
90
70
ENDCHAR
STARTCHAR FF56
ENCODING 9078
SWIDTH 1000 0
DWIDTH 10 0
BBX 4 4 3 1
BITMAP
10
90
A0
60
ENDCHAR
STARTCHAR FF57
ENCODING 9079
SWIDTH 1000 0
DWIDTH 10 0
BBX 6 5 2 0
BITMAP
30
B4
D4
D8
48
ENDCHAR
STARTCHAR FF58
ENCODING 9080
SWIDTH 1000 0
DWIDTH 10 0
BBX 4 5 3 0
BITMAP
90
60
40
60
90
ENDCHAR
STARTCHAR FF59
ENCODING 9081
SWIDTH 1000 0
DWIDTH 10 0
BBX 4 6 3 -1
BITMAP
90
A0
A0
60
40
40
ENDCHAR
STARTCHAR FF5A
ENCODING 9082
SWIDTH 1000 0
DWIDTH 10 0
BBX 4 6 3 0
BITMAP
F0
20
40
40
80
F0
ENDCHAR
STARTCHAR FF5B
ENCODING 9083
SWIDTH 1000 0
DWIDTH 10 0
BBX 3 9 4 -1
BITMAP
60
40
40
40
C0
40
40
40
60
ENDCHAR
STARTCHAR FF5C
ENCODING 9084
SWIDTH 1000 0
DWIDTH 10 0
BBX 1 8 4 -1
BITMAP
80
80
80
80
80
80
80
80
ENDCHAR
STARTCHAR FF5D
ENCODING 9085
SWIDTH 1000 0
DWIDTH 10 0
BBX 3 9 4 -1
BITMAP
C0
40
40
40
60
40
40
40
C0
ENDCHAR
STARTCHAR FFE3
ENCODING 9086
SWIDTH 1000 0
DWIDTH 10 0
BBX 5 1 3 3
BITMAP
F8
ENDCHAR
STARTCHAR 3131
ENCODING 9249
SWIDTH 1000 0
DWIDTH 10 0
BBX 6 5 2 0
BITMAP
FC
04
04
04
04
ENDCHAR
STARTCHAR 3132
ENCODING 9250
SWIDTH 1000 0
DWIDTH 10 0
BBX 7 5 1 0
BITMAP
FE
12
12
12
12
ENDCHAR
STARTCHAR 3133
ENCODING 9251
SWIDTH 1000 0
DWIDTH 10 0
BBX 8 5 1 0
BITMAP
F4
14
14
1A
11
ENDCHAR
STARTCHAR 3134
ENCODING 9252
SWIDTH 1000 0
DWIDTH 10 0
BBX 6 5 2 0
BITMAP
80
80
80
80
FC
ENDCHAR
STARTCHAR 3135
ENCODING 9253
SWIDTH 1000 0
DWIDTH 10 0
BBX 8 6 1 -1
BITMAP
9E
84
84
8A
E2
01
ENDCHAR
STARTCHAR 3136
ENCODING 9254
SWIDTH 1000 0
DWIDTH 10 0
BBX 8 6 1 -1
BITMAP
8E
9F
86
8A
EA
06
ENDCHAR
STARTCHAR 3137
ENCODING 9255
SWIDTH 1000 0
DWIDTH 10 0
BBX 6 5 2 0
BITMAP
FC
80
80
80
FC
ENDCHAR
STARTCHAR 3138
ENCODING 9256
SWIDTH 1000 0
DWIDTH 10 0
BBX 8 6 1 -1
BITMAP
FE
88
88
88
9F
60
ENDCHAR
STARTCHAR 3139
ENCODING 9257
SWIDTH 1000 0
DWIDTH 10 0
BBX 6 5 2 0
BITMAP
FC
04
FC
80
FC
ENDCHAR
STARTCHAR 313A
ENCODING 9258
SWIDTH 1000 0
DWIDTH 10 0
BBX 7 6 1 -1
BITMAP
FE
12
F2
82
82
60
ENDCHAR
STARTCHAR 313B
ENCODING 9259
SWIDTH 1000 0
DWIDTH 10 0
BBX 7 6 1 -1
BITMAP
FE
1A
FA
8A
8E
60
ENDCHAR
STARTCHAR 313C
ENCODING 9260
SWIDTH 1000 0
DWIDTH 10 0
BBX 7 6 1 -1
BITMAP
FA
1A
FE
8A
8E
60
ENDCHAR
STARTCHAR 313D
ENCODING 9261
SWIDTH 1000 0
DWIDTH 10 0
BBX 8 6 1 -1
BITMAP
E4
24
E4
8A
81
40
ENDCHAR
STARTCHAR 313E
ENCODING 9262
SWIDTH 1000 0
DWIDTH 10 0
BBX 8 6 1 -1
BITMAP
FE
18
FE
88
8F
60
ENDCHAR
STARTCHAR 313F
ENCODING 9263
SWIDTH 1000 0
DWIDTH 10 0
BBX 8 6 1 -1
BITMAP
EF
2A
EA
8A
9F
40
ENDCHAR
STARTCHAR 3140
ENCODING 9264
SWIDTH 1000 0
DWIDTH 10 0
BBX 8 6 1 -1
BITMAP
E6
2F
E6
89
89
46
ENDCHAR
STARTCHAR 3141
ENCODING 9265
SWIDTH 1000 0
DWIDTH 10 0
BBX 6 5 2 0
BITMAP
FC
84
84
84
FC
ENDCHAR
STARTCHAR 3142
ENCODING 9266
SWIDTH 1000 0
DWIDTH 10 0
BBX 6 5 2 0
BITMAP
84
84
FC
84
FC
ENDCHAR
STARTCHAR 3143
ENCODING 9267
SWIDTH 1000 0
DWIDTH 10 0
BBX 6 5 2 0
BITMAP
B4
B4
FC
B4
FC
ENDCHAR
STARTCHAR 3144
ENCODING 9268
SWIDTH 1000 0
DWIDTH 10 0
BBX 8 5 1 0
BITMAP
94
94
F4
9A
F1
ENDCHAR
STARTCHAR 3145
ENCODING 9269
SWIDTH 1000 0
DWIDTH 10 0
BBX 7 5 1 0
BITMAP
10
10
30
28
C6
ENDCHAR
STARTCHAR 3146
ENCODING 9270
SWIDTH 1000 0
DWIDTH 10 0
BBX 8 6 1 -1
BITMAP
24
24
24
64
5A
91
ENDCHAR
STARTCHAR 3147
ENCODING 9271
SWIDTH 1000 0
DWIDTH 10 0
BBX 6 5 2 0
BITMAP
78
84
84
84
78
ENDCHAR
STARTCHAR 3148
ENCODING 9272
SWIDTH 1000 0
DWIDTH 10 0
BBX 6 5 2 0
BITMAP
FC
20
30
50
48
ENDCHAR
STARTCHAR 3149
ENCODING 9273
SWIDTH 1000 0
DWIDTH 10 0
BBX 7 6 2 -1
BITMAP
FC
48
48
B4
84
02
ENDCHAR
STARTCHAR 314A
ENCODING 9274
SWIDTH 1000 0
DWIDTH 10 0
BBX 6 5 2 0
BITMAP
78
FC
20
50
88
ENDCHAR
STARTCHAR 314B
ENCODING 9275
SWIDTH 1000 0
DWIDTH 10 0
BBX 6 5 2 0
BITMAP
FC
04
F4
04
04
ENDCHAR
STARTCHAR 314C
ENCODING 9276
SWIDTH 1000 0
DWIDTH 10 0
BBX 6 5 2 0
BITMAP
FC
80
FC
80
FC
ENDCHAR
STARTCHAR 314D
ENCODING 9277
SWIDTH 1000 0
DWIDTH 10 0
BBX 6 5 2 0
BITMAP
FC
48
48
50
FC
ENDCHAR
STARTCHAR 314E
ENCODING 9278
SWIDTH 1000 0
DWIDTH 10 0
BBX 6 7 2 -1
BITMAP
78
00
FC
70
88
88
70
ENDCHAR
STARTCHAR 314F
ENCODING 9279
SWIDTH 1000 0
DWIDTH 10 0
BBX 3 9 4 -2
BITMAP
80
80
80
80
E0
80
80
80
80
ENDCHAR
STARTCHAR 3150
ENCODING 9280
SWIDTH 1000 0
DWIDTH 10 0
BBX 3 9 3 -2
BITMAP
A0
A0
A0
A0
E0
A0
A0
A0
A0
ENDCHAR
STARTCHAR 3151
ENCODING 9281
SWIDTH 1000 0
DWIDTH 10 0
BBX 3 9 4 -2
BITMAP
80
80
80
E0
80
E0
80
80
80
ENDCHAR
STARTCHAR 3152
ENCODING 9282
SWIDTH 1000 0
DWIDTH 10 0
BBX 4 9 3 -2
BITMAP
10
90
90
F0
90
F0
90
90
90
ENDCHAR
STARTCHAR 3153
ENCODING 9283
SWIDTH 1000 0
DWIDTH 10 0
BBX 4 9 2 -2
BITMAP
10
10
10
10
F0
10
10
10
10
ENDCHAR
STARTCHAR 3154
ENCODING 9284
SWIDTH 1000 0
DWIDTH 10 0
BBX 5 9 2 -2
BITMAP
08
28
28
28
E8
28
28
28
28
ENDCHAR
STARTCHAR 3155
ENCODING 9285
SWIDTH 1000 0
DWIDTH 10 0
BBX 4 9 2 -2
BITMAP
10
10
10
F0
10
F0
10
10
10
ENDCHAR
STARTCHAR 3156
ENCODING 9286
SWIDTH 1000 0
DWIDTH 10 0
BBX 5 9 2 -2
BITMAP
08
28
28
E8
28
E8
28
28
08
ENDCHAR
STARTCHAR 3157
ENCODING 9287
SWIDTH 1000 0
DWIDTH 10 0
BBX 9 5 0 0
BITMAP
0800
0800
0800
0800
FF80
ENDCHAR
STARTCHAR 3158
ENCODING 9288
SWIDTH 1000 0
DWIDTH 10 0
BBX 8 9 1 -2
BITMAP
04
24
24
24
27
FC
04
04
04
ENDCHAR
STARTCHAR 3159
ENCODING 9289
SWIDTH 1000 0
DWIDTH 10 0
BBX 6 9 2 -2
BITMAP
04
14
14
54
5C
54
B4
14
04
ENDCHAR
STARTCHAR 315A
ENCODING 9290
SWIDTH 1000 0
DWIDTH 10 0
BBX 5 9 3 -2
BITMAP
08
08
48
48
48
78
88
08
08
ENDCHAR
STARTCHAR 315B
ENCODING 9291
SWIDTH 1000 0
DWIDTH 10 0
BBX 8 5 1 0
BITMAP
24
24
24
24
FF
ENDCHAR
STARTCHAR 315C
ENCODING 9292
SWIDTH 1000 0
DWIDTH 10 0
BBX 9 7 0 -1
BITMAP
FF80
0800
0800
0800
0800
0800
0800
ENDCHAR
STARTCHAR 315D
ENCODING 9293
SWIDTH 1000 0
DWIDTH 10 0
BBX 7 9 1 -2
BITMAP
02
02
FE
12
1E
12
12
12
02
ENDCHAR
STARTCHAR 315E
ENCODING 9294
SWIDTH 1000 0
DWIDTH 10 0
BBX 7 9 1 -2
BITMAP
06
06
06
FE
3E
26
26
26
02
ENDCHAR
STARTCHAR 315F
ENCODING 9295
SWIDTH 1000 0
DWIDTH 10 0
BBX 7 9 1 -2
BITMAP
02
02
02
FE
12
12
12
12
02
ENDCHAR
STARTCHAR 3160
ENCODING 9296
SWIDTH 1000 0
DWIDTH 10 0
BBX 8 7 1 -1
BITMAP
FF
24
24
24
24
24
24
ENDCHAR
STARTCHAR 3161
ENCODING 9297
SWIDTH 1000 0
DWIDTH 10 0
BBX 8 1 1 2
BITMAP
FF
ENDCHAR
STARTCHAR 3162
ENCODING 9298
SWIDTH 1000 0
DWIDTH 10 0
BBX 6 9 2 -2
BITMAP
04
04
04
04
04
FC
04
04
04
ENDCHAR
STARTCHAR 3163
ENCODING 9299
SWIDTH 1000 0
DWIDTH 10 0
BBX 1 9 4 -2
BITMAP
80
80
80
80
80
80
80
80
80
ENDCHAR
STARTCHAR 3164
ENCODING 9300
SWIDTH 1000 0
DWIDTH 10 0
BBX 0 0 0 0
BITMAP
ENDCHAR
STARTCHAR 3165
ENCODING 9301
SWIDTH 1000 0
DWIDTH 10 0
BBX 8 5 1 0
BITMAP
88
88
88
88
EF
ENDCHAR
STARTCHAR 3166
ENCODING 9302
SWIDTH 1000 0
DWIDTH 10 0
BBX 8 5 1 0
BITMAP
8F
88
88
88
EF
ENDCHAR
STARTCHAR 3167
ENCODING 9303
SWIDTH 1000 0
DWIDTH 10 0
BBX 8 5 1 0
BITMAP
84
84
8C
8A
E1
ENDCHAR
STARTCHAR 3168
ENCODING 9304
SWIDTH 1000 0
DWIDTH 10 0
BBX 7 5 1 0
BITMAP
84
8C
8C
92
EE
ENDCHAR
STARTCHAR 3169
ENCODING 9305
SWIDTH 1000 0
DWIDTH 10 0
BBX 8 6 1 -1
BITMAP
FA
2A
EA
8D
AC
40
ENDCHAR
STARTCHAR 316A
ENCODING 9306
SWIDTH 1000 0
DWIDTH 10 0
BBX 8 5 1 0
BITMAP
7E
18
F8
88
EF
ENDCHAR
STARTCHAR 316B
ENCODING 9307
SWIDTH 1000 0
DWIDTH 10 0
BBX 8 6 1 -1
BITMAP
EA
3A
FA
9D
BD
40
ENDCHAR
STARTCHAR 316C
ENCODING 9308
SWIDTH 1000 0
DWIDTH 10 0
BBX 7 5 1 0
BITMAP
F4
1C
FA
8A
EE
ENDCHAR
STARTCHAR 316D
ENCODING 9309
SWIDTH 1000 0
DWIDTH 10 0
BBX 8 5 1 0
BITMAP
7F
1E
F9
89
BE
ENDCHAR
STARTCHAR 316E
ENCODING 9310
SWIDTH 1000 0
DWIDTH 10 0
BBX 7 5 1 0
BITMAP
FA
9A
9E
9A
FE
ENDCHAR
STARTCHAR 316F
ENCODING 9311
SWIDTH 1000 0
DWIDTH 10 0
BBX 8 5 1 0
BITMAP
F4
94
94
9A
F1
ENDCHAR
STARTCHAR 3170
ENCODING 9312
SWIDTH 1000 0
DWIDTH 10 0
BBX 8 5 1 0
BITMAP
F4
9C
9A
9A
FF
ENDCHAR
STARTCHAR 3171
ENCODING 9313
SWIDTH 1000 0
DWIDTH 10 0
BBX 4 8 3 -2
BITMAP
F0
90
90
F0
F0
90
90
60
ENDCHAR
STARTCHAR 3172
ENCODING 9314
SWIDTH 1000 0
DWIDTH 10 0
BBX 8 5 1 0
BITMAP
9F
91
F1
91
F1
ENDCHAR
STARTCHAR 3173
ENCODING 9315
SWIDTH 1000 0
DWIDTH 10 0
BBX 8 5 1 0
BITMAP
9E
98
F8
98
FF
ENDCHAR
STARTCHAR 3174
ENCODING 9316
SWIDTH 1000 0
DWIDTH 10 0
BBX 7 5 1 0
BITMAP
AE
AA
EA
B6
F2
ENDCHAR
STARTCHAR 3175
ENCODING 9317
SWIDTH 1000 0
DWIDTH 10 0
BBX 8 5 1 0
BITMAP
B6
B4
F4
AC
E7
ENDCHAR
STARTCHAR 3176
ENCODING 9318
SWIDTH 1000 0
DWIDTH 10 0
BBX 8 6 1 -1
BITMAP
9F
94
F4
9A
F2
01
ENDCHAR
STARTCHAR 3177
ENCODING 9319
SWIDTH 1000 0
DWIDTH 10 0
BBX 8 5 1 0
BITMAP
9F
98
FE
98
FE
ENDCHAR
STARTCHAR 3178
ENCODING 9320
SWIDTH 1000 0
DWIDTH 10 0
BBX 4 8 3 -2
BITMAP
90
F0
90
F0
F0
90
90
60
ENDCHAR
STARTCHAR 3179
ENCODING 9321
SWIDTH 1000 0
DWIDTH 10 0
BBX 6 9 2 -2
BITMAP
B4
B4
FC
B4
FC
70
48
48
30
ENDCHAR
STARTCHAR 317A
ENCODING 9322
SWIDTH 1000 0
DWIDTH 10 0
BBX 6 5 2 0
BITMAP
7C
44
C4
A4
14
ENDCHAR
STARTCHAR 317B
ENCODING 9323
SWIDTH 1000 0
DWIDTH 10 0
BBX 8 5 1 0
BITMAP
48
48
48
A8
1F
ENDCHAR
STARTCHAR 317C
ENCODING 9324
SWIDTH 1000 0
DWIDTH 10 0
BBX 7 5 2 0
BITMAP
5E
50
D0
B0
1E
ENDCHAR
STARTCHAR 317D
ENCODING 9325
SWIDTH 1000 0
DWIDTH 10 0
BBX 7 5 1 0
BITMAP
42
4A
4E
AA
1E
ENDCHAR
STARTCHAR 317E
ENCODING 9326
SWIDTH 1000 0
DWIDTH 10 0
BBX 7 6 2 -1
BITMAP
7E
48
C8
B4
04
02
ENDCHAR
STARTCHAR 317F
ENCODING 9327
SWIDTH 1000 0
DWIDTH 10 0
BBX 4 4 3 0
BITMAP
E0
A0
10
F0
ENDCHAR
STARTCHAR 3180
ENCODING 9328
SWIDTH 1000 0
DWIDTH 10 0
BBX 7 5 1 0
BITMAP
6E
9A
9A
9A
6E
ENDCHAR
STARTCHAR 3181
ENCODING 9329
SWIDTH 1000 0
DWIDTH 10 0
BBX 6 7 2 -1
BITMAP
20
20
D8
84
84
CC
78
ENDCHAR
STARTCHAR 3182
ENCODING 9330
SWIDTH 1000 0
DWIDTH 10 0
BBX 8 5 1 0
BITMAP
24
D4
94
9A
61
ENDCHAR
STARTCHAR 3183
ENCODING 9331
SWIDTH 1000 0
DWIDTH 10 0
BBX 7 5 1 0
BITMAP
24
DC
9A
9A
6E
ENDCHAR
STARTCHAR 3184
ENCODING 9332
SWIDTH 1000 0
DWIDTH 10 0
BBX 6 7 2 -1
BITMAP
FC
40
50
FC
78
48
78
ENDCHAR
STARTCHAR 3185
ENCODING 9333
SWIDTH 1000 0
DWIDTH 10 0
BBX 8 7 1 -1
BITMAP
66
00
FF
EE
99
99
E6
ENDCHAR
STARTCHAR 3186
ENCODING 9334
SWIDTH 1000 0
DWIDTH 10 0
BBX 7 7 1 -1
BITMAP
FE
00
00
38
24
24
38
ENDCHAR
STARTCHAR 3187
ENCODING 9335
SWIDTH 1000 0
DWIDTH 10 0
BBX 7 9 2 -2
BITMAP
08
68
68
6E
68
FE
08
08
08
ENDCHAR
STARTCHAR 3188
ENCODING 9336
SWIDTH 1000 0
DWIDTH 10 0
BBX 7 9 1 -2
BITMAP
0A
5A
5E
5A
5A
FE
0A
0A
02
ENDCHAR
STARTCHAR 3189
ENCODING 9337
SWIDTH 1000 0
DWIDTH 10 0
BBX 6 9 2 -2
BITMAP
04
64
64
64
64
FC
04
04
04
ENDCHAR
STARTCHAR 318A
ENCODING 9338
SWIDTH 1000 0
DWIDTH 10 0
BBX 7 9 1 -2
BITMAP
02
02
FE
32
36
36
32
32
02
ENDCHAR
STARTCHAR 318B
ENCODING 9339
SWIDTH 1000 0
DWIDTH 10 0
BBX 6 9 2 -2
BITMAP
04
0C
0C
EC
BC
BC
AC
AC
04
ENDCHAR
STARTCHAR 318C
ENCODING 9340
SWIDTH 1000 0
DWIDTH 10 0
BBX 7 9 1 -2
BITMAP
02
02
02
FE
2A
2A
2A
2A
02
ENDCHAR
STARTCHAR 318D
ENCODING 9341
SWIDTH 1000 0
DWIDTH 10 0
BBX 1 2 4 2
BITMAP
80
80
ENDCHAR
STARTCHAR 318E
ENCODING 9342
SWIDTH 1000 0
DWIDTH 10 0
BBX 4 9 3 -2
BITMAP
10
10
10
90
90
10
10
10
10
ENDCHAR
STARTCHAR 2170
ENCODING 9505
SWIDTH 1000 0
DWIDTH 10 0
BBX 1 7 4 0
BITMAP
80
00
80
80
80
80
80
ENDCHAR
STARTCHAR 2171
ENCODING 9506
SWIDTH 1000 0
DWIDTH 10 0
BBX 4 7 3 0
BITMAP
90
00
90
90
90
90
90
ENDCHAR
STARTCHAR 2172
ENCODING 9507
SWIDTH 1000 0
DWIDTH 10 0
BBX 5 7 2 0
BITMAP
A8
00
A8
A8
A8
A8
A8
ENDCHAR
STARTCHAR 2173
ENCODING 9508
SWIDTH 1000 0
DWIDTH 10 0
BBX 5 7 2 0
BITMAP
80
00
A0
A8
A8
90
80
ENDCHAR
STARTCHAR 2174
ENCODING 9509
SWIDTH 1000 0
DWIDTH 10 0
BBX 3 4 3 1
BITMAP
80
A0
A0
40
ENDCHAR
STARTCHAR 2175
ENCODING 9510
SWIDTH 1000 0
DWIDTH 10 0
BBX 6 7 2 0
BITMAP
04
00
84
A4
A4
44
04
ENDCHAR
STARTCHAR 2176
ENCODING 9511
SWIDTH 1000 0
DWIDTH 10 0
BBX 6 7 2 0
BITMAP
14
00
14
D4
D4
54
14
ENDCHAR
STARTCHAR 2177
ENCODING 9512
SWIDTH 1000 0
DWIDTH 10 0
BBX 7 7 1 0
BITMAP
0E
00
8E
AE
CE
4E
4E
ENDCHAR
STARTCHAR 2178
ENCODING 9513
SWIDTH 1000 0
DWIDTH 10 0
BBX 5 7 2 0
BITMAP
80
00
80
98
90
98
80
ENDCHAR
STARTCHAR 2179
ENCODING 9514
SWIDTH 1000 0
DWIDTH 10 0
BBX 3 4 3 1
BITMAP
80
A0
40
60
ENDCHAR
STARTCHAR 2160
ENCODING 9520
SWIDTH 1000 0
DWIDTH 10 0
BBX 1 7 4 0
BITMAP
80
80
80
80
80
80
80
ENDCHAR
STARTCHAR 2161
ENCODING 9521
SWIDTH 1000 0
DWIDTH 10 0
BBX 4 7 3 0
BITMAP
90
90
90
90
90
90
90
ENDCHAR
STARTCHAR 2162
ENCODING 9522
SWIDTH 1000 0
DWIDTH 10 0
BBX 6 7 2 0
BITMAP
A4
A4
A4
A4
A4
A4
A4
ENDCHAR
STARTCHAR 2163
ENCODING 9523
SWIDTH 1000 0
DWIDTH 10 0
BBX 6 7 2 0
BITMAP
84
A8
A8
A8
90
90
80
ENDCHAR
STARTCHAR 2164
ENCODING 9524
SWIDTH 1000 0
DWIDTH 10 0
BBX 4 6 3 1
BITMAP
10
A0
A0
A0
60
40
ENDCHAR
STARTCHAR 2165
ENCODING 9525
SWIDTH 1000 0
DWIDTH 10 0
BBX 6 7 2 0
BITMAP
94
A4
A4
A4
64
44
04
ENDCHAR
STARTCHAR 2166
ENCODING 9526
SWIDTH 1000 0
DWIDTH 10 0
BBX 7 7 1 0
BITMAP
96
96
A6
66
66
26
06
ENDCHAR
STARTCHAR 2167
ENCODING 9527
SWIDTH 1000 0
DWIDTH 10 0
BBX 8 7 1 0
BITMAP
8D
AD
AD
AD
4D
4D
0D
ENDCHAR
STARTCHAR 2168
ENCODING 9528
SWIDTH 1000 0
DWIDTH 10 0
BBX 5 7 2 0
BITMAP
A0
A8
90
90
90
A8
A8
ENDCHAR
STARTCHAR 2169
ENCODING 9529
SWIDTH 1000 0
DWIDTH 10 0
BBX 4 8 3 -1
BITMAP
80
A0
60
40
60
A0
A0
10
ENDCHAR
STARTCHAR 0391
ENCODING 9537
SWIDTH 1000 0
DWIDTH 10 0
BBX 6 7 2 -1
BITMAP
18
28
28
48
38
C4
84
ENDCHAR
STARTCHAR 0392
ENCODING 9538
SWIDTH 1000 0
DWIDTH 10 0
BBX 6 7 2 0
BITMAP
38
44
48
70
88
88
F0
ENDCHAR
STARTCHAR 0393
ENCODING 9539
SWIDTH 1000 0
DWIDTH 10 0
BBX 6 7 2 0
BITMAP
3C
40
40
40
40
80
80
ENDCHAR
STARTCHAR 0394
ENCODING 9540
SWIDTH 1000 0
DWIDTH 10 0
BBX 6 7 3 0
BITMAP
08
38
28
48
88
88
FC
ENDCHAR
STARTCHAR 0395
ENCODING 9541
SWIDTH 1000 0
DWIDTH 10 0
BBX 6 7 2 0
BITMAP
3C
40
40
78
80
80
F0
ENDCHAR
STARTCHAR 0396
ENCODING 9542
SWIDTH 1000 0
DWIDTH 10 0
BBX 6 7 2 0
BITMAP
7C
08
10
20
40
40
F8
ENDCHAR
STARTCHAR 0397
ENCODING 9543
SWIDTH 1000 0
DWIDTH 10 0
BBX 6 6 2 1
BITMAP
44
44
88
78
88
88
ENDCHAR
STARTCHAR 0398
ENCODING 9544
SWIDTH 1000 0
DWIDTH 10 0
BBX 6 8 2 -1
BITMAP
38
44
84
F4
88
88
90
60
ENDCHAR
STARTCHAR 0399
ENCODING 9545
SWIDTH 1000 0
DWIDTH 10 0
BBX 2 7 4 0
BITMAP
40
40
80
80
80
80
80
ENDCHAR
STARTCHAR 039A
ENCODING 9546
SWIDTH 1000 0
DWIDTH 10 0
BBX 5 6 2 0
BITMAP
58
60
60
50
90
08
ENDCHAR
STARTCHAR 039B
ENCODING 9547
SWIDTH 1000 0
DWIDTH 10 0
BBX 5 7 2 0
BITMAP
10
30
28
48
48
88
88
ENDCHAR
STARTCHAR 039C
ENCODING 9548
SWIDTH 1000 0
DWIDTH 10 0
BBX 7 7 1 0
BITMAP
22
22
66
6A
6C
94
10
ENDCHAR
STARTCHAR 039D
ENCODING 9549
SWIDTH 1000 0
DWIDTH 10 0
BBX 6 7 2 0
BITMAP
44
68
68
A8
A8
98
80
ENDCHAR
STARTCHAR 039E
ENCODING 9550
SWIDTH 1000 0
DWIDTH 10 0
BBX 5 7 2 0
BITMAP
78
00
00
78
00
00
F8
ENDCHAR
STARTCHAR 039F
ENCODING 9551
SWIDTH 1000 0
DWIDTH 10 0
BBX 6 8 2 -1
BITMAP
38
C8
84
88
88
88
50
20
ENDCHAR
STARTCHAR 03A0
ENCODING 9552
SWIDTH 1000 0
DWIDTH 10 0
BBX 6 7 2 0
BITMAP
7C
48
88
88
88
88
88
ENDCHAR
STARTCHAR 03A1
ENCODING 9553
SWIDTH 1000 0
DWIDTH 10 0
BBX 5 6 2 1
BITMAP
38
48
48
78
80
80
ENDCHAR
STARTCHAR 03A3
ENCODING 9554
SWIDTH 1000 0
DWIDTH 10 0
BBX 5 7 3 0
BITMAP
F8
40
40
20
40
80
F0
ENDCHAR
STARTCHAR 03A4
ENCODING 9555
SWIDTH 1000 0
DWIDTH 10 0
BBX 4 6 3 1
BITMAP
F0
40
40
40
40
40
ENDCHAR
STARTCHAR 03A5
ENCODING 9556
SWIDTH 1000 0
DWIDTH 10 0
BBX 4 5 3 1
BITMAP
90
A0
40
40
40
ENDCHAR
STARTCHAR 03A6
ENCODING 9557
SWIDTH 1000 0
DWIDTH 10 0
BBX 6 8 2 0
BITMAP
10
78
E4
A4
A4
A4
78
20
ENDCHAR
STARTCHAR 03A7
ENCODING 9558
SWIDTH 1000 0
DWIDTH 10 0
BBX 5 7 2 0
BITMAP
08
50
30
20
50
90
80
ENDCHAR
STARTCHAR 03A8
ENCODING 9559
SWIDTH 1000 0
DWIDTH 10 0
BBX 6 6 2 1
BITMAP
84
A4
A4
A8
78
40
ENDCHAR
STARTCHAR 03A9
ENCODING 9560
SWIDTH 1000 0
DWIDTH 10 0
BBX 6 7 2 0
BITMAP
78
84
84
84
88
50
D8
ENDCHAR
STARTCHAR 03B1
ENCODING 9569
SWIDTH 1000 0
DWIDTH 10 0
BBX 5 6 2 0
BITMAP
38
48
48
90
90
60
ENDCHAR
STARTCHAR 03B2
ENCODING 9570
SWIDTH 1000 0
DWIDTH 10 0
BBX 5 8 2 -1
BITMAP
78
48
30
D0
88
98
F0
80
ENDCHAR
STARTCHAR 03B3
ENCODING 9571
SWIDTH 1000 0
DWIDTH 10 0
BBX 5 8 2 -2
BITMAP
88
50
50
60
60
60
40
40
ENDCHAR
STARTCHAR 03B4
ENCODING 9572
SWIDTH 1000 0
DWIDTH 10 0
BBX 5 8 2 0
BITMAP
38
20
10
70
48
88
90
60
ENDCHAR
STARTCHAR 03B5
ENCODING 9573
SWIDTH 1000 0
DWIDTH 10 0
BBX 4 6 3 0
BITMAP
70
90
60
80
90
60
ENDCHAR
STARTCHAR 03B6
ENCODING 9574
SWIDTH 1000 0
DWIDTH 10 0
BBX 5 10 2 -2
BITMAP
38
10
10
20
40
40
80
60
10
30
ENDCHAR
STARTCHAR 03B7
ENCODING 9575
SWIDTH 1000 0
DWIDTH 10 0
BBX 4 8 3 -2
BITMAP
A0
D0
90
A0
A0
20
20
20
ENDCHAR
STARTCHAR 03B8
ENCODING 9576
SWIDTH 1000 0
DWIDTH 10 0
BBX 5 8 2 0
BITMAP
38
48
48
78
88
88
50
70
ENDCHAR
STARTCHAR 03B9
ENCODING 9577
SWIDTH 1000 0
DWIDTH 10 0
BBX 1 5 4 0
BITMAP
80
80
80
80
80
ENDCHAR
STARTCHAR 03BA
ENCODING 9578
SWIDTH 1000 0
DWIDTH 10 0
BBX 4 5 3 0
BITMAP
10
A0
C0
A0
80
ENDCHAR
STARTCHAR 03BB
ENCODING 9579
SWIDTH 1000 0
DWIDTH 10 0
BBX 5 7 2 0
BITMAP
20
10
30
50
50
90
88
ENDCHAR
STARTCHAR 03BC
ENCODING 9580
SWIDTH 1000 0
DWIDTH 10 0
BBX 5 6 2 -1
BITMAP
08
48
50
50
68
80
ENDCHAR
STARTCHAR 03BD
ENCODING 9581
SWIDTH 1000 0
DWIDTH 10 0
BBX 4 6 3 0
BITMAP
10
A0
A0
C0
C0
C0
ENDCHAR
STARTCHAR 03BE
ENCODING 9582
SWIDTH 1000 0
DWIDTH 10 0
BBX 4 9 3 -1
BITMAP
F0
40
80
40
80
80
80
60
20
ENDCHAR
STARTCHAR 03BF
ENCODING 9583
SWIDTH 1000 0
DWIDTH 10 0
BBX 5 6 2 -1
BITMAP
78
48
88
50
50
20
ENDCHAR
STARTCHAR 03C0
ENCODING 9584
SWIDTH 1000 0
DWIDTH 10 0
BBX 5 6 2 0
BITMAP
78
48
50
50
90
10
ENDCHAR
STARTCHAR 03C1
ENCODING 9585
SWIDTH 1000 0
DWIDTH 10 0
BBX 5 6 2 -1
BITMAP
38
48
48
48
70
80
ENDCHAR
STARTCHAR 03C3
ENCODING 9586
SWIDTH 1000 0
DWIDTH 10 0
BBX 6 6 2 0
BITMAP
3C
48
48
88
50
50
ENDCHAR
STARTCHAR 03C4
ENCODING 9587
SWIDTH 1000 0
DWIDTH 10 0
BBX 4 6 3 0
BITMAP
F0
40
40
40
40
60
ENDCHAR
STARTCHAR 03C5
ENCODING 9588
SWIDTH 1000 0
DWIDTH 10 0
BBX 4 6 3 0
BITMAP
10
90
A0
A0
A0
E0
ENDCHAR
STARTCHAR 03C6
ENCODING 9589
SWIDTH 1000 0
DWIDTH 10 0
BBX 5 6 3 -1
BITMAP
38
C8
C8
C8
70
40
ENDCHAR
STARTCHAR 03C7
ENCODING 9590
SWIDTH 1000 0
DWIDTH 10 0
BBX 4 7 3 -1
BITMAP
90
60
60
40
40
A0
A0
ENDCHAR
STARTCHAR 03C8
ENCODING 9591
SWIDTH 1000 0
DWIDTH 10 0
BBX 6 7 2 -1
BITMAP
14
A4
A8
A8
A8
78
20
ENDCHAR
STARTCHAR 03C9
ENCODING 9592
SWIDTH 1000 0
DWIDTH 10 0
BBX 5 5 2 0
BITMAP
40
88
A8
A8
58
ENDCHAR
STARTCHAR 2500
ENCODING 9761
SWIDTH 1000 0
DWIDTH 10 0
BBX 10 1 0 3
BITMAP
FFC0
ENDCHAR
STARTCHAR 2502
ENCODING 9762
SWIDTH 1000 0
DWIDTH 10 0
BBX 1 10 5 -2
BITMAP
80
80
80
80
80
80
80
80
80
80
ENDCHAR
STARTCHAR 250C
ENCODING 9763
SWIDTH 1000 0
DWIDTH 10 0
BBX 6 6 5 -2
BITMAP
FC
80
80
80
80
80
ENDCHAR
STARTCHAR 2510
ENCODING 9764
SWIDTH 1000 0
DWIDTH 10 0
BBX 6 6 0 -2
BITMAP
FC
04
04
04
04
04
ENDCHAR
STARTCHAR 2518
ENCODING 9765
SWIDTH 1000 0
DWIDTH 10 0
BBX 6 5 0 3
BITMAP
04
04
04
04
FC
ENDCHAR
STARTCHAR 2514
ENCODING 9766
SWIDTH 1000 0
DWIDTH 10 0
BBX 6 5 5 3
BITMAP
80
80
80
80
FC
ENDCHAR
STARTCHAR 251C
ENCODING 9767
SWIDTH 1000 0
DWIDTH 10 0
BBX 6 10 5 -2
BITMAP
80
80
80
80
FC
80
80
80
80
80
ENDCHAR
STARTCHAR 252C
ENCODING 9768
SWIDTH 1000 0
DWIDTH 10 0
BBX 11 6 0 -2
BITMAP
FFE0
0400
0400
0400
0400
0400
ENDCHAR
STARTCHAR 2524
ENCODING 9769
SWIDTH 1000 0
DWIDTH 10 0
BBX 6 10 0 -2
BITMAP
04
04
04
04
FC
04
04
04
04
04
ENDCHAR
STARTCHAR 2534
ENCODING 9770
SWIDTH 1000 0
DWIDTH 10 0
BBX 11 5 0 3
BITMAP
0400
0400
0400
0400
FFE0
ENDCHAR
STARTCHAR 253C
ENCODING 9771
SWIDTH 1000 0
DWIDTH 10 0
BBX 11 10 0 -2
BITMAP
0400
0400
0400
0400
FFE0
0400
0400
0400
0400
0400
ENDCHAR
STARTCHAR 2501
ENCODING 9772
SWIDTH 1000 0
DWIDTH 10 0
BBX 10 1 0 3
BITMAP
FFC0
ENDCHAR
STARTCHAR 2503
ENCODING 9773
SWIDTH 1000 0
DWIDTH 10 0
BBX 1 10 5 -2
BITMAP
80
80
80
80
80
80
80
80
80
80
ENDCHAR
STARTCHAR 250F
ENCODING 9774
SWIDTH 1000 0
DWIDTH 10 0
BBX 6 6 5 -2
BITMAP
FC
80
80
80
80
80
ENDCHAR
STARTCHAR 2513
ENCODING 9775
SWIDTH 1000 0
DWIDTH 10 0
BBX 6 6 0 -2
BITMAP
FC
04
04
04
04
04
ENDCHAR
STARTCHAR 251B
ENCODING 9776
SWIDTH 1000 0
DWIDTH 10 0
BBX 6 5 0 3
BITMAP
04
04
04
04
FC
ENDCHAR
STARTCHAR 2517
ENCODING 9777
SWIDTH 1000 0
DWIDTH 10 0
BBX 6 5 5 3
BITMAP
80
80
80
80
FC
ENDCHAR
STARTCHAR 2523
ENCODING 9778
SWIDTH 1000 0
DWIDTH 10 0
BBX 6 10 5 -2
BITMAP
80
80
80
80
FC
80
80
80
80
80
ENDCHAR
STARTCHAR 2533
ENCODING 9779
SWIDTH 1000 0
DWIDTH 10 0
BBX 11 6 0 -2
BITMAP
FFE0
0400
0400
0400
0400
0400
ENDCHAR
STARTCHAR 252B
ENCODING 9780
SWIDTH 1000 0
DWIDTH 10 0
BBX 6 10 0 -2
BITMAP
04
04
04
04
FC
04
04
04
04
04
ENDCHAR
STARTCHAR 253B
ENCODING 9781
SWIDTH 1000 0
DWIDTH 10 0
BBX 11 5 0 3
BITMAP
0400
0400
0400
0400
FFE0
ENDCHAR
STARTCHAR 254B
ENCODING 9782
SWIDTH 1000 0
DWIDTH 10 0
BBX 11 10 0 -2
BITMAP
0400
0400
0400
0400
FFE0
0400
0400
0400
0400
0400
ENDCHAR
STARTCHAR 2520
ENCODING 9783
SWIDTH 1000 0
DWIDTH 10 0
BBX 6 10 5 -2
BITMAP
80
80
80
80
FC
80
80
80
80
80
ENDCHAR
STARTCHAR 252F
ENCODING 9784
SWIDTH 1000 0
DWIDTH 10 0
BBX 11 6 0 -2
BITMAP
FFE0
0400
0400
0400
0400
0400
ENDCHAR
STARTCHAR 2528
ENCODING 9785
SWIDTH 1000 0
DWIDTH 10 0
BBX 6 10 0 -2
BITMAP
04
04
04
04
FC
04
04
04
04
04
ENDCHAR
STARTCHAR 2537
ENCODING 9786
SWIDTH 1000 0
DWIDTH 10 0
BBX 11 5 0 3
BITMAP
0400
0400
0400
0400
FFE0
ENDCHAR
STARTCHAR 253F
ENCODING 9787
SWIDTH 1000 0
DWIDTH 10 0
BBX 11 10 0 -2
BITMAP
0400
0400
0400
0400
FFE0
0400
0400
0400
0400
0400
ENDCHAR
STARTCHAR 251D
ENCODING 9788
SWIDTH 1000 0
DWIDTH 10 0
BBX 6 10 5 -2
BITMAP
80
80
80
80
FC
80
80
80
80
80
ENDCHAR
STARTCHAR 2530
ENCODING 9789
SWIDTH 1000 0
DWIDTH 10 0
BBX 11 6 0 -2
BITMAP
FFE0
0400
0400
0400
0400
0400
ENDCHAR
STARTCHAR 2525
ENCODING 9790
SWIDTH 1000 0
DWIDTH 10 0
BBX 6 10 0 -2
BITMAP
04
04
04
04
FC
04
04
04
04
04
ENDCHAR
STARTCHAR 2538
ENCODING 9791
SWIDTH 1000 0
DWIDTH 10 0
BBX 11 5 0 3
BITMAP
0400
0400
0400
0400
FFE0
ENDCHAR
STARTCHAR 2542
ENCODING 9792
SWIDTH 1000 0
DWIDTH 10 0
BBX 11 10 0 -2
BITMAP
0400
0400
0400
0400
FFE0
0400
0400
0400
0400
0400
ENDCHAR
STARTCHAR 2512
ENCODING 9793
SWIDTH 1000 0
DWIDTH 10 0
BBX 6 6 0 -2
BITMAP
FC
04
04
04
04
04
ENDCHAR
STARTCHAR 2511
ENCODING 9794
SWIDTH 1000 0
DWIDTH 10 0
BBX 6 6 0 -2
BITMAP
FC
04
04
04
04
04
ENDCHAR
STARTCHAR 251A
ENCODING 9795
SWIDTH 1000 0
DWIDTH 10 0
BBX 6 5 0 3
BITMAP
04
04
04
04
FC
ENDCHAR
STARTCHAR 2519
ENCODING 9796
SWIDTH 1000 0
DWIDTH 10 0
BBX 6 5 0 3
BITMAP
04
04
04
04
FC
ENDCHAR
STARTCHAR 2516
ENCODING 9797
SWIDTH 1000 0
DWIDTH 10 0
BBX 6 5 5 3
BITMAP
80
80
80
80
FC
ENDCHAR
STARTCHAR 2515
ENCODING 9798
SWIDTH 1000 0
DWIDTH 10 0
BBX 6 5 5 3
BITMAP
80
80
80
80
FC
ENDCHAR
STARTCHAR 250E
ENCODING 9799
SWIDTH 1000 0
DWIDTH 10 0
BBX 6 6 5 -2
BITMAP
FC
80
80
80
80
80
ENDCHAR
STARTCHAR 250D
ENCODING 9800
SWIDTH 1000 0
DWIDTH 10 0
BBX 6 6 5 -2
BITMAP
FC
80
80
80
80
80
ENDCHAR
STARTCHAR 251E
ENCODING 9801
SWIDTH 1000 0
DWIDTH 10 0
BBX 6 10 5 -2
BITMAP
80
80
80
80
FC
80
80
80
80
80
ENDCHAR
STARTCHAR 251F
ENCODING 9802
SWIDTH 1000 0
DWIDTH 10 0
BBX 6 10 5 -2
BITMAP
80
80
80
80
FC
80
80
80
80
80
ENDCHAR
STARTCHAR 2521
ENCODING 9803
SWIDTH 1000 0
DWIDTH 10 0
BBX 6 10 5 -2
BITMAP
80
80
80
80
FC
80
80
80
80
80
ENDCHAR
STARTCHAR 2522
ENCODING 9804
SWIDTH 1000 0
DWIDTH 10 0
BBX 6 10 5 -2
BITMAP
80
80
80
80
FC
80
80
80
80
80
ENDCHAR
STARTCHAR 2526
ENCODING 9805
SWIDTH 1000 0
DWIDTH 10 0
BBX 6 10 0 -2
BITMAP
04
04
04
04
FC
04
04
04
04
04
ENDCHAR
STARTCHAR 2527
ENCODING 9806
SWIDTH 1000 0
DWIDTH 10 0
BBX 6 10 0 -2
BITMAP
04
04
04
04
FC
04
04
04
04
04
ENDCHAR
STARTCHAR 2529
ENCODING 9807
SWIDTH 1000 0
DWIDTH 10 0
BBX 6 10 0 -2
BITMAP
04
04
04
04
FC
04
04
04
04
04
ENDCHAR
STARTCHAR 252A
ENCODING 9808
SWIDTH 1000 0
DWIDTH 10 0
BBX 6 10 0 -2
BITMAP
04
04
04
04
FC
04
04
04
04
04
ENDCHAR
STARTCHAR 252D
ENCODING 9809
SWIDTH 1000 0
DWIDTH 10 0
BBX 11 6 0 -2
BITMAP
FFE0
0400
0400
0400
0400
0400
ENDCHAR
STARTCHAR 252E
ENCODING 9810
SWIDTH 1000 0
DWIDTH 10 0
BBX 11 6 0 -2
BITMAP
FFE0
0400
0400
0400
0400
0400
ENDCHAR
STARTCHAR 2531
ENCODING 9811
SWIDTH 1000 0
DWIDTH 10 0
BBX 11 6 0 -2
BITMAP
FFE0
0400
0400
0400
0400
0400
ENDCHAR
STARTCHAR 2532
ENCODING 9812
SWIDTH 1000 0
DWIDTH 10 0
BBX 11 6 0 -2
BITMAP
FFE0
0400
0400
0400
0400
0400
ENDCHAR
STARTCHAR 2535
ENCODING 9813
SWIDTH 1000 0
DWIDTH 10 0
BBX 11 5 0 3
BITMAP
0400
0400
0400
0400
FFE0
ENDCHAR
STARTCHAR 2536
ENCODING 9814
SWIDTH 1000 0
DWIDTH 10 0
BBX 11 5 0 3
BITMAP
0400
0400
0400
0400
FFE0
ENDCHAR
STARTCHAR 2539
ENCODING 9815
SWIDTH 1000 0
DWIDTH 10 0
BBX 11 5 0 3
BITMAP
0400
0400
0400
0400
FFE0
ENDCHAR
STARTCHAR 253A
ENCODING 9816
SWIDTH 1000 0
DWIDTH 10 0
BBX 11 5 0 3
BITMAP
0400
0400
0400
0400
FFE0
ENDCHAR
STARTCHAR 253D
ENCODING 9817
SWIDTH 1000 0
DWIDTH 10 0
BBX 11 10 0 -2
BITMAP
0400
0400
0400
0400
FFE0
0400
0400
0400
0400
0400
ENDCHAR
STARTCHAR 253E
ENCODING 9818
SWIDTH 1000 0
DWIDTH 10 0
BBX 11 10 0 -2
BITMAP
0400
0400
0400
0400
FFE0
0400
0400
0400
0400
0400
ENDCHAR
STARTCHAR 2540
ENCODING 9819
SWIDTH 1000 0
DWIDTH 10 0
BBX 11 10 0 -2
BITMAP
0400
0400
0400
0400
FFE0
0400
0400
0400
0400
0400
ENDCHAR
STARTCHAR 2541
ENCODING 9820
SWIDTH 1000 0
DWIDTH 10 0
BBX 11 10 0 -2
BITMAP
0400
0400
0400
0400
FFE0
0400
0400
0400
0400
0400
ENDCHAR
STARTCHAR 2543
ENCODING 9821
SWIDTH 1000 0
DWIDTH 10 0
BBX 11 10 0 -2
BITMAP
0400
0400
0400
0400
FFE0
0400
0400
0400
0400
0400
ENDCHAR
STARTCHAR 2544
ENCODING 9822
SWIDTH 1000 0
DWIDTH 10 0
BBX 11 10 0 -2
BITMAP
0400
0400
0400
0400
FFE0
0400
0400
0400
0400
0400
ENDCHAR
STARTCHAR 2545
ENCODING 9823
SWIDTH 1000 0
DWIDTH 10 0
BBX 11 10 0 -2
BITMAP
0400
0400
0400
0400
FFE0
0400
0400
0400
0400
0400
ENDCHAR
STARTCHAR 2546
ENCODING 9824
SWIDTH 1000 0
DWIDTH 10 0
BBX 11 10 0 -2
BITMAP
0400
0400
0400
0400
FFE0
0400
0400
0400
0400
0400
ENDCHAR
STARTCHAR 2547
ENCODING 9825
SWIDTH 1000 0
DWIDTH 10 0
BBX 11 10 0 -2
BITMAP
0400
0400
0400
0400
FFE0
0400
0400
0400
0400
0400
ENDCHAR
STARTCHAR 2548
ENCODING 9826
SWIDTH 1000 0
DWIDTH 10 0
BBX 11 10 0 -2
BITMAP
0400
0400
0400
0400
FFE0
0400
0400
0400
0400
0400
ENDCHAR
STARTCHAR 2549
ENCODING 9827
SWIDTH 1000 0
DWIDTH 10 0
BBX 11 10 0 -2
BITMAP
0400
0400
0400
0400
FFE0
0400
0400
0400
0400
0400
ENDCHAR
STARTCHAR 254A
ENCODING 9828
SWIDTH 1000 0
DWIDTH 10 0
BBX 11 10 0 -2
BITMAP
0400
0400
0400
0400
FFE0
0400
0400
0400
0400
0400
ENDCHAR
STARTCHAR 3395
ENCODING 10017
SWIDTH 1000 0
DWIDTH 10 0
BBX 8 8 1 -1
BITMAP
03
05
55
56
96
A5
E5
02
ENDCHAR
STARTCHAR 3396
ENCODING 10018
SWIDTH 1000 0
DWIDTH 10 0
BBX 7 8 1 -1
BITMAP
06
CA
FA
DC
DC
D8
DA
04
ENDCHAR
STARTCHAR 3397
ENCODING 10019
SWIDTH 1000 0
DWIDTH 10 0
BBX 8 8 1 -1
BITMAP
17
79
99
9A
9A
94
75
02
ENDCHAR
STARTCHAR 2113
ENCODING 10020
SWIDTH 1000 0
DWIDTH 10 0
BBX 3 8 3 -1
BITMAP
60
A0
A0
C0
C0
80
A0
40
ENDCHAR
STARTCHAR 3398
ENCODING 10021
SWIDTH 1000 0
DWIDTH 10 0
BBX 8 7 1 0
BITMAP
86
9A
AA
CA
CC
A9
96
ENDCHAR
STARTCHAR 33C4
ENCODING 10022
SWIDTH 1000 0
DWIDTH 10 0
BBX 8 6 1 0
BITMAP
66
99
88
98
99
66
ENDCHAR
STARTCHAR 33A3
ENCODING 10023
SWIDTH 1000 0
DWIDTH 10 0
BBX 8 7 1 0
BITMAP
01
BF
FC
FC
FC
FC
FC
ENDCHAR
STARTCHAR 33A4
ENCODING 10024
SWIDTH 1000 0
DWIDTH 10 0
BBX 8 6 1 0
BITMAP
51
BC
BC
9C
9C
7C
ENDCHAR
STARTCHAR 33A5
ENCODING 10025
SWIDTH 1000 0
DWIDTH 10 0
BBX 8 6 1 0
BITMAP
A9
D4
94
94
94
94
ENDCHAR
STARTCHAR 33A6
ENCODING 10026
SWIDTH 1000 0
DWIDTH 10 0
BBX 8 8 1 -1
BITMAP
80
85
DC
DC
9C
DC
DC
20
ENDCHAR
STARTCHAR 3399
ENCODING 10027
SWIDTH 1000 0
DWIDTH 10 0
BBX 8 8 1 0
BITMAP
70
40
F0
4F
4D
4D
4D
4D
ENDCHAR
STARTCHAR 339A
ENCODING 10028
SWIDTH 1000 0
DWIDTH 10 0
BBX 8 6 1 0
BITMAP
ED
AF
AD
AD
AD
AD
ENDCHAR
STARTCHAR 339B
ENCODING 10029
SWIDTH 1000 0
DWIDTH 10 0
BBX 8 6 1 0
BITMAP
0D
5B
5B
AB
AB
EB
ENDCHAR
STARTCHAR 339C
ENCODING 10030
SWIDTH 1000 0
DWIDTH 10 0
BBX 8 6 1 0
BITMAP
DD
FF
DD
DD
DD
DD
ENDCHAR
STARTCHAR 339D
ENCODING 10031
SWIDTH 1000 0
DWIDTH 10 0
BBX 8 6 1 0
BITMAP
45
AF
8D
9D
9D
6D
ENDCHAR
STARTCHAR 339E
ENCODING 10032
SWIDTH 1000 0
DWIDTH 10 0
BBX 8 8 1 -1
BITMAP
80
9A
B5
D5
D5
D5
B5
80
ENDCHAR
STARTCHAR 339F
ENCODING 10033
SWIDTH 1000 0
DWIDTH 10 0
BBX 8 8 1 0
BITMAP
01
02
1F
FA
FA
FA
FA
E0
ENDCHAR
STARTCHAR 33A0
ENCODING 10034
SWIDTH 1000 0
DWIDTH 10 0
BBX 8 8 1 0
BITMAP
01
02
59
BE
BA
9A
BA
7A
ENDCHAR
STARTCHAR 33A1
ENCODING 10035
SWIDTH 1000 0
DWIDTH 10 0
BBX 8 8 1 0
BITMAP
01
02
A9
F4
A4
A4
A4
A4
ENDCHAR
STARTCHAR 33A2
ENCODING 10036
SWIDTH 1000 0
DWIDTH 10 0
BBX 8 9 1 -1
BITMAP
01
82
99
DE
DA
9A
DA
DA
A0
ENDCHAR
STARTCHAR 33CA
ENCODING 10037
SWIDTH 1000 0
DWIDTH 10 0
BBX 8 8 1 -1
BITMAP
80
86
E1
91
9F
99
9B
14
ENDCHAR
STARTCHAR 338D
ENCODING 10038
SWIDTH 1000 0
DWIDTH 10 0
BBX 8 6 1 0
BITMAP
57
59
A6
AE
A9
CF
ENDCHAR
STARTCHAR 338E
ENCODING 10039
SWIDTH 1000 0
DWIDTH 10 0
BBX 8 6 1 0
BITMAP
07
FA
AA
AE
A9
AF
ENDCHAR
STARTCHAR 338F
ENCODING 10040
SWIDTH 1000 0
DWIDTH 10 0
BBX 8 8 1 -1
BITMAP
80
87
AA
C6
CC
B3
AE
80
ENDCHAR
STARTCHAR 33CF
ENCODING 10041
SWIDTH 1000 0
DWIDTH 10 0
BBX 8 8 1 -1
BITMAP
84
84
AF
C4
C4
A4
A5
12
ENDCHAR
STARTCHAR 3388
ENCODING 10042
SWIDTH 1000 0
DWIDTH 10 0
BBX 8 8 1 -1
BITMAP
01
45
AB
83
9F
93
77
08
ENDCHAR
STARTCHAR 3389
ENCODING 10043
SWIDTH 1000 0
DWIDTH 10 0
BBX 8 7 1 0
BITMAP
81
95
F3
E3
EF
EB
DF
ENDCHAR
STARTCHAR 33C8
ENCODING 10044
SWIDTH 1000 0
DWIDTH 10 0
BBX 8 8 1 0
BITMAP
1F
19
79
9A
9F
99
99
6F
ENDCHAR
STARTCHAR 33A7
ENCODING 10045
SWIDTH 1000 0
DWIDTH 10 0
BBX 8 8 1 -1
BITMAP
F0
B6
B4
08
1E
29
47
87
ENDCHAR
STARTCHAR 33A8
ENCODING 10046
SWIDTH 1000 0
DWIDTH 10 0
BBX 8 8 1 -1
BITMAP
F0
D6
D9
09
1C
32
5E
8E
ENDCHAR
STARTCHAR 33B0
ENCODING 10047
SWIDTH 1000 0
DWIDTH 10 0
BBX 8 7 1 -1
BITMAP
E6
99
98
96
99
E6
80
ENDCHAR
STARTCHAR 33B1
ENCODING 10048
SWIDTH 1000 0
DWIDTH 10 0
BBX 8 6 1 0
BITMAP
B6
D9
98
96
99
96
ENDCHAR
STARTCHAR 33B2
ENCODING 10049
SWIDTH 1000 0
DWIDTH 10 0
BBX 8 6 1 0
BITMAP
46
59
94
A3
A1
E7
ENDCHAR
STARTCHAR 33B3
ENCODING 10050
SWIDTH 1000 0
DWIDTH 10 0
BBX 8 6 1 0
BITMAP
FE
A9
A8
AE
A9
AE
ENDCHAR
STARTCHAR 33B4
ENCODING 10051
SWIDTH 1000 0
DWIDTH 10 0
BBX 8 8 1 -1
BITMAP
09
0A
FA
9A
96
96
E4
80
ENDCHAR
STARTCHAR 33B5
ENCODING 10052
SWIDTH 1000 0
DWIDTH 10 0
BBX 8 7 1 0
BITMAP
09
BA
DA
9A
96
96
94
ENDCHAR
STARTCHAR 33B6
ENCODING 10053
SWIDTH 1000 0
DWIDTH 10 0
BBX 8 8 1 -1
BITMAP
09
09
5A
96
A6
A6
E2
80
ENDCHAR
STARTCHAR 33B7
ENCODING 10054
SWIDTH 1000 0
DWIDTH 10 0
BBX 8 7 1 0
BITMAP
09
D9
FA
DA
D6
D6
D0
ENDCHAR
STARTCHAR 33B8
ENCODING 10055
SWIDTH 1000 0
DWIDTH 10 0
BBX 8 8 1 0
BITMAP
80
89
8A
AA
CA
C6
A6
94
ENDCHAR
STARTCHAR 33B9
ENCODING 10056
SWIDTH 1000 0
DWIDTH 10 0
BBX 8 7 1 0
BITMAP
99
99
9A
FA
D6
D6
92
ENDCHAR
STARTCHAR 3380
ENCODING 10057
SWIDTH 1000 0
DWIDTH 10 0
BBX 8 8 1 -1
BITMAP
06
06
EA
9A
96
99
E9
80
ENDCHAR
STARTCHAR 3381
ENCODING 10058
SWIDTH 1000 0
DWIDTH 10 0
BBX 8 7 1 0
BITMAP
04
B6
DA
9A
96
99
99
ENDCHAR
STARTCHAR 3382
ENCODING 10059
SWIDTH 1000 0
DWIDTH 10 0
BBX 8 8 1 -1
BITMAP
02
06
56
5A
97
A9
E9
80
ENDCHAR
STARTCHAR 3383
ENCODING 10060
SWIDTH 1000 0
DWIDTH 10 0
BBX 8 7 1 0
BITMAP
06
D6
FA
DA
D6
D9
D9
ENDCHAR
STARTCHAR 3384
ENCODING 10061
SWIDTH 1000 0
DWIDTH 10 0
BBX 8 7 1 0
BITMAP
86
86
AA
CA
C6
A9
A9
ENDCHAR
STARTCHAR 33BA
ENCODING 10062
SWIDTH 1000 0
DWIDTH 10 0
BBX 9 8 1 -1
BITMAP
0B00
4F00
AF00
9D00
9D80
9D80
E800
8000
ENDCHAR
STARTCHAR 33BB
ENCODING 10063
SWIDTH 1000 0
DWIDTH 10 0
BBX 9 7 1 0
BITMAP
0B00
BB00
DF00
9D00
9D80
9D80
9900
ENDCHAR
STARTCHAR 33BC
ENCODING 10064
SWIDTH 1000 0
DWIDTH 10 0
BBX 8 7 1 0
BITMAP
0B
0F
AF
AD
AD
AD
E8
ENDCHAR
STARTCHAR 33BD
ENCODING 10065
SWIDTH 1000 0
DWIDTH 10 0
BBX 8 7 1 0
BITMAP
0B
DF
FF
DD
DD
DD
D8
ENDCHAR
STARTCHAR 33BE
ENCODING 10066
SWIDTH 1000 0
DWIDTH 10 0
BBX 8 7 1 0
BITMAP
8D
BD
DD
DD
CB
C9
A9
ENDCHAR
STARTCHAR 33BF
ENCODING 10067
SWIDTH 1000 0
DWIDTH 10 0
BBX 8 7 1 0
BITMAP
97
9F
9F
FF
F6
D6
96
ENDCHAR
STARTCHAR 3390
ENCODING 10068
SWIDTH 1000 0
DWIDTH 10 0
BBX 8 8 1 -1
BITMAP
90
9F
92
F4
94
98
9F
90
ENDCHAR
STARTCHAR 3391
ENCODING 10069
SWIDTH 1000 0
DWIDTH 10 0
BBX 8 8 1 -1
BITMAP
A8
AB
EA
BA
AA
EC
AB
28
ENDCHAR
STARTCHAR 3392
ENCODING 10070
SWIDTH 1000 0
DWIDTH 10 0
BBX 9 8 0 -1
BITMAP
1A00
BB80
BA80
BF00
BB00
7B00
7B80
0A00
ENDCHAR
STARTCHAR 3393
ENCODING 10071
SWIDTH 1000 0
DWIDTH 10 0
BBX 8 8 1 -1
BITMAP
F4
B7
95
9E
B6
B6
B7
54
ENDCHAR
STARTCHAR 3394
ENCODING 10072
SWIDTH 1000 0
DWIDTH 10 0
BBX 8 9 1 -1
BITMAP
E0
54
57
55
5E
56
54
57
14
ENDCHAR
STARTCHAR 2126
ENCODING 10073
SWIDTH 1000 0
DWIDTH 10 0
BBX 6 7 2 0
BITMAP
78
84
84
84
48
30
30
ENDCHAR
STARTCHAR 33C0
ENCODING 10074
SWIDTH 1000 0
DWIDTH 10 0
BBX 8 9 1 -1
BITMAP
0E
9B
91
D1
D1
CA
C6
AF
80
ENDCHAR
STARTCHAR 33C1
ENCODING 10075
SWIDTH 1000 0
DWIDTH 10 0
BBX 8 8 1 0
BITMAP
0E
BB
B1
B1
F1
AA
A6
AF
ENDCHAR
STARTCHAR 338A
ENCODING 10076
SWIDTH 1000 0
DWIDTH 10 0
BBX 8 9 1 -1
BITMAP
0F
08
08
FF
98
98
98
E8
80
ENDCHAR
STARTCHAR 338B
ENCODING 10077
SWIDTH 1000 0
DWIDTH 10 0
BBX 8 8 1 0
BITMAP
0F
08
B8
DF
98
98
98
98
ENDCHAR
STARTCHAR 338C
ENCODING 10078
SWIDTH 1000 0
DWIDTH 10 0
BBX 8 8 1 0
BITMAP
0F
08
48
5F
98
A8
A8
C8
ENDCHAR
STARTCHAR 33D6
ENCODING 10079
SWIDTH 1000 0
DWIDTH 10 0
BBX 8 7 1 0
BITMAP
01
F5
DB
DB
DB
DB
D5
ENDCHAR
STARTCHAR 33C5
ENCODING 10080
SWIDTH 1000 0
DWIDTH 10 0
BBX 8 7 1 0
BITMAP
01
61
9F
89
89
99
67
ENDCHAR
STARTCHAR 33AD
ENCODING 10081
SWIDTH 1000 0
DWIDTH 10 0
BBX 8 8 1 -1
BITMAP
01
11
EF
9D
AD
CD
BD
03
ENDCHAR
STARTCHAR 33AE
ENCODING 10082
SWIDTH 1000 0
DWIDTH 10 0
BBX 8 8 1 -1
BITMAP
04
FC
9C
FD
27
0D
33
03
ENDCHAR
STARTCHAR 33AF
ENCODING 10083
SWIDTH 1000 0
DWIDTH 10 0
BBX 9 8 0 -1
BITMAP
0200
BE00
DA00
DF80
2280
0F00
1100
0300
ENDCHAR
STARTCHAR 33DB
ENCODING 10084
SWIDTH 1000 0
DWIDTH 10 0
BBX 7 6 1 0
BITMAP
E2
8C
88
68
98
68
ENDCHAR
STARTCHAR 33A9
ENCODING 10085
SWIDTH 1000 0
DWIDTH 10 0
BBX 8 9 1 -1
BITMAP
E0
90
92
95
E1
8F
89
0B
04
ENDCHAR
STARTCHAR 33AA
ENCODING 10086
SWIDTH 1000 0
DWIDTH 10 0
BBX 8 7 1 0
BITMAP
98
9E
D9
99
D7
D5
D7
ENDCHAR
STARTCHAR 33AB
ENCODING 10087
SWIDTH 1000 0
DWIDTH 10 0
BBX 9 8 0 -1
BITMAP
1E00
9A80
5B80
5E80
5980
5980
7980
0800
ENDCHAR
STARTCHAR 33AC
ENCODING 10088
SWIDTH 1000 0
DWIDTH 10 0
BBX 8 9 1 -1
BITMAP
40
BC
97
95
F5
BB
B3
B3
40
ENDCHAR
STARTCHAR 33DD
ENCODING 10089
SWIDTH 1000 0
DWIDTH 10 0
BBX 8 8 1 0
BITMAP
08
B8
FE
F9
F9
E9
E9
EE
ENDCHAR
STARTCHAR 33D0
ENCODING 10090
SWIDTH 1000 0
DWIDTH 10 0
BBX 7 8 1 0
BITMAP
80
80
BE
AA
AA
AA
AA
AA
ENDCHAR
STARTCHAR 33D3
ENCODING 10091
SWIDTH 1000 0
DWIDTH 10 0
BBX 6 8 2 -1
BITMAP
80
84
A8
98
90
98
A4
80
ENDCHAR
STARTCHAR 33C3
ENCODING 10092
SWIDTH 1000 0
DWIDTH 10 0
BBX 8 9 1 -1
BITMAP
E0
90
90
AF
F9
99
99
E7
01
ENDCHAR
STARTCHAR 33C9
ENCODING 10093
SWIDTH 1000 0
DWIDTH 10 0
BBX 8 10 1 -2
BITMAP
60
90
91
89
BA
96
96
74
00
04
ENDCHAR
STARTCHAR 33DC
ENCODING 10094
SWIDTH 1000 0
DWIDTH 10 0
BBX 8 8 1 0
BITMAP
60
90
81
89
66
96
92
72
ENDCHAR
STARTCHAR 33C6
ENCODING 10095
SWIDTH 1000 0
DWIDTH 10 0
BBX 8 8 1 -1
BITMAP
90
A0
B0
50
5F
5E
9D
87
ENDCHAR
STARTCHAR 00C6
ENCODING 10273
SWIDTH 1000 0
DWIDTH 10 0
BBX 8 6 1 0
BITMAP
3E
50
5E
70
90
1F
ENDCHAR
STARTCHAR 00D0
ENCODING 10274
SWIDTH 1000 0
DWIDTH 10 0
BBX 6 6 2 0
BITMAP
78
44
E4
44
44
78
ENDCHAR
STARTCHAR 00AA
ENCODING 10275
SWIDTH 1000 0
DWIDTH 10 0
BBX 5 6 3 0
BITMAP
F0
10
F0
90
78
F0
ENDCHAR
STARTCHAR 0126
ENCODING 10276
SWIDTH 1000 0
DWIDTH 10 0
BBX 7 7 1 0
BITMAP
44
FE
44
7C
44
44
44
ENDCHAR
STARTCHAR 0132
ENCODING 10278
SWIDTH 1000 0
DWIDTH 10 0
BBX 5 6 2 0
BITMAP
88
88
88
88
A8
B8
ENDCHAR
STARTCHAR 013F
ENCODING 10280
SWIDTH 1000 0
DWIDTH 10 0
BBX 4 7 3 0
BITMAP
80
80
80
A0
80
80
F0
ENDCHAR
STARTCHAR 0141
ENCODING 10281
SWIDTH 1000 0
DWIDTH 10 0
BBX 5 6 2 0
BITMAP
40
60
40
C0
40
78
ENDCHAR
STARTCHAR 00D8
ENCODING 10282
SWIDTH 1000 0
DWIDTH 10 0
BBX 6 7 2 0
BITMAP
34
C8
98
A4
C8
C8
F0
ENDCHAR
STARTCHAR 0152
ENCODING 10283
SWIDTH 1000 0
DWIDTH 10 0
BBX 8 8 1 -1
BITMAP
6E
90
90
9E
90
90
5F
20
ENDCHAR
STARTCHAR 00BA
ENCODING 10284
SWIDTH 1000 0
DWIDTH 10 0
BBX 4 6 3 0
BITMAP
F0
90
90
90
60
F0
ENDCHAR
STARTCHAR 00DE
ENCODING 10285
SWIDTH 1000 0
DWIDTH 10 0
BBX 4 6 3 1
BITMAP
80
80
F0
90
90
E0
ENDCHAR
STARTCHAR 0166
ENCODING 10286
SWIDTH 1000 0
DWIDTH 10 0
BBX 4 6 2 0
BITMAP
70
20
20
F0
20
20
ENDCHAR
STARTCHAR 014A
ENCODING 10287
SWIDTH 1000 0
DWIDTH 10 0
BBX 4 8 3 -1
BITMAP
60
90
90
90
90
90
90
20
ENDCHAR
STARTCHAR 3260
ENCODING 10289
SWIDTH 1000 0
DWIDTH 10 0
BBX 8 9 1 -2
BITMAP
3C
42
FD
85
85
85
C1
42
3C
ENDCHAR
STARTCHAR 3261
ENCODING 10290
SWIDTH 1000 0
DWIDTH 10 0
BBX 8 9 1 -2
BITMAP
3C
42
C1
C1
C1
FD
C1
42
3C
ENDCHAR
STARTCHAR 3262
ENCODING 10291
SWIDTH 1000 0
DWIDTH 10 0
BBX 8 9 1 -2
BITMAP
3C
42
FD
C1
C1
FD
C1
42
3C
ENDCHAR
STARTCHAR 3263
ENCODING 10292
SWIDTH 1000 0
DWIDTH 10 0
BBX 8 9 1 -2
BITMAP
3C
42
FD
BD
A1
BF
C1
42
3C
ENDCHAR
STARTCHAR 3264
ENCODING 10293
SWIDTH 1000 0
DWIDTH 10 0
BBX 8 9 1 -2
BITMAP
3C
42
FD
C5
C5
FD
C1
42
3C
ENDCHAR
STARTCHAR 3265
ENCODING 10294
SWIDTH 1000 0
DWIDTH 10 0
BBX 8 9 1 -2
BITMAP
3C
42
C5
FD
C5
FD
C1
42
3C
ENDCHAR
STARTCHAR 3266
ENCODING 10295
SWIDTH 1000 0
DWIDTH 10 0
BBX 8 9 1 -2
BITMAP
3C
42
91
91
A9
C5
C1
42
3C
ENDCHAR
STARTCHAR 3267
ENCODING 10296
SWIDTH 1000 0
DWIDTH 10 0
BBX 8 9 1 -2
BITMAP
3C
7A
CD
C5
C5
CD
F9
42
3C
ENDCHAR
STARTCHAR 3268
ENCODING 10297
SWIDTH 1000 0
DWIDTH 10 0
BBX 8 9 1 -2
BITMAP
3C
42
FF
91
99
A5
C1
42
3C
ENDCHAR
STARTCHAR 3269
ENCODING 10298
SWIDTH 1000 0
DWIDTH 10 0
BBX 8 9 1 -2
BITMAP
3C
7A
FF
91
A9
C7
C1
42
3C
ENDCHAR
STARTCHAR 326A
ENCODING 10299
SWIDTH 1000 0
DWIDTH 10 0
BBX 8 9 1 -2
BITMAP
3C
42
FD
85
B5
85
C1
42
3C
ENDCHAR
STARTCHAR 326B
ENCODING 10300
SWIDTH 1000 0
DWIDTH 10 0
BBX 8 9 1 -2
BITMAP
3C
42
FD
FD
C1
FD
C1
42
3C
ENDCHAR
STARTCHAR 326C
ENCODING 10301
SWIDTH 1000 0
DWIDTH 10 0
BBX 8 9 1 -2
BITMAP
3C
42
BD
A1
A9
FF
C1
42
3C
ENDCHAR
STARTCHAR 326D
ENCODING 10302
SWIDTH 1000 0
DWIDTH 10 0
BBX 8 9 1 -2
BITMAP
3C
5A
FD
99
A5
A5
D9
42
3C
ENDCHAR
STARTCHAR 326E
ENCODING 10303
SWIDTH 1000 0
DWIDTH 10 0
BBX 8 9 1 -2
BITMAP
3C
46
F5
95
97
A5
C5
46
3C
ENDCHAR
STARTCHAR 326F
ENCODING 10304
SWIDTH 1000 0
DWIDTH 10 0
BBX 8 9 1 -2
BITMAP
3C
46
C5
C5
C7
FD
C5
46
3C
ENDCHAR
STARTCHAR 3270
ENCODING 10305
SWIDTH 1000 0
DWIDTH 10 0
BBX 8 9 1 -2
BITMAP
3C
46
F5
C5
C7
C5
F5
46
3C
ENDCHAR
STARTCHAR 3271
ENCODING 10306
SWIDTH 1000 0
DWIDTH 10 0
BBX 8 9 1 -2
BITMAP
3C
46
F5
F5
C7
F5
C5
46
3C
ENDCHAR
STARTCHAR 3272
ENCODING 10307
SWIDTH 1000 0
DWIDTH 10 0
BBX 8 9 1 -2
BITMAP
3C
46
F5
D5
D7
F5
C5
46
3C
ENDCHAR
STARTCHAR 3273
ENCODING 10308
SWIDTH 1000 0
DWIDTH 10 0
BBX 8 9 1 -2
BITMAP
3C
46
D5
F5
D7
F5
C5
46
3C
ENDCHAR
STARTCHAR 3274
ENCODING 10309
SWIDTH 1000 0
DWIDTH 10 0
BBX 8 9 1 -2
BITMAP
3C
46
A5
A5
D7
8D
C5
46
3C
ENDCHAR
STARTCHAR 3275
ENCODING 10310
SWIDTH 1000 0
DWIDTH 10 0
BBX 8 9 1 -2
BITMAP
3C
46
F5
D5
D7
F5
C5
46
3C
ENDCHAR
STARTCHAR 3276
ENCODING 10311
SWIDTH 1000 0
DWIDTH 10 0
BBX 8 9 1 -2
BITMAP
3C
46
F5
A5
A7
D5
C5
46
3C
ENDCHAR
STARTCHAR 3277
ENCODING 10312
SWIDTH 1000 0
DWIDTH 10 0
BBX 8 9 1 -2
BITMAP
3C
76
F5
A5
A7
D5
C5
46
3C
ENDCHAR
STARTCHAR 3278
ENCODING 10313
SWIDTH 1000 0
DWIDTH 10 0
BBX 8 9 1 -2
BITMAP
3C
46
F5
95
F7
95
E5
46
3C
ENDCHAR
STARTCHAR 3279
ENCODING 10314
SWIDTH 1000 0
DWIDTH 10 0
BBX 8 9 1 -2
BITMAP
3C
46
F5
F5
C7
F5
C5
46
3C
ENDCHAR
STARTCHAR 327A
ENCODING 10315
SWIDTH 1000 0
DWIDTH 10 0
BBX 8 9 1 -2
BITMAP
3C
46
F5
85
B7
BD
C5
46
3C
ENDCHAR
STARTCHAR 327B
ENCODING 10316
SWIDTH 1000 0
DWIDTH 10 0
BBX 8 9 1 -2
BITMAP
3C
76
FD
85
B7
D5
F5
46
3C
ENDCHAR
STARTCHAR 24D0
ENCODING 10317
SWIDTH 1000 0
DWIDTH 10 0
BBX 8 9 1 -2
BITMAP
3C
42
99
A5
BD
A5
FF
42
3C
ENDCHAR
STARTCHAR 24D1
ENCODING 10318
SWIDTH 1000 0
DWIDTH 10 0
BBX 8 9 1 -2
BITMAP
3C
62
B9
A5
A5
A5
F9
42
3C
ENDCHAR
STARTCHAR 24D2
ENCODING 10319
SWIDTH 1000 0
DWIDTH 10 0
BBX 8 9 1 -2
BITMAP
3C
42
99
A5
A5
99
C1
42
3C
ENDCHAR
STARTCHAR 24D3
ENCODING 10320
SWIDTH 1000 0
DWIDTH 10 0
BBX 8 9 1 -2
BITMAP
3C
46
9D
A5
A5
A5
DD
42
3C
ENDCHAR
STARTCHAR 24D4
ENCODING 10321
SWIDTH 1000 0
DWIDTH 10 0
BBX 8 9 1 -2
BITMAP
3C
42
99
A5
BD
A5
D9
42
3C
ENDCHAR
STARTCHAR 24D5
ENCODING 10322
SWIDTH 1000 0
DWIDTH 10 0
BBX 8 9 1 -2
BITMAP
3C
52
B9
91
91
91
D1
42
3C
ENDCHAR
STARTCHAR 24D6
ENCODING 10323
SWIDTH 1000 0
DWIDTH 10 0
BBX 8 9 1 -2
BITMAP
3C
5E
A5
A5
A5
BD
D9
42
3C
ENDCHAR
STARTCHAR 24D7
ENCODING 10324
SWIDTH 1000 0
DWIDTH 10 0
BBX 8 9 1 -2
BITMAP
3C
62
A9
B5
A5
A5
E5
42
3C
ENDCHAR
STARTCHAR 24D8
ENCODING 10325
SWIDTH 1000 0
DWIDTH 10 0
BBX 8 9 1 -2
BITMAP
3C
52
81
91
91
91
D1
42
3C
ENDCHAR
STARTCHAR 24D9
ENCODING 10326
SWIDTH 1000 0
DWIDTH 10 0
BBX 8 9 1 -2
BITMAP
3C
42
91
91
91
91
D1
62
3C
ENDCHAR
STARTCHAR 24DA
ENCODING 10327
SWIDTH 1000 0
DWIDTH 10 0
BBX 8 9 1 -2
BITMAP
3C
62
A1
B1
B1
A9
E9
42
3C
ENDCHAR
STARTCHAR 24DB
ENCODING 10328
SWIDTH 1000 0
DWIDTH 10 0
BBX 8 9 1 -2
BITMAP
3C
52
91
91
91
91
D1
42
3C
ENDCHAR
STARTCHAR 24DC
ENCODING 10329
SWIDTH 1000 0
DWIDTH 10 0
BBX 8 9 1 -2
BITMAP
3C
42
FF
D3
D3
D3
C1
42
3C
ENDCHAR
STARTCHAR 24DD
ENCODING 10330
SWIDTH 1000 0
DWIDTH 10 0
BBX 8 9 1 -2
BITMAP
3C
42
BD
A5
A5
A5
C1
42
3C
ENDCHAR
STARTCHAR 24DE
ENCODING 10331
SWIDTH 1000 0
DWIDTH 10 0
BBX 8 9 1 -2
BITMAP
3C
42
99
A5
A5
99
C1
42
3C
ENDCHAR
STARTCHAR 24DF
ENCODING 10332
SWIDTH 1000 0
DWIDTH 10 0
BBX 8 9 1 -2
BITMAP
3C
7A
A5
A5
A5
B9
E1
42
3C
ENDCHAR
STARTCHAR 24E0
ENCODING 10333
SWIDTH 1000 0
DWIDTH 10 0
BBX 8 9 1 -2
BITMAP
3C
5E
A5
A5
A5
9D
C5
46
3C
ENDCHAR
STARTCHAR 24E1
ENCODING 10334
SWIDTH 1000 0
DWIDTH 10 0
BBX 8 9 1 -2
BITMAP
3C
42
89
91
91
91
C1
42
3C
ENDCHAR
STARTCHAR 24E2
ENCODING 10335
SWIDTH 1000 0
DWIDTH 10 0
BBX 8 9 1 -2
BITMAP
3C
5A
A1
99
A9
99
C1
42
3C
ENDCHAR
STARTCHAR 24E3
ENCODING 10336
SWIDTH 1000 0
DWIDTH 10 0
BBX 8 9 1 -2
BITMAP
3C
52
B9
91
91
91
C9
42
3C
ENDCHAR
STARTCHAR 24E4
ENCODING 10337
SWIDTH 1000 0
DWIDTH 10 0
BBX 8 9 1 -2
BITMAP
3C
42
A5
A5
A5
A5
D9
42
3C
ENDCHAR
STARTCHAR 24E5
ENCODING 10338
SWIDTH 1000 0
DWIDTH 10 0
BBX 8 9 1 -2
BITMAP
3C
42
A1
A9
99
91
C1
42
3C
ENDCHAR
STARTCHAR 24E6
ENCODING 10339
SWIDTH 1000 0
DWIDTH 10 0
BBX 8 9 1 -2
BITMAP
3C
42
D1
DD
ED
A5
E1
42
3C
ENDCHAR
STARTCHAR 24E7
ENCODING 10340
SWIDTH 1000 0
DWIDTH 10 0
BBX 8 9 1 -2
BITMAP
3C
42
89
91
91
89
C1
42
3C
ENDCHAR
STARTCHAR 24E8
ENCODING 10341
SWIDTH 1000 0
DWIDTH 10 0
BBX 8 9 1 -2
BITMAP
3C
62
A9
A9
99
91
D1
42
3C
ENDCHAR
STARTCHAR 24E9
ENCODING 10342
SWIDTH 1000 0
DWIDTH 10 0
BBX 8 9 1 -2
BITMAP
3C
42
B9
91
A1
BD
C1
42
3C
ENDCHAR
STARTCHAR 2460
ENCODING 10343
SWIDTH 1000 0
DWIDTH 10 0
BBX 8 9 1 -2
BITMAP
3C
4A
B9
89
89
89
C9
42
3C
ENDCHAR
STARTCHAR 2461
ENCODING 10344
SWIDTH 1000 0
DWIDTH 10 0
BBX 8 9 1 -2
BITMAP
3C
5E
A5
A5
99
A1
FD
42
3C
ENDCHAR
STARTCHAR 2462
ENCODING 10345
SWIDTH 1000 0
DWIDTH 10 0
BBX 8 9 1 -2
BITMAP
3C
5E
A5
B9
A5
A5
D9
42
3C
ENDCHAR
STARTCHAR 2463
ENCODING 10346
SWIDTH 1000 0
DWIDTH 10 0
BBX 8 9 1 -2
BITMAP
3C
4A
99
A9
A9
BD
C9
42
3C
ENDCHAR
STARTCHAR 2464
ENCODING 10347
SWIDTH 1000 0
DWIDTH 10 0
BBX 8 9 1 -2
BITMAP
3C
5E
A1
B9
A5
A5
D9
42
3C
ENDCHAR
STARTCHAR 2465
ENCODING 10348
SWIDTH 1000 0
DWIDTH 10 0
BBX 8 9 1 -2
BITMAP
3C
5A
A5
B9
A5
A5
D9
42
3C
ENDCHAR
STARTCHAR 2466
ENCODING 10349
SWIDTH 1000 0
DWIDTH 10 0
BBX 8 9 1 -2
BITMAP
3C
7E
89
89
91
91
D1
42
3C
ENDCHAR
STARTCHAR 2467
ENCODING 10350
SWIDTH 1000 0
DWIDTH 10 0
BBX 8 9 1 -2
BITMAP
3C
7E
A5
BD
A5
A5
F9
42
3C
ENDCHAR
STARTCHAR 2468
ENCODING 10351
SWIDTH 1000 0
DWIDTH 10 0
BBX 8 9 1 -2
BITMAP
3C
7A
A5
A5
9D
A5
D9
42
3C
ENDCHAR
STARTCHAR 2469
ENCODING 10352
SWIDTH 1000 0
DWIDTH 10 0
BBX 8 9 1 -2
BITMAP
3C
66
EB
AB
AB
AB
C5
42
3C
ENDCHAR
STARTCHAR 246A
ENCODING 10353
SWIDTH 1000 0
DWIDTH 10 0
BBX 8 9 1 -2
BITMAP
3C
66
ED
A5
A5
A5
C1
42
3C
ENDCHAR
STARTCHAR 246B
ENCODING 10354
SWIDTH 1000 0
DWIDTH 10 0
BBX 8 9 1 -2
BITMAP
3C
62
EF
A3
A5
A9
CF
42
3C
ENDCHAR
STARTCHAR 246C
ENCODING 10355
SWIDTH 1000 0
DWIDTH 10 0
BBX 8 9 1 -2
BITMAP
3C
6E
E3
A5
A3
A3
CD
42
3C
ENDCHAR
STARTCHAR 246D
ENCODING 10356
SWIDTH 1000 0
DWIDTH 10 0
BBX 8 9 1 -2
BITMAP
3C
66
ED
B5
BF
A5
C1
42
3C
ENDCHAR
STARTCHAR 246E
ENCODING 10357
SWIDTH 1000 0
DWIDTH 10 0
BBX 8 9 1 -2
BITMAP
3C
6E
E9
AD
A3
AB
C5
42
3C
ENDCHAR
STARTCHAR 00BD
ENCODING 10358
SWIDTH 1000 0
DWIDTH 10 0
BBX 7 7 1 0
BITMAP
40
C8
50
5E
62
2C
0E
ENDCHAR
STARTCHAR 2153
ENCODING 10359
SWIDTH 1000 0
DWIDTH 10 0
BBX 7 7 1 0
BITMAP
40
C8
50
52
62
22
06
ENDCHAR
STARTCHAR 2154
ENCODING 10360
SWIDTH 1000 0
DWIDTH 10 0
BBX 7 7 1 0
BITMAP
44
A8
48
92
F2
22
26
ENDCHAR
STARTCHAR 00BC
ENCODING 10361
SWIDTH 1000 0
DWIDTH 10 0
BBX 8 7 1 0
BITMAP
40
C8
52
56
6A
2F
02
ENDCHAR
STARTCHAR 00BE
ENCODING 10362
SWIDTH 1000 0
DWIDTH 10 0
BBX 7 7 2 0
BITMAP
C8
50
54
6C
B4
5E
44
ENDCHAR
STARTCHAR 215B
ENCODING 10363
SWIDTH 1000 0
DWIDTH 10 0
BBX 7 7 1 0
BITMAP
40
C8
50
56
66
2A
06
ENDCHAR
STARTCHAR 215C
ENCODING 10364
SWIDTH 1000 0
DWIDTH 10 0
BBX 7 7 1 0
BITMAP
64
A8
68
B6
56
2A
26
ENDCHAR
STARTCHAR 215D
ENCODING 10365
SWIDTH 1000 0
DWIDTH 10 0
BBX 7 7 1 0
BITMAP
74
48
38
96
76
2A
26
ENDCHAR
STARTCHAR 215E
ENCODING 10366
SWIDTH 1000 0
DWIDTH 10 0
BBX 6 7 2 0
BITMAP
E0
50
A0
AC
CC
54
0C
ENDCHAR
STARTCHAR 00E6
ENCODING 10529
SWIDTH 1000 0
DWIDTH 10 0
BBX 7 6 1 -1
BITMAP
7E
12
7E
90
6A
04
ENDCHAR
STARTCHAR 0111
ENCODING 10530
SWIDTH 1000 0
DWIDTH 10 0
BBX 6 8 2 -1
BITMAP
08
3C
78
88
88
88
58
20
ENDCHAR
STARTCHAR 00F0
ENCODING 10531
SWIDTH 1000 0
DWIDTH 10 0
BBX 4 7 3 0
BITMAP
A0
40
20
70
90
90
60
ENDCHAR
STARTCHAR 0127
ENCODING 10532
SWIDTH 1000 0
DWIDTH 10 0
BBX 5 7 2 0
BITMAP
40
F0
40
78
48
48
48
ENDCHAR
STARTCHAR 0131
ENCODING 10533
SWIDTH 1000 0
DWIDTH 10 0
BBX 1 5 4 0
BITMAP
80
80
80
80
80
ENDCHAR
STARTCHAR 0133
ENCODING 10534
SWIDTH 1000 0
DWIDTH 10 0
BBX 4 8 3 -1
BITMAP
90
00
90
90
90
90
90
10
ENDCHAR
STARTCHAR 0138
ENCODING 10535
SWIDTH 1000 0
DWIDTH 10 0
BBX 4 5 3 0
BITMAP
90
A0
E0
A0
90
ENDCHAR
STARTCHAR 0140
ENCODING 10536
SWIDTH 1000 0
DWIDTH 10 0
BBX 2 7 4 0
BITMAP
80
80
80
C0
80
80
80
ENDCHAR
STARTCHAR 0142
ENCODING 10537
SWIDTH 1000 0
DWIDTH 10 0
BBX 3 7 3 0
BITMAP
40
40
60
40
C0
40
40
ENDCHAR
STARTCHAR 00F8
ENCODING 10538
SWIDTH 1000 0
DWIDTH 10 0
BBX 5 6 3 -1
BITMAP
78
B8
C8
88
90
60
ENDCHAR
STARTCHAR 0153
ENCODING 10539
SWIDTH 1000 0
DWIDTH 10 0
BBX 7 6 1 -1
BITMAP
6E
92
8E
90
6A
04
ENDCHAR
STARTCHAR 00DF
ENCODING 10540
SWIDTH 1000 0
DWIDTH 10 0
BBX 4 7 3 0
BITMAP
70
90
90
B0
90
90
B0
ENDCHAR
STARTCHAR 00FE
ENCODING 10541
SWIDTH 1000 0
DWIDTH 10 0
BBX 4 8 3 -1
BITMAP
80
80
E0
90
90
90
E0
80
ENDCHAR
STARTCHAR 0167
ENCODING 10542
SWIDTH 1000 0
DWIDTH 10 0
BBX 2 7 4 0
BITMAP
80
80
80
80
80
80
C0
ENDCHAR
STARTCHAR 014B
ENCODING 10543
SWIDTH 1000 0
DWIDTH 10 0
BBX 4 6 3 -1
BITMAP
F0
90
90
90
90
10
ENDCHAR
STARTCHAR 0149
ENCODING 10544
SWIDTH 1000 0
DWIDTH 10 0
BBX 6 5 2 0
BITMAP
9C
24
24
24
24
ENDCHAR
STARTCHAR 3200
ENCODING 10545
SWIDTH 1000 0
DWIDTH 10 0
BBX 8 7 1 -1
BITMAP
42
FD
85
85
85
42
40
ENDCHAR
STARTCHAR 3201
ENCODING 10546
SWIDTH 1000 0
DWIDTH 10 0
BBX 8 7 1 -1
BITMAP
42
C1
C1
C1
FD
42
40
ENDCHAR
STARTCHAR 3202
ENCODING 10547
SWIDTH 1000 0
DWIDTH 10 0
BBX 8 7 1 -1
BITMAP
82
FD
C1
C1
FD
42
40
ENDCHAR
STARTCHAR 3203
ENCODING 10548
SWIDTH 1000 0
DWIDTH 10 0
BBX 8 8 1 -1
BITMAP
02
42
FD
85
BD
BF
42
40
ENDCHAR
STARTCHAR 3204
ENCODING 10549
SWIDTH 1000 0
DWIDTH 10 0
BBX 8 7 1 -1
BITMAP
42
FD
C5
C5
FD
42
40
ENDCHAR
STARTCHAR 3205
ENCODING 10550
SWIDTH 1000 0
DWIDTH 10 0
BBX 8 7 1 -1
BITMAP
46
C5
FD
C5
FD
42
40
ENDCHAR
STARTCHAR 3206
ENCODING 10551
SWIDTH 1000 0
DWIDTH 10 0
BBX 8 7 1 -1
BITMAP
42
91
91
A9
C5
42
40
ENDCHAR
STARTCHAR 3207
ENCODING 10552
SWIDTH 1000 0
DWIDTH 10 0
BBX 8 7 1 -1
BITMAP
7A
CD
C5
C5
CD
7A
40
ENDCHAR
STARTCHAR 3208
ENCODING 10553
SWIDTH 1000 0
DWIDTH 10 0
BBX 8 7 1 -1
BITMAP
42
FD
91
A9
89
46
40
ENDCHAR
STARTCHAR 3209
ENCODING 10554
SWIDTH 1000 0
DWIDTH 10 0
BBX 8 7 1 -1
BITMAP
7A
FF
91
99
E5
42
40
ENDCHAR
STARTCHAR 320A
ENCODING 10555
SWIDTH 1000 0
DWIDTH 10 0
BBX 8 7 1 -1
BITMAP
42
FD
85
B5
85
42
40
ENDCHAR
STARTCHAR 320B
ENCODING 10556
SWIDTH 1000 0
DWIDTH 10 0
BBX 8 7 1 -1
BITMAP
42
FD
FD
C1
FD
42
40
ENDCHAR
STARTCHAR 320C
ENCODING 10557
SWIDTH 1000 0
DWIDTH 10 0
BBX 8 7 1 -1
BITMAP
42
BD
A1
A9
FD
42
40
ENDCHAR
STARTCHAR 320D
ENCODING 10558
SWIDTH 1000 0
DWIDTH 10 0
BBX 8 7 1 -1
BITMAP
7A
FD
99
A5
A5
5A
40
ENDCHAR
STARTCHAR 320E
ENCODING 10559
SWIDTH 1000 0
DWIDTH 10 0
BBX 8 7 1 -1
BITMAP
46
F5
95
97
A5
46
44
ENDCHAR
STARTCHAR 320F
ENCODING 10560
SWIDTH 1000 0
DWIDTH 10 0
BBX 8 7 1 -1
BITMAP
46
C5
C5
C7
FD
46
44
ENDCHAR
STARTCHAR 3210
ENCODING 10561
SWIDTH 1000 0
DWIDTH 10 0
BBX 8 7 1 -1
BITMAP
46
F5
C5
C7
CD
76
44
ENDCHAR
STARTCHAR 3211
ENCODING 10562
SWIDTH 1000 0
DWIDTH 10 0
BBX 8 7 1 -1
BITMAP
46
F5
F5
C7
F5
86
84
ENDCHAR
STARTCHAR 3212
ENCODING 10563
SWIDTH 1000 0
DWIDTH 10 0
BBX 8 7 1 -1
BITMAP
46
F5
D5
D7
F5
46
44
ENDCHAR
STARTCHAR 3213
ENCODING 10564
SWIDTH 1000 0
DWIDTH 10 0
BBX 8 7 1 -1
BITMAP
46
D5
F5
D7
F5
46
44
ENDCHAR
STARTCHAR 3214
ENCODING 10565
SWIDTH 1000 0
DWIDTH 10 0
BBX 8 7 1 -1
BITMAP
46
A5
A5
E7
95
46
44
ENDCHAR
STARTCHAR 3215
ENCODING 10566
SWIDTH 1000 0
DWIDTH 10 0
BBX 8 7 1 -1
BITMAP
46
F5
D5
D7
F5
46
44
ENDCHAR
STARTCHAR 3216
ENCODING 10567
SWIDTH 1000 0
DWIDTH 10 0
BBX 8 7 1 -1
BITMAP
46
F5
A5
A7
D5
46
44
ENDCHAR
STARTCHAR 3217
ENCODING 10568
SWIDTH 1000 0
DWIDTH 10 0
BBX 8 7 1 -1
BITMAP
76
85
FD
A7
B5
4E
44
ENDCHAR
STARTCHAR 3218
ENCODING 10569
SWIDTH 1000 0
DWIDTH 10 0
BBX 8 7 1 -1
BITMAP
46
F5
95
F7
A5
46
44
ENDCHAR
STARTCHAR 3219
ENCODING 10570
SWIDTH 1000 0
DWIDTH 10 0
BBX 8 7 1 -1
BITMAP
46
F5
F5
C7
F5
46
44
ENDCHAR
STARTCHAR 321A
ENCODING 10571
SWIDTH 1000 0
DWIDTH 10 0
BBX 8 7 1 -1
BITMAP
46
F5
85
B7
BD
46
44
ENDCHAR
STARTCHAR 321B
ENCODING 10572
SWIDTH 1000 0
DWIDTH 10 0
BBX 8 7 1 -1
BITMAP
76
FD
85
B7
D5
76
44
ENDCHAR
STARTCHAR 249C
ENCODING 10573
SWIDTH 1000 0
DWIDTH 10 0
BBX 8 7 1 -1
BITMAP
42
99
A5
BD
A5
7E
40
ENDCHAR
STARTCHAR 249D
ENCODING 10574
SWIDTH 1000 0
DWIDTH 10 0
BBX 8 8 1 -1
BITMAP
20
62
B9
A5
A5
A5
7A
40
ENDCHAR
STARTCHAR 249E
ENCODING 10575
SWIDTH 1000 0
DWIDTH 10 0
BBX 8 7 1 -1
BITMAP
42
99
A5
A5
99
42
40
ENDCHAR
STARTCHAR 249F
ENCODING 10576
SWIDTH 1000 0
DWIDTH 10 0
BBX 8 8 1 -1
BITMAP
04
46
9D
A5
A5
A5
5E
40
ENDCHAR
STARTCHAR 24A0
ENCODING 10577
SWIDTH 1000 0
DWIDTH 10 0
BBX 8 7 1 -1
BITMAP
42
99
A5
BD
A5
5A
40
ENDCHAR
STARTCHAR 24A1
ENCODING 10578
SWIDTH 1000 0
DWIDTH 10 0
BBX 8 8 1 -1
BITMAP
08
52
B9
91
91
91
52
40
ENDCHAR
STARTCHAR 24A2
ENCODING 10579
SWIDTH 1000 0
DWIDTH 10 0
BBX 8 7 1 -1
BITMAP
5E
A5
A5
A5
BD
5A
40
ENDCHAR
STARTCHAR 24A3
ENCODING 10580
SWIDTH 1000 0
DWIDTH 10 0
BBX 8 7 1 -1
BITMAP
62
A9
B5
A5
A5
66
40
ENDCHAR
STARTCHAR 24A4
ENCODING 10581
SWIDTH 1000 0
DWIDTH 10 0
BBX 8 7 1 -1
BITMAP
52
81
91
91
91
52
40
ENDCHAR
STARTCHAR 24A5
ENCODING 10582
SWIDTH 1000 0
DWIDTH 10 0
BBX 8 7 1 -1
BITMAP
42
91
91
91
91
52
30
ENDCHAR
STARTCHAR 24A6
ENCODING 10583
SWIDTH 1000 0
DWIDTH 10 0
BBX 8 7 1 -1
BITMAP
62
A1
A9
B1
A9
6A
40
ENDCHAR
STARTCHAR 24A7
ENCODING 10584
SWIDTH 1000 0
DWIDTH 10 0
BBX 8 7 1 -1
BITMAP
52
91
91
91
91
52
40
ENDCHAR
STARTCHAR 24A8
ENCODING 10585
SWIDTH 1000 0
DWIDTH 10 0
BBX 8 7 1 -1
BITMAP
42
FF
D3
D3
D3
42
40
ENDCHAR
STARTCHAR 24A9
ENCODING 10586
SWIDTH 1000 0
DWIDTH 10 0
BBX 8 7 1 -1
BITMAP
42
BD
A5
A5
A5
42
40
ENDCHAR
STARTCHAR 24AA
ENCODING 10587
SWIDTH 1000 0
DWIDTH 10 0
BBX 8 7 1 -1
BITMAP
42
99
A5
A5
99
42
40
ENDCHAR
STARTCHAR 24AB
ENCODING 10588
SWIDTH 1000 0
DWIDTH 10 0
BBX 8 7 1 -1
BITMAP
7A
A5
A5
A5
B9
62
40
ENDCHAR
STARTCHAR 24AC
ENCODING 10589
SWIDTH 1000 0
DWIDTH 10 0
BBX 8 7 1 -1
BITMAP
5E
A5
A5
A5
9D
46
44
ENDCHAR
STARTCHAR 24AD
ENCODING 10590
SWIDTH 1000 0
DWIDTH 10 0
BBX 8 7 1 -1
BITMAP
42
99
91
91
91
42
40
ENDCHAR
STARTCHAR 24AE
ENCODING 10591
SWIDTH 1000 0
DWIDTH 10 0
BBX 8 7 1 -1
BITMAP
5A
A1
99
A9
99
42
40
ENDCHAR
STARTCHAR 24AF
ENCODING 10592
SWIDTH 1000 0
DWIDTH 10 0
BBX 8 7 1 -1
BITMAP
52
B9
91
91
91
4A
40
ENDCHAR
STARTCHAR 24B0
ENCODING 10593
SWIDTH 1000 0
DWIDTH 10 0
BBX 8 7 1 -1
BITMAP
42
A5
A5
A5
A5
5A
40
ENDCHAR
STARTCHAR 24B1
ENCODING 10594
SWIDTH 1000 0
DWIDTH 10 0
BBX 8 7 1 -1
BITMAP
42
A1
A9
99
91
42
40
ENDCHAR
STARTCHAR 24B2
ENCODING 10595
SWIDTH 1000 0
DWIDTH 10 0
BBX 8 7 1 -1
BITMAP
42
D1
DD
ED
A5
62
40
ENDCHAR
STARTCHAR 24B3
ENCODING 10596
SWIDTH 1000 0
DWIDTH 10 0
BBX 8 7 1 -1
BITMAP
42
89
91
91
89
42
40
ENDCHAR
STARTCHAR 24B4
ENCODING 10597
SWIDTH 1000 0
DWIDTH 10 0
BBX 8 7 1 -1
BITMAP
62
A9
A9
99
91
52
40
ENDCHAR
STARTCHAR 24B5
ENCODING 10598
SWIDTH 1000 0
DWIDTH 10 0
BBX 8 7 1 -1
BITMAP
42
B9
91
A1
BD
42
40
ENDCHAR
STARTCHAR 2474
ENCODING 10599
SWIDTH 1000 0
DWIDTH 10 0
BBX 8 7 1 -1
BITMAP
4A
B9
89
89
89
4A
40
ENDCHAR
STARTCHAR 2475
ENCODING 10600
SWIDTH 1000 0
DWIDTH 10 0
BBX 8 7 1 -1
BITMAP
5E
A5
A5
99
A1
7E
40
ENDCHAR
STARTCHAR 2476
ENCODING 10601
SWIDTH 1000 0
DWIDTH 10 0
BBX 8 7 1 -1
BITMAP
5E
A5
BD
A5
A5
5A
40
ENDCHAR
STARTCHAR 2477
ENCODING 10602
SWIDTH 1000 0
DWIDTH 10 0
BBX 8 7 1 -1
BITMAP
4A
99
A9
A9
BD
4A
40
ENDCHAR
STARTCHAR 2478
ENCODING 10603
SWIDTH 1000 0
DWIDTH 10 0
BBX 8 7 1 -1
BITMAP
5E
A1
B9
A5
A5
5A
40
ENDCHAR
STARTCHAR 2479
ENCODING 10604
SWIDTH 1000 0
DWIDTH 10 0
BBX 8 7 1 -1
BITMAP
5A
A5
BD
A5
A5
5A
40
ENDCHAR
STARTCHAR 247A
ENCODING 10605
SWIDTH 1000 0
DWIDTH 10 0
BBX 8 7 1 -1
BITMAP
7E
89
89
91
91
52
40
ENDCHAR
STARTCHAR 247B
ENCODING 10606
SWIDTH 1000 0
DWIDTH 10 0
BBX 8 7 1 -1
BITMAP
7E
A5
BD
A5
A5
7A
40
ENDCHAR
STARTCHAR 247C
ENCODING 10607
SWIDTH 1000 0
DWIDTH 10 0
BBX 8 7 1 -1
BITMAP
5A
A5
A5
9D
A5
5A
40
ENDCHAR
STARTCHAR 247D
ENCODING 10608
SWIDTH 1000 0
DWIDTH 10 0
BBX 8 7 1 -1
BITMAP
6E
EB
AB
AB
AB
6A
24
ENDCHAR
STARTCHAR 247E
ENCODING 10609
SWIDTH 1000 0
DWIDTH 10 0
BBX 8 7 1 -1
BITMAP
66
ED
A5
A5
A5
66
24
ENDCHAR
STARTCHAR 247F
ENCODING 10610
SWIDTH 1000 0
DWIDTH 10 0
BBX 8 7 1 -1
BITMAP
7E
F5
A5
A9
B1
72
3C
ENDCHAR
STARTCHAR 2480
ENCODING 10611
SWIDTH 1000 0
DWIDTH 10 0
BBX 8 7 1 -1
BITMAP
7E
E5
AD
A5
AB
6A
24
ENDCHAR
STARTCHAR 2481
ENCODING 10612
SWIDTH 1000 0
DWIDTH 10 0
BBX 8 7 1 -1
BITMAP
6E
ED
B5
B5
BF
66
24
ENDCHAR
STARTCHAR 2482
ENCODING 10613
SWIDTH 1000 0
DWIDTH 10 0
BBX 8 7 1 -1
BITMAP
6E
E9
AD
A3
A3
6A
26
ENDCHAR
STARTCHAR 00B9
ENCODING 10614
SWIDTH 1000 0
DWIDTH 10 0
BBX 2 4 4 3
BITMAP
C0
40
40
40
ENDCHAR
STARTCHAR 00B2
ENCODING 10615
SWIDTH 1000 0
DWIDTH 10 0
BBX 3 5 3 3
BITMAP
60
A0
40
80
E0
ENDCHAR
STARTCHAR 00B3
ENCODING 10616
SWIDTH 1000 0
DWIDTH 10 0
BBX 3 5 3 3
BITMAP
60
20
60
A0
60
ENDCHAR
STARTCHAR 2074
ENCODING 10617
SWIDTH 1000 0
DWIDTH 10 0
BBX 4 4 3 4
BITMAP
20
60
A0
F0
ENDCHAR
STARTCHAR 207F
ENCODING 10618
SWIDTH 1000 0
DWIDTH 10 0
BBX 3 3 3 4
BITMAP
E0
A0
A0
ENDCHAR
STARTCHAR 2081
ENCODING 10619
SWIDTH 1000 0
DWIDTH 10 0
BBX 2 4 4 -1
BITMAP
40
C0
40
40
ENDCHAR
STARTCHAR 2082
ENCODING 10620
SWIDTH 1000 0
DWIDTH 10 0
BBX 3 5 3 -1
BITMAP
40
A0
40
80
E0
ENDCHAR
STARTCHAR 2083
ENCODING 10621
SWIDTH 1000 0
DWIDTH 10 0
BBX 3 4 3 -1
BITMAP
60
A0
A0
60
ENDCHAR
STARTCHAR 2084
ENCODING 10622
SWIDTH 1000 0
DWIDTH 10 0
BBX 4 5 3 -1
BITMAP
20
60
A0
F0
20
ENDCHAR
STARTCHAR 3041
ENCODING 10785
SWIDTH 1000 0
DWIDTH 10 0
BBX 5 6 2 -1
BITMAP
20
40
30
68
A8
68
ENDCHAR
STARTCHAR 3042
ENCODING 10786
SWIDTH 1000 0
DWIDTH 10 0
BBX 7 9 1 -1
BITMAP
20
20
F0
48
38
76
92
A2
4C
ENDCHAR
STARTCHAR 3043
ENCODING 10787
SWIDTH 1000 0
DWIDTH 10 0
BBX 5 4 2 -1
BITMAP
80
88
80
40
ENDCHAR
STARTCHAR 3044
ENCODING 10788
SWIDTH 1000 0
DWIDTH 10 0
BBX 7 6 1 0
BITMAP
84
84
82
82
50
60
ENDCHAR
STARTCHAR 3045
ENCODING 10789
SWIDTH 1000 0
DWIDTH 10 0
BBX 3 5 3 0
BITMAP
40
20
E0
20
20
ENDCHAR
STARTCHAR 3046
ENCODING 10790
SWIDTH 1000 0
DWIDTH 10 0
BBX 5 7 2 0
BITMAP
20
10
30
C8
08
08
10
ENDCHAR
STARTCHAR 3047
ENCODING 10791
SWIDTH 1000 0
DWIDTH 10 0
BBX 4 5 3 -1
BITMAP
20
E0
40
A0
30
ENDCHAR
STARTCHAR 3048
ENCODING 10792
SWIDTH 1000 0
DWIDTH 10 0
BBX 6 8 2 -1
BITMAP
20
10
30
60
20
50
90
0C
ENDCHAR
STARTCHAR 3049
ENCODING 10793
SWIDTH 1000 0
DWIDTH 10 0
BBX 5 5 2 -1
BITMAP
28
20
38
E8
70
ENDCHAR
STARTCHAR 304A
ENCODING 10794
SWIDTH 1000 0
DWIDTH 10 0
BBX 8 8 1 -1
BITMAP
20
22
21
20
3E
E2
A4
68
ENDCHAR
STARTCHAR 304B
ENCODING 10795
SWIDTH 1000 0
DWIDTH 10 0
BBX 8 7 1 0
BITMAP
20
40
7A
4A
49
88
90
ENDCHAR
STARTCHAR 304C
ENCODING 10796
SWIDTH 1000 0
DWIDTH 10 0
BBX 8 7 1 0
BITMAP
21
40
7A
4A
49
88
90
ENDCHAR
STARTCHAR 304D
ENCODING 10797
SWIDTH 1000 0
DWIDTH 10 0
BBX 5 8 2 -1
BITMAP
28
70
18
F0
10
E8
80
70
ENDCHAR
STARTCHAR 304E
ENCODING 10798
SWIDTH 1000 0
DWIDTH 10 0
BBX 7 8 2 -1
BITMAP
2A
70
18
F0
10
E8
80
70
ENDCHAR
STARTCHAR 304F
ENCODING 10799
SWIDTH 1000 0
DWIDTH 10 0
BBX 3 8 3 -1
BITMAP
20
40
40
80
80
40
40
20
ENDCHAR
STARTCHAR 3050
ENCODING 10800
SWIDTH 1000 0
DWIDTH 10 0
BBX 5 8 3 -1
BITMAP
20
48
40
80
80
40
40
20
ENDCHAR
STARTCHAR 3051
ENCODING 10801
SWIDTH 1000 0
DWIDTH 10 0
BBX 6 8 2 -1
BITMAP
08
88
BC
88
88
88
50
10
ENDCHAR
STARTCHAR 3052
ENCODING 10802
SWIDTH 1000 0
DWIDTH 10 0
BBX 6 8 2 -1
BITMAP
48
88
BC
88
88
88
50
10
ENDCHAR
STARTCHAR 3053
ENCODING 10803
SWIDTH 1000 0
DWIDTH 10 0
BBX 4 6 3 0
BITMAP
F0
00
00
00
00
F0
ENDCHAR
STARTCHAR 3054
ENCODING 10804
SWIDTH 1000 0
DWIDTH 10 0
BBX 6 6 3 0
BITMAP
F4
00
00
00
00
F0
ENDCHAR
STARTCHAR 3055
ENCODING 10805
SWIDTH 1000 0
DWIDTH 10 0
BBX 5 9 2 -2
BITMAP
20
28
F0
10
08
F8
80
40
20
ENDCHAR
STARTCHAR 3056
ENCODING 10806
SWIDTH 1000 0
DWIDTH 10 0
BBX 6 8 2 -1
BITMAP
24
28
50
10
F8
80
00
60
ENDCHAR
STARTCHAR 3057
ENCODING 10807
SWIDTH 1000 0
DWIDTH 10 0
BBX 6 8 2 -1
BITMAP
80
80
80
80
80
84
88
70
ENDCHAR
STARTCHAR 3058
ENCODING 10808
SWIDTH 1000 0
DWIDTH 10 0
BBX 6 8 2 -1
BITMAP
80
80
80
80
80
84
88
70
ENDCHAR
STARTCHAR 3059
ENCODING 10809
SWIDTH 1000 0
DWIDTH 10 0
BBX 8 7 1 -1
BITMAP
FF
08
38
48
38
10
10
ENDCHAR
STARTCHAR 305A
ENCODING 10810
SWIDTH 1000 0
DWIDTH 10 0
BBX 8 9 1 -1
BITMAP
02
03
FF
08
38
48
38
10
10
ENDCHAR
STARTCHAR 305B
ENCODING 10811
SWIDTH 1000 0
DWIDTH 10 0
BBX 8 8 1 -1
BITMAP
24
24
FF
24
24
20
20
1E
ENDCHAR
STARTCHAR 305C
ENCODING 10812
SWIDTH 1000 0
DWIDTH 10 0
BBX 8 8 1 -1
BITMAP
25
24
FF
24
24
20
20
1E
ENDCHAR
STARTCHAR 305D
ENCODING 10813
SWIDTH 1000 0
DWIDTH 10 0
BBX 7 8 2 -1
BITMAP
08
50
1E
F0
20
20
10
08
ENDCHAR
STARTCHAR 305E
ENCODING 10814
SWIDTH 1000 0
DWIDTH 10 0
BBX 7 8 2 -1
BITMAP
08
50
1E
F0
20
20
10
08
ENDCHAR
STARTCHAR 305F
ENCODING 10815
SWIDTH 1000 0
DWIDTH 10 0
BBX 7 8 1 -1
BITMAP
20
20
F0
2E
40
40
80
86
ENDCHAR
STARTCHAR 3060
ENCODING 10816
SWIDTH 1000 0
DWIDTH 10 0
BBX 7 8 1 -1
BITMAP
20
22
F0
2E
40
40
80
86
ENDCHAR
STARTCHAR 3061
ENCODING 10817
SWIDTH 1000 0
DWIDTH 10 0
BBX 7 9 1 -1
BITMAP
20
20
F0
20
2C
32
02
02
1C
ENDCHAR
STARTCHAR 3062
ENCODING 10818
SWIDTH 1000 0
DWIDTH 10 0
BBX 8 9 1 -1
BITMAP
20
20
F3
20
2C
32
02
02
1C
ENDCHAR
STARTCHAR 3063
ENCODING 10819
SWIDTH 1000 0
DWIDTH 10 0
BBX 5 5 2 -2
BITMAP
30
C8
08
08
30
ENDCHAR
STARTCHAR 3064
ENCODING 10820
SWIDTH 1000 0
DWIDTH 10 0
BBX 6 6 2 0
BITMAP
10
EC
04
04
04
38
ENDCHAR
STARTCHAR 3065
ENCODING 10821
SWIDTH 1000 0
DWIDTH 10 0
BBX 6 7 3 0
BITMAP
04
F0
08
08
08
10
60
ENDCHAR
STARTCHAR 3066
ENCODING 10822
SWIDTH 1000 0
DWIDTH 10 0
BBX 6 8 2 -1
BITMAP
3C
D0
20
20
20
20
20
18
ENDCHAR
STARTCHAR 3067
ENCODING 10823
SWIDTH 1000 0
DWIDTH 10 0
BBX 7 8 2 -1
BITMAP
3C
D0
22
20
20
20
20
18
ENDCHAR
STARTCHAR 3068
ENCODING 10824
SWIDTH 1000 0
DWIDTH 10 0
BBX 4 8 2 -1
BITMAP
40
40
50
20
C0
80
80
70
ENDCHAR
STARTCHAR 3069
ENCODING 10825
SWIDTH 1000 0
DWIDTH 10 0
BBX 4 8 2 -1
BITMAP
40
40
50
20
C0
80
80
70
ENDCHAR
STARTCHAR 306A
ENCODING 10826
SWIDTH 1000 0
DWIDTH 10 0
BBX 7 7 1 -1
BITMAP
30
22
48
48
88
7C
32
ENDCHAR
STARTCHAR 306B
ENCODING 10827
SWIDTH 1000 0
DWIDTH 10 0
BBX 6 6 2 0
BITMAP
7C
80
80
80
A0
9C
ENDCHAR
STARTCHAR 306C
ENCODING 10828
SWIDTH 1000 0
DWIDTH 10 0
BBX 8 7 1 -1
BITMAP
10
7C
52
B2
A6
4A
05
ENDCHAR
STARTCHAR 306D
ENCODING 10829
SWIDTH 1000 0
DWIDTH 10 0
BBX 7 8 2 -1
BITMAP
40
40
DC
A4
44
DC
EA
90
ENDCHAR
STARTCHAR 306E
ENCODING 10830
SWIDTH 1000 0
DWIDTH 10 0
BBX 8 6 1 0
BITMAP
3C
52
91
91
A2
60
ENDCHAR
STARTCHAR 306F
ENCODING 10831
SWIDTH 1000 0
DWIDTH 10 0
BBX 8 8 1 -1
BITMAP
04
04
9E
84
84
84
FE
19
ENDCHAR
STARTCHAR 3070
ENCODING 10832
SWIDTH 1000 0
DWIDTH 10 0
BBX 8 8 1 -1
BITMAP
07
04
9E
84
84
84
FE
18
ENDCHAR
STARTCHAR 3071
ENCODING 10833
SWIDTH 1000 0
DWIDTH 10 0
BBX 8 9 1 -1
BITMAP
03
07
07
9E
84
84
84
FE
18
ENDCHAR
STARTCHAR 3072
ENCODING 10834
SWIDTH 1000 0
DWIDTH 10 0
BBX 7 8 1 -1
BITMAP
04
E4
46
44
84
88
48
30
ENDCHAR
STARTCHAR 3073
ENCODING 10835
SWIDTH 1000 0
DWIDTH 10 0
BBX 8 8 1 -1
BITMAP
05
E4
46
44
84
88
48
30
ENDCHAR
STARTCHAR 3074
ENCODING 10836
SWIDTH 1000 0
DWIDTH 10 0
BBX 8 8 1 -1
BITMAP
07
E7
46
44
84
88
48
30
ENDCHAR
STARTCHAR 3075
ENCODING 10837
SWIDTH 1000 0
DWIDTH 10 0
BBX 8 6 1 0
BITMAP
08
00
20
10
0A
C9
ENDCHAR
STARTCHAR 3076
ENCODING 10838
SWIDTH 1000 0
DWIDTH 10 0
BBX 8 6 1 0
BITMAP
0A
00
22
10
0A
C9
ENDCHAR
STARTCHAR 3077
ENCODING 10839
SWIDTH 1000 0
DWIDTH 10 0
BBX 8 6 1 0
BITMAP
0F
07
20
10
0A
C9
ENDCHAR
STARTCHAR 3078
ENCODING 10840
SWIDTH 1000 0
DWIDTH 10 0
BBX 8 4 1 1
BITMAP
30
48
84
03
ENDCHAR
STARTCHAR 3079
ENCODING 10841
SWIDTH 1000 0
DWIDTH 10 0
BBX 8 4 1 1
BITMAP
34
48
84
03
ENDCHAR
STARTCHAR 307A
ENCODING 10842
SWIDTH 1000 0
DWIDTH 10 0
BBX 8 5 1 1
BITMAP
06
36
48
84
03
ENDCHAR
STARTCHAR 307B
ENCODING 10843
SWIDTH 1000 0
DWIDTH 10 0
BBX 8 7 1 -1
BITMAP
1E
84
9C
84
84
DA
5D
ENDCHAR
STARTCHAR 307C
ENCODING 10844
SWIDTH 1000 0
DWIDTH 10 0
BBX 7 8 1 -1
BITMAP
3C
0A
88
BC
88
88
B4
3A
ENDCHAR
STARTCHAR 307D
ENCODING 10845
SWIDTH 1000 0
DWIDTH 10 0
BBX 8 8 1 -1
BITMAP
3C
0B
89
BC
88
88
B4
3A
ENDCHAR
STARTCHAR 307E
ENCODING 10846
SWIDTH 1000 0
DWIDTH 10 0
BBX 5 8 2 -1
BITMAP
20
F0
20
F0
20
60
B8
C0
ENDCHAR
STARTCHAR 307F
ENCODING 10847
SWIDTH 1000 0
DWIDTH 10 0
BBX 7 6 1 0
BITMAP
30
10
14
6C
A6
C8
ENDCHAR
STARTCHAR 3080
ENCODING 10848
SWIDTH 1000 0
DWIDTH 10 0
BBX 7 8 1 -1
BITMAP
20
20
22
20
E0
A2
62
34
ENDCHAR
STARTCHAR 3081
ENCODING 10849
SWIDTH 1000 0
DWIDTH 10 0
BBX 7 7 1 -1
BITMAP
90
98
74
A2
A2
E4
08
ENDCHAR
STARTCHAR 3082
ENCODING 10850
SWIDTH 1000 0
DWIDTH 10 0
BBX 5 8 3 -1
BITMAP
40
80
C0
90
D0
88
90
70
ENDCHAR
STARTCHAR 3083
ENCODING 10851
SWIDTH 1000 0
DWIDTH 10 0
BBX 4 4 3 0
BITMAP
B0
D0
B0
40
ENDCHAR
STARTCHAR 3084
ENCODING 10852
SWIDTH 1000 0
DWIDTH 10 0
BBX 7 7 1 0
BITMAP
10
40
5E
62
A2
24
10
ENDCHAR
STARTCHAR 3085
ENCODING 10853
SWIDTH 1000 0
DWIDTH 10 0
BBX 5 4 2 0
BITMAP
10
F8
98
18
ENDCHAR
STARTCHAR 3086
ENCODING 10854
SWIDTH 1000 0
DWIDTH 10 0
BBX 7 7 1 0
BITMAP
90
9C
EA
8A
8A
94
08
ENDCHAR
STARTCHAR 3087
ENCODING 10855
SWIDTH 1000 0
DWIDTH 10 0
BBX 5 6 2 -1
BITMAP
20
28
30
20
F0
08
ENDCHAR
STARTCHAR 3088
ENCODING 10856
SWIDTH 1000 0
DWIDTH 10 0
BBX 5 8 2 -1
BITMAP
20
20
38
20
20
60
B8
E0
ENDCHAR
STARTCHAR 3089
ENCODING 10857
SWIDTH 1000 0
DWIDTH 10 0
BBX 5 8 2 -1
BITMAP
40
A0
80
B8
C8
88
08
30
ENDCHAR
STARTCHAR 308A
ENCODING 10858
SWIDTH 1000 0
DWIDTH 10 0
BBX 4 8 3 -1
BITMAP
10
90
90
90
90
10
20
20
ENDCHAR
STARTCHAR 308B
ENCODING 10859
SWIDTH 1000 0
DWIDTH 10 0
BBX 6 8 2 -1
BITMAP
10
20
20
78
84
24
58
30
ENDCHAR
STARTCHAR 308C
ENCODING 10860
SWIDTH 1000 0
DWIDTH 10 0
BBX 7 8 1 -1
BITMAP
20
20
7C
34
24
64
A6
20
ENDCHAR
STARTCHAR 308D
ENCODING 10861
SWIDTH 1000 0
DWIDTH 10 0
BBX 6 8 2 -1
BITMAP
70
20
20
78
84
04
04
38
ENDCHAR
STARTCHAR 308E
ENCODING 10862
SWIDTH 1000 0
DWIDTH 10 0
BBX 4 6 3 -1
BITMAP
80
80
F0
90
90
A0
ENDCHAR
STARTCHAR 308F
ENCODING 10863
SWIDTH 1000 0
DWIDTH 10 0
BBX 8 8 1 -1
BITMAP
20
30
EE
32
21
62
A2
20
ENDCHAR
STARTCHAR 3090
ENCODING 10864
SWIDTH 1000 0
DWIDTH 10 0
BBX 6 8 1 -1
BITMAP
10
30
20
7C
A4
C4
DC
08
ENDCHAR
STARTCHAR 3091
ENCODING 10865
SWIDTH 1000 0
DWIDTH 10 0
BBX 7 7 2 -1
BITMAP
30
20
5C
34
3C
F2
02
ENDCHAR
STARTCHAR 3092
ENCODING 10866
SWIDTH 1000 0
DWIDTH 10 0
BBX 6 7 2 -1
BITMAP
F0
40
F4
18
70
40
38
ENDCHAR
STARTCHAR 3093
ENCODING 10867
SWIDTH 1000 0
DWIDTH 10 0
BBX 7 8 1 -1
BITMAP
10
10
20
20
30
48
8A
04
ENDCHAR
STARTCHAR 30A1
ENCODING 11041
SWIDTH 1000 0
DWIDTH 10 0
BBX 4 4 3 0
BITMAP
F0
50
60
80
ENDCHAR
STARTCHAR 30A2
ENCODING 11042
SWIDTH 1000 0
DWIDTH 10 0
BBX 6 5 2 1
BITMAP
FC
24
28
20
40
ENDCHAR
STARTCHAR 30A3
ENCODING 11043
SWIDTH 1000 0
DWIDTH 10 0
BBX 4 5 2 -1
BITMAP
10
20
E0
20
20
ENDCHAR
STARTCHAR 30A4
ENCODING 11044
SWIDTH 1000 0
DWIDTH 10 0
BBX 6 7 1 -1
BITMAP
04
08
30
D0
10
10
10
ENDCHAR
STARTCHAR 30A5
ENCODING 11045
SWIDTH 1000 0
DWIDTH 10 0
BBX 4 4 3 0
BITMAP
F0
90
90
20
ENDCHAR
STARTCHAR 30A6
ENCODING 11046
SWIDTH 1000 0
DWIDTH 10 0
BBX 6 7 2 0
BITMAP
20
FC
84
84
08
08
10
ENDCHAR
STARTCHAR 30A7
ENCODING 11047
SWIDTH 1000 0
DWIDTH 10 0
BBX 5 4 2 -1
BITMAP
F8
20
20
F8
ENDCHAR
STARTCHAR 30A8
ENCODING 11048
SWIDTH 1000 0
DWIDTH 10 0
BBX 7 6 1 0
BITMAP
FE
10
10
10
10
FE
ENDCHAR
STARTCHAR 30A9
ENCODING 11049
SWIDTH 1000 0
DWIDTH 10 0
BBX 6 5 2 -1
BITMAP
10
FC
30
50
30
ENDCHAR
STARTCHAR 30AA
ENCODING 11050
SWIDTH 1000 0
DWIDTH 10 0
BBX 7 8 1 -1
BITMAP
08
08
FE
18
28
48
88
38
ENDCHAR
STARTCHAR 30AB
ENCODING 11051
SWIDTH 1000 0
DWIDTH 10 0
BBX 6 7 2 0
BITMAP
20
20
FC
24
24
48
98
ENDCHAR
STARTCHAR 30AC
ENCODING 11052
SWIDTH 1000 0
DWIDTH 10 0
BBX 7 7 2 0
BITMAP
22
20
FC
24
24
48
98
ENDCHAR
STARTCHAR 30AD
ENCODING 11053
SWIDTH 1000 0
DWIDTH 10 0
BBX 5 8 2 -1
BITMAP
20
20
F0
20
F8
20
20
10
ENDCHAR
STARTCHAR 30AE
ENCODING 11054
SWIDTH 1000 0
DWIDTH 10 0
BBX 6 8 2 -1
BITMAP
24
20
F0
20
F8
20
20
10
ENDCHAR
STARTCHAR 30AF
ENCODING 11055
SWIDTH 1000 0
DWIDTH 10 0
BBX 5 7 2 -1
BITMAP
20
38
48
90
10
20
40
ENDCHAR
STARTCHAR 30B0
ENCODING 11056
SWIDTH 1000 0
DWIDTH 10 0
BBX 7 8 2 -1
BITMAP
22
38
48
88
10
20
40
80
ENDCHAR
STARTCHAR 30B1
ENCODING 11057
SWIDTH 1000 0
DWIDTH 10 0
BBX 7 7 1 -1
BITMAP
20
3E
48
88
10
10
20
ENDCHAR
STARTCHAR 30B2
ENCODING 11058
SWIDTH 1000 0
DWIDTH 10 0
BBX 8 8 1 -1
BITMAP
01
20
3E
48
88
10
10
20
ENDCHAR
STARTCHAR 30B3
ENCODING 11059
SWIDTH 1000 0
DWIDTH 10 0
BBX 6 6 1 0
BITMAP
FC
04
04
04
04
FC
ENDCHAR
STARTCHAR 30B4
ENCODING 11060
SWIDTH 1000 0
DWIDTH 10 0
BBX 7 7 1 0
BITMAP
02
FC
04
04
04
04
FC
ENDCHAR
STARTCHAR 30B5
ENCODING 11061
SWIDTH 1000 0
DWIDTH 10 0
BBX 8 8 1 -1
BITMAP
24
24
FF
24
24
08
08
10
ENDCHAR
STARTCHAR 30B6
ENCODING 11062
SWIDTH 1000 0
DWIDTH 10 0
BBX 8 8 1 -1
BITMAP
25
24
FF
24
24
08
08
10
ENDCHAR
STARTCHAR 30B7
ENCODING 11063
SWIDTH 1000 0
DWIDTH 10 0
BBX 5 6 3 0
BITMAP
80
40
88
10
20
C0
ENDCHAR
STARTCHAR 30B8
ENCODING 11064
SWIDTH 1000 0
DWIDTH 10 0
BBX 5 5 3 0
BITMAP
40
88
10
20
C0
ENDCHAR
STARTCHAR 30B9
ENCODING 11065
SWIDTH 1000 0
DWIDTH 10 0
BBX 6 6 2 0
BITMAP
F8
08
10
10
28
44
ENDCHAR
STARTCHAR 30BA
ENCODING 11066
SWIDTH 1000 0
DWIDTH 10 0
BBX 6 7 2 0
BITMAP
04
F8
08
10
10
28
44
ENDCHAR
STARTCHAR 30BB
ENCODING 11067
SWIDTH 1000 0
DWIDTH 10 0
BBX 6 7 2 0
BITMAP
40
40
FC
48
40
40
3C
ENDCHAR
STARTCHAR 30BC
ENCODING 11068
SWIDTH 1000 0
DWIDTH 10 0
BBX 8 7 1 0
BITMAP
21
26
FC
24
20
20
1E
ENDCHAR
STARTCHAR 30BD
ENCODING 11069
SWIDTH 1000 0
DWIDTH 10 0
BBX 5 7 2 -1
BITMAP
80
88
48
10
10
20
40
ENDCHAR
STARTCHAR 30BE
ENCODING 11070
SWIDTH 1000 0
DWIDTH 10 0
BBX 7 9 2 -1
BITMAP
02
00
82
88
48
10
10
20
40
ENDCHAR
STARTCHAR 30BF
ENCODING 11071
SWIDTH 1000 0
DWIDTH 10 0
BBX 5 8 2 -1
BITMAP
20
38
48
A8
10
10
20
C0
ENDCHAR
STARTCHAR 30C0
ENCODING 11072
SWIDTH 1000 0
DWIDTH 10 0
BBX 6 8 2 -1
BITMAP
24
38
48
A8
10
10
20
C0
ENDCHAR
STARTCHAR 30C1
ENCODING 11073
SWIDTH 1000 0
DWIDTH 10 0
BBX 7 8 2 -1
BITMAP
08
F0
10
FE
10
20
20
40
ENDCHAR
STARTCHAR 30C2
ENCODING 11074
SWIDTH 1000 0
DWIDTH 10 0
BBX 7 8 2 -1
BITMAP
08
F0
10
FE
10
20
20
40
ENDCHAR
STARTCHAR 30C3
ENCODING 11075
SWIDTH 1000 0
DWIDTH 10 0
BBX 4 5 3 -1
BITMAP
40
90
20
20
40
ENDCHAR
STARTCHAR 30C4
ENCODING 11076
SWIDTH 1000 0
DWIDTH 10 0
BBX 6 7 2 -1
BITMAP
24
A4
08
08
10
20
40
ENDCHAR
STARTCHAR 30C5
ENCODING 11077
SWIDTH 1000 0
DWIDTH 10 0
BBX 6 7 2 -1
BITMAP
24
A4
08
08
10
20
40
ENDCHAR
STARTCHAR 30C6
ENCODING 11078
SWIDTH 1000 0
DWIDTH 10 0
BBX 7 6 2 0
BITMAP
78
00
FE
10
10
20
ENDCHAR
STARTCHAR 30C7
ENCODING 11079
SWIDTH 1000 0
DWIDTH 10 0
BBX 7 6 1 0
BITMAP
3C
00
FE
10
10
20
ENDCHAR
STARTCHAR 30C8
ENCODING 11080
SWIDTH 1000 0
DWIDTH 10 0
BBX 3 7 4 -1
BITMAP
80
80
C0
A0
80
80
80
ENDCHAR
STARTCHAR 30C9
ENCODING 11081
SWIDTH 1000 0
DWIDTH 10 0
BBX 3 7 4 -1
BITMAP
80
80
C0
A0
80
80
80
ENDCHAR
STARTCHAR 30CA
ENCODING 11082
SWIDTH 1000 0
DWIDTH 10 0
BBX 7 8 2 -1
BITMAP
10
10
FE
10
10
20
40
40
ENDCHAR
STARTCHAR 30CB
ENCODING 11083
SWIDTH 1000 0
DWIDTH 10 0
BBX 6 6 2 0
BITMAP
78
00
00
00
00
FC
ENDCHAR
STARTCHAR 30CC
ENCODING 11084
SWIDTH 1000 0
DWIDTH 10 0
BBX 5 7 2 -1
BITMAP
F8
08
48
30
28
20
C0
ENDCHAR
STARTCHAR 30CD
ENCODING 11085
SWIDTH 1000 0
DWIDTH 10 0
BBX 6 8 2 -1
BITMAP
10
FC
08
10
30
D4
10
10
ENDCHAR
STARTCHAR 30CE
ENCODING 11086
SWIDTH 1000 0
DWIDTH 10 0
BBX 4 6 3 0
BITMAP
10
20
20
40
40
80
ENDCHAR
STARTCHAR 30CF
ENCODING 11087
SWIDTH 1000 0
DWIDTH 10 0
BBX 6 4 2 1
BITMAP
48
48
84
04
ENDCHAR
STARTCHAR 30D0
ENCODING 11088
SWIDTH 1000 0
DWIDTH 10 0
BBX 6 4 2 1
BITMAP
48
48
84
04
ENDCHAR
STARTCHAR 30D1
ENCODING 11089
SWIDTH 1000 0
DWIDTH 10 0
BBX 7 6 2 1
BITMAP
06
04
48
48
84
04
ENDCHAR
STARTCHAR 30D2
ENCODING 11090
SWIDTH 1000 0
DWIDTH 10 0
BBX 5 7 3 0
BITMAP
80
88
B0
C0
80
80
78
ENDCHAR
STARTCHAR 30D3
ENCODING 11091
SWIDTH 1000 0
DWIDTH 10 0
BBX 5 7 3 0
BITMAP
80
88
B0
C0
80
80
78
ENDCHAR
STARTCHAR 30D4
ENCODING 11092
SWIDTH 1000 0
DWIDTH 10 0
BBX 6 7 3 0
BITMAP
8C
8C
B0
C0
80
80
78
ENDCHAR
STARTCHAR 30D5
ENCODING 11093
SWIDTH 1000 0
DWIDTH 10 0
BBX 6 7 2 -1
BITMAP
FC
04
08
08
10
20
40
ENDCHAR
STARTCHAR 30D6
ENCODING 11094
SWIDTH 1000 0
DWIDTH 10 0
BBX 6 7 2 -1
BITMAP
FC
04
08
08
10
20
40
ENDCHAR
STARTCHAR 30D7
ENCODING 11095
SWIDTH 1000 0
DWIDTH 10 0
BBX 7 9 2 -1
BITMAP
02
06
FC
04
08
08
10
20
40
ENDCHAR
STARTCHAR 30D8
ENCODING 11096
SWIDTH 1000 0
DWIDTH 10 0
BBX 8 4 1 0
BITMAP
70
8C
02
01
ENDCHAR
STARTCHAR 30D9
ENCODING 11097
SWIDTH 1000 0
DWIDTH 10 0
BBX 8 4 1 0
BITMAP
70
8C
02
01
ENDCHAR
STARTCHAR 30DA
ENCODING 11098
SWIDTH 1000 0
DWIDTH 10 0
BBX 8 5 1 1
BITMAP
0C
34
48
84
03
ENDCHAR
STARTCHAR 30DB
ENCODING 11099
SWIDTH 1000 0
DWIDTH 10 0
BBX 7 8 2 -1
BITMAP
10
10
FE
10
14
94
10
70
ENDCHAR
STARTCHAR 30DC
ENCODING 11100
SWIDTH 1000 0
DWIDTH 10 0
BBX 7 8 2 -1
BITMAP
10
14
FE
10
14
94
10
70
ENDCHAR
STARTCHAR 30DD
ENCODING 11101
SWIDTH 1000 0
DWIDTH 10 0
BBX 7 8 2 -1
BITMAP
1C
14
FE
10
14
94
10
70
ENDCHAR
STARTCHAR 30DE
ENCODING 11102
SWIDTH 1000 0
DWIDTH 10 0
BBX 6 5 2 1
BITMAP
FC
04
08
30
20
ENDCHAR
STARTCHAR 30DF
ENCODING 11103
SWIDTH 1000 0
DWIDTH 10 0
BBX 4 6 3 0
BITMAP
20
00
60
00
C0
30
ENDCHAR
STARTCHAR 30E0
ENCODING 11104
SWIDTH 1000 0
DWIDTH 10 0
BBX 6 6 2 0
BITMAP
20
20
40
48
88
F4
ENDCHAR
STARTCHAR 30E1
ENCODING 11105
SWIDTH 1000 0
DWIDTH 10 0
BBX 5 6 2 0
BITMAP
08
10
30
10
68
80
ENDCHAR
STARTCHAR 30E2
ENCODING 11106
SWIDTH 1000 0
DWIDTH 10 0
BBX 8 7 1 -1
BITMAP
7E
10
FF
10
10
10
1E
ENDCHAR
STARTCHAR 30E3
ENCODING 11107
SWIDTH 1000 0
DWIDTH 10 0
BBX 4 3 3 0
BITMAP
F0
40
40
ENDCHAR
STARTCHAR 30E4
ENCODING 11108
SWIDTH 1000 0
DWIDTH 10 0
BBX 5 6 3 0
BITMAP
80
78
90
50
40
40
ENDCHAR
STARTCHAR 30E5
ENCODING 11109
SWIDTH 1000 0
DWIDTH 10 0
BBX 5 4 2 -1
BITMAP
70
10
10
F8
ENDCHAR
STARTCHAR 30E6
ENCODING 11110
SWIDTH 1000 0
DWIDTH 10 0
BBX 7 6 1 0
BITMAP
78
08
08
08
08
FE
ENDCHAR
STARTCHAR 30E7
ENCODING 11111
SWIDTH 1000 0
DWIDTH 10 0
BBX 4 5 3 -1
BITMAP
F0
10
F0
10
F0
ENDCHAR
STARTCHAR 30E8
ENCODING 11112
SWIDTH 1000 0
DWIDTH 10 0
BBX 6 7 1 -1
BITMAP
FC
04
7C
04
04
FC
04
ENDCHAR
STARTCHAR 30E9
ENCODING 11113
SWIDTH 1000 0
DWIDTH 10 0
BBX 5 8 2 -1
BITMAP
78
00
00
F8
08
08
10
20
ENDCHAR
STARTCHAR 30EA
ENCODING 11114
SWIDTH 1000 0
DWIDTH 10 0
BBX 4 8 3 -1
BITMAP
90
90
90
90
90
20
20
40
ENDCHAR
STARTCHAR 30EB
ENCODING 11115
SWIDTH 1000 0
DWIDTH 10 0
BBX 7 6 2 0
BITMAP
50
50
50
52
94
98
ENDCHAR
STARTCHAR 30EC
ENCODING 11116
SWIDTH 1000 0
DWIDTH 10 0
BBX 5 7 2 -1
BITMAP
80
80
80
88
90
A0
40
ENDCHAR
STARTCHAR 30ED
ENCODING 11117
SWIDTH 1000 0
DWIDTH 10 0
BBX 6 7 2 -1
BITMAP
FC
84
84
84
84
FC
80
ENDCHAR
STARTCHAR 30EE
ENCODING 11118
SWIDTH 1000 0
DWIDTH 10 0
BBX 4 4 3 0
BITMAP
F0
90
90
20
ENDCHAR
STARTCHAR 30EF
ENCODING 11119
SWIDTH 1000 0
DWIDTH 10 0
BBX 6 6 2 0
BITMAP
FC
84
84
88
08
10
ENDCHAR
STARTCHAR 30F0
ENCODING 11120
SWIDTH 1000 0
DWIDTH 10 0
BBX 7 8 1 -1
BITMAP
08
08
7E
28
28
FE
08
08
ENDCHAR
STARTCHAR 30F1
ENCODING 11121
SWIDTH 1000 0
DWIDTH 10 0
BBX 7 6 1 0
BITMAP
7E
04
10
10
10
FE
ENDCHAR
STARTCHAR 30F2
ENCODING 11122
SWIDTH 1000 0
DWIDTH 10 0
BBX 5 7 2 -1
BITMAP
F8
08
F8
08
10
20
40
ENDCHAR
STARTCHAR 30F3
ENCODING 11123
SWIDTH 1000 0
DWIDTH 10 0
BBX 6 5 2 0
BITMAP
40
04
08
30
C0
ENDCHAR
STARTCHAR 30F4
ENCODING 11124
SWIDTH 1000 0
DWIDTH 10 0
BBX 6 7 2 0
BITMAP
24
FC
84
84
08
08
10
ENDCHAR
STARTCHAR 30F5
ENCODING 11125
SWIDTH 1000 0
DWIDTH 10 0
BBX 5 5 2 -1
BITMAP
20
F8
28
48
10
ENDCHAR
STARTCHAR 30F6
ENCODING 11126
SWIDTH 1000 0
DWIDTH 10 0
BBX 5 4 3 -1
BITMAP
F8
20
40
40
ENDCHAR
STARTCHAR 0410
ENCODING 11297
SWIDTH 1000 0
DWIDTH 10 0
BBX 5 8 2 -1
BITMAP
20
50
50
50
78
88
88
80
ENDCHAR
STARTCHAR 0411
ENCODING 11298
SWIDTH 1000 0
DWIDTH 10 0
BBX 4 7 3 0
BITMAP
F0
80
80
F0
90
90
E0
ENDCHAR
STARTCHAR 0412
ENCODING 11299
SWIDTH 1000 0
DWIDTH 10 0
BBX 6 7 2 0
BITMAP
F8
88
88
F0
8C
84
88
ENDCHAR
STARTCHAR 0413
ENCODING 11300
SWIDTH 1000 0
DWIDTH 10 0
BBX 4 7 3 0
BITMAP
F0
80
80
80
80
80
80
ENDCHAR
STARTCHAR 0414
ENCODING 11301
SWIDTH 1000 0
DWIDTH 10 0
BBX 6 7 2 0
BITMAP
78
48
48
48
48
B4
84
ENDCHAR
STARTCHAR 0415
ENCODING 11302
SWIDTH 1000 0
DWIDTH 10 0
BBX 5 8 3 -1
BITMAP
F8
80
80
80
F0
80
80
70
ENDCHAR
STARTCHAR 0401
ENCODING 11303
SWIDTH 1000 0
DWIDTH 10 0
BBX 5 6 3 0
BITMAP
F8
80
80
F0
80
F8
ENDCHAR
STARTCHAR 0416
ENCODING 11304
SWIDTH 1000 0
DWIDTH 10 0
BBX 7 7 1 0
BITMAP
54
54
54
7C
94
92
92
ENDCHAR
STARTCHAR 0417
ENCODING 11305
SWIDTH 1000 0
DWIDTH 10 0
BBX 6 8 2 -1
BITMAP
70
88
08
30
0C
04
48
30
ENDCHAR
STARTCHAR 0418
ENCODING 11306
SWIDTH 1000 0
DWIDTH 10 0
BBX 5 7 2 0
BITMAP
88
88
B8
A8
C8
88
88
ENDCHAR
STARTCHAR 0419
ENCODING 11307
SWIDTH 1000 0
DWIDTH 10 0
BBX 6 7 2 0
BITMAP
50
A4
9C
A4
A4
C4
84
ENDCHAR
STARTCHAR 041A
ENCODING 11308
SWIDTH 1000 0
DWIDTH 10 0
BBX 4 7 3 0
BITMAP
90
A0
A0
E0
90
90
80
ENDCHAR
STARTCHAR 041B
ENCODING 11309
SWIDTH 1000 0
DWIDTH 10 0
BBX 5 7 2 0
BITMAP
78
48
48
48
48
48
88
ENDCHAR
STARTCHAR 041C
ENCODING 11310
SWIDTH 1000 0
DWIDTH 10 0
BBX 6 7 2 0
BITMAP
84
84
DC
D4
D4
A4
84
ENDCHAR
STARTCHAR 041D
ENCODING 11311
SWIDTH 1000 0
DWIDTH 10 0
BBX 5 7 2 0
BITMAP
88
88
88
F8
88
88
88
ENDCHAR
STARTCHAR 041E
ENCODING 11312
SWIDTH 1000 0
DWIDTH 10 0
BBX 6 8 2 -1
BITMAP
78
84
84
84
84
84
48
30
ENDCHAR
STARTCHAR 041F
ENCODING 11313
SWIDTH 1000 0
DWIDTH 10 0
BBX 4 7 3 0
BITMAP
F0
90
90
90
90
90
90
ENDCHAR
STARTCHAR 0420
ENCODING 11314
SWIDTH 1000 0
DWIDTH 10 0
BBX 5 7 3 0
BITMAP
F0
88
88
F0
80
80
80
ENDCHAR
STARTCHAR 0421
ENCODING 11315
SWIDTH 1000 0
DWIDTH 10 0
BBX 6 8 2 -1
BITMAP
78
84
80
80
84
84
48
30
ENDCHAR
STARTCHAR 0422
ENCODING 11316
SWIDTH 1000 0
DWIDTH 10 0
BBX 4 6 3 1
BITMAP
F0
40
40
40
40
40
ENDCHAR
STARTCHAR 0423
ENCODING 11317
SWIDTH 1000 0
DWIDTH 10 0
BBX 4 5 3 1
BITMAP
90
A0
A0
40
40
ENDCHAR
STARTCHAR 0424
ENCODING 11318
SWIDTH 1000 0
DWIDTH 10 0
BBX 7 7 1 0
BITMAP
10
7C
92
92
92
54
38
ENDCHAR
STARTCHAR 0425
ENCODING 11319
SWIDTH 1000 0
DWIDTH 10 0
BBX 4 8 3 -1
BITMAP
10
90
60
40
60
A0
90
10
ENDCHAR
STARTCHAR 0426
ENCODING 11320
SWIDTH 1000 0
DWIDTH 10 0
BBX 6 9 2 -1
BITMAP
88
88
88
88
88
88
FC
04
04
ENDCHAR
STARTCHAR 0427
ENCODING 11321
SWIDTH 1000 0
DWIDTH 10 0
BBX 4 7 3 0
BITMAP
90
90
90
90
70
10
10
ENDCHAR
STARTCHAR 0428
ENCODING 11322
SWIDTH 1000 0
DWIDTH 10 0
BBX 6 7 2 0
BITMAP
A4
A4
A4
A4
A4
A4
A4
ENDCHAR
STARTCHAR 0429
ENCODING 11323
SWIDTH 1000 0
DWIDTH 10 0
BBX 8 8 1 -1
BITMAP
92
92
92
92
92
92
FF
01
ENDCHAR
STARTCHAR 042A
ENCODING 11324
SWIDTH 1000 0
DWIDTH 10 0
BBX 7 8 1 -1
BITMAP
E0
20
20
3C
22
22
26
18
ENDCHAR
STARTCHAR 042B
ENCODING 11325
SWIDTH 1000 0
DWIDTH 10 0
BBX 6 7 2 0
BITMAP
84
84
84
F4
94
94
E4
ENDCHAR
STARTCHAR 042C
ENCODING 11326
SWIDTH 1000 0
DWIDTH 10 0
BBX 4 7 3 0
BITMAP
80
80
80
F0
90
90
A0
ENDCHAR
STARTCHAR 042D
ENCODING 11327
SWIDTH 1000 0
DWIDTH 10 0
BBX 6 8 2 -1
BITMAP
70
88
04
3C
04
88
50
20
ENDCHAR
STARTCHAR 042E
ENCODING 11328
SWIDTH 1000 0
DWIDTH 10 0
BBX 8 8 1 -1
BITMAP
9E
A1
A1
E1
A1
A1
92
0C
ENDCHAR
STARTCHAR 042F
ENCODING 11329
SWIDTH 1000 0
DWIDTH 10 0
BBX 5 7 2 0
BITMAP
78
88
88
78
88
88
88
ENDCHAR
STARTCHAR 0430
ENCODING 11345
SWIDTH 1000 0
DWIDTH 10 0
BBX 5 7 3 -1
BITMAP
70
90
10
F0
90
B8
40
ENDCHAR
STARTCHAR 0431
ENCODING 11346
SWIDTH 1000 0
DWIDTH 10 0
BBX 4 7 3 0
BITMAP
70
80
F0
90
90
90
60
ENDCHAR
STARTCHAR 0432
ENCODING 11347
SWIDTH 1000 0
DWIDTH 10 0
BBX 4 6 3 0
BITMAP
F0
90
90
F0
90
F0
ENDCHAR
STARTCHAR 0433
ENCODING 11348
SWIDTH 1000 0
DWIDTH 10 0
BBX 3 6 3 0
BITMAP
E0
80
80
80
80
80
ENDCHAR
STARTCHAR 0434
ENCODING 11349
SWIDTH 1000 0
DWIDTH 10 0
BBX 6 7 2 -1
BITMAP
78
48
48
48
48
FC
84
ENDCHAR
STARTCHAR 0435
ENCODING 11350
SWIDTH 1000 0
DWIDTH 10 0
BBX 4 6 3 0
BITMAP
70
90
90
F0
80
70
ENDCHAR
STARTCHAR 0451
ENCODING 11351
SWIDTH 1000 0
DWIDTH 10 0
BBX 4 7 3 0
BITMAP
20
60
90
90
F0
90
60
ENDCHAR
STARTCHAR 0436
ENCODING 11352
SWIDTH 1000 0
DWIDTH 10 0
BBX 5 6 2 0
BITMAP
88
A8
B0
F8
A8
A8
ENDCHAR
STARTCHAR 0437
ENCODING 11353
SWIDTH 1000 0
DWIDTH 10 0
BBX 4 6 3 0
BITMAP
60
90
10
B0
90
60
ENDCHAR
STARTCHAR 0438
ENCODING 11354
SWIDTH 1000 0
DWIDTH 10 0
BBX 4 5 3 0
BITMAP
90
90
F0
90
90
ENDCHAR
STARTCHAR 0439
ENCODING 11355
SWIDTH 1000 0
DWIDTH 10 0
BBX 4 7 3 0
BITMAP
60
00
90
B0
D0
90
90
ENDCHAR
STARTCHAR 043A
ENCODING 11356
SWIDTH 1000 0
DWIDTH 10 0
BBX 4 5 3 0
BITMAP
90
A0
E0
90
90
ENDCHAR
STARTCHAR 043B
ENCODING 11357
SWIDTH 1000 0
DWIDTH 10 0
BBX 4 5 3 0
BITMAP
F0
90
90
90
90
ENDCHAR
STARTCHAR 043C
ENCODING 11358
SWIDTH 1000 0
DWIDTH 10 0
BBX 5 5 2 0
BITMAP
88
F8
E8
A8
A8
ENDCHAR
STARTCHAR 043D
ENCODING 11359
SWIDTH 1000 0
DWIDTH 10 0
BBX 4 5 3 0
BITMAP
90
90
F0
90
90
ENDCHAR
STARTCHAR 043E
ENCODING 11360
SWIDTH 1000 0
DWIDTH 10 0
BBX 4 6 3 0
BITMAP
60
90
90
90
90
60
ENDCHAR
STARTCHAR 043F
ENCODING 11361
SWIDTH 1000 0
DWIDTH 10 0
BBX 4 6 3 0
BITMAP
F0
90
90
90
90
90
ENDCHAR
STARTCHAR 0440
ENCODING 11362
SWIDTH 1000 0
DWIDTH 10 0
BBX 4 6 3 0
BITMAP
E0
90
90
90
90
E0
ENDCHAR
STARTCHAR 0441
ENCODING 11363
SWIDTH 1000 0
DWIDTH 10 0
BBX 4 6 3 0
BITMAP
60
90
80
80
90
60
ENDCHAR
STARTCHAR 0442
ENCODING 11364
SWIDTH 1000 0
DWIDTH 10 0
BBX 5 6 2 0
BITMAP
F8
20
20
20
20
20
ENDCHAR
STARTCHAR 0443
ENCODING 11365
SWIDTH 1000 0
DWIDTH 10 0
BBX 3 5 3 0
BITMAP
80
A0
60
40
40
ENDCHAR
STARTCHAR 0444
ENCODING 11366
SWIDTH 1000 0
DWIDTH 10 0
BBX 7 7 1 0
BITMAP
10
7C
92
92
92
7C
10
ENDCHAR
STARTCHAR 0445
ENCODING 11367
SWIDTH 1000 0
DWIDTH 10 0
BBX 3 5 3 0
BITMAP
80
A0
40
A0
A0
ENDCHAR
STARTCHAR 0446
ENCODING 11368
SWIDTH 1000 0
DWIDTH 10 0
BBX 4 6 3 0
BITMAP
90
90
90
90
F0
10
ENDCHAR
STARTCHAR 0447
ENCODING 11369
SWIDTH 1000 0
DWIDTH 10 0
BBX 4 6 3 0
BITMAP
90
90
90
90
F0
10
ENDCHAR
STARTCHAR 0448
ENCODING 11370
SWIDTH 1000 0
DWIDTH 10 0
BBX 6 6 2 0
BITMAP
A4
A4
A4
A4
A4
FC
ENDCHAR
STARTCHAR 0449
ENCODING 11371
SWIDTH 1000 0
DWIDTH 10 0
BBX 6 6 2 0
BITMAP
88
A8
A8
A8
FC
04
ENDCHAR
STARTCHAR 044A
ENCODING 11372
SWIDTH 1000 0
DWIDTH 10 0
BBX 3 5 4 0
BITMAP
80
80
E0
A0
A0
ENDCHAR
STARTCHAR 044B
ENCODING 11373
SWIDTH 1000 0
DWIDTH 10 0
BBX 4 6 3 0
BITMAP
90
90
F0
B0
B0
F0
ENDCHAR
STARTCHAR 044C
ENCODING 11374
SWIDTH 1000 0
DWIDTH 10 0
BBX 4 5 3 0
BITMAP
80
80
F0
90
A0
ENDCHAR
STARTCHAR 044D
ENCODING 11375
SWIDTH 1000 0
DWIDTH 10 0
BBX 4 6 3 0
BITMAP
60
90
10
70
10
60
ENDCHAR
STARTCHAR 044E
ENCODING 11376
SWIDTH 1000 0
DWIDTH 10 0
BBX 6 6 2 0
BITMAP
38
C4
C4
C4
C4
B8
ENDCHAR
STARTCHAR 044F
ENCODING 11377
SWIDTH 1000 0
DWIDTH 10 0
BBX 4 6 3 0
BITMAP
F0
90
90
F0
90
90
ENDCHAR
STARTCHAR AC00
ENCODING 12321
SWIDTH 1000 0
DWIDTH 10 0
BBX 9 9 0 -2
BITMAP
F900
0900
0900
0980
1100
1100
2100
C100
0100
ENDCHAR
STARTCHAR AC01
ENCODING 12322
SWIDTH 1000 0
DWIDTH 10 0
BBX 8 8 1 -1
BITMAP
F2
13
12
12
E2
FE
02
02
ENDCHAR
STARTCHAR AC04
ENCODING 12323
SWIDTH 1000 0
DWIDTH 10 0
BBX 8 8 1 -1
BITMAP
F2
12
13
12
62
82
82
FE
ENDCHAR
STARTCHAR AC07
ENCODING 12324
SWIDTH 1000 0
DWIDTH 10 0
BBX 8 8 1 -1
BITMAP
F2
13
12
22
C2
FE
80
FE
ENDCHAR
STARTCHAR AC08
ENCODING 12325
SWIDTH 1000 0
DWIDTH 10 0
BBX 8 8 1 -1
BITMAP
F2
13
12
22
FE
02
FE
FE
ENDCHAR
STARTCHAR AC09
ENCODING 12326
SWIDTH 1000 0
DWIDTH 10 0
BBX 8 8 1 -1
BITMAP
F2
13
12
22
EE
12
F2
F2
ENDCHAR
STARTCHAR AC0A
ENCODING 12327
SWIDTH 1000 0
DWIDTH 10 0
BBX 8 8 1 -1
BITMAP
F2
13
12
22
EE
2A
EA
EE
ENDCHAR
STARTCHAR AC10
ENCODING 12328
SWIDTH 1000 0
DWIDTH 10 0
BBX 8 8 1 -1
BITMAP
F2
13
12
22
C0
FE
82
FE
ENDCHAR
STARTCHAR AC11
ENCODING 12329
SWIDTH 1000 0
DWIDTH 10 0
BBX 8 8 1 -1
BITMAP
F2
13
12
22
C2
FE
82
FE
ENDCHAR
STARTCHAR AC12
ENCODING 12330
SWIDTH 1000 0
DWIDTH 10 0
BBX 8 8 1 -1
BITMAP
F2
13
12
E2
A0
E4
A6
EA
ENDCHAR
STARTCHAR AC13
ENCODING 12331
SWIDTH 1000 0
DWIDTH 10 0
BBX 8 8 1 -1
BITMAP
F2
13
12
12
62
90
28
C6
ENDCHAR
STARTCHAR AC14
ENCODING 12332
SWIDTH 1000 0
DWIDTH 10 0
BBX 8 9 1 -2
BITMAP
F2
13
12
22
C2
44
44
AA
11
ENDCHAR
STARTCHAR AC15
ENCODING 12333
SWIDTH 1000 0
DWIDTH 10 0
BBX 8 9 1 -2
BITMAP
F2
13
12
22
C2
7C
82
82
7C
ENDCHAR
STARTCHAR AC16
ENCODING 12334
SWIDTH 1000 0
DWIDTH 10 0
BBX 8 9 1 -2
BITMAP
F2
13
12
22
C2
FE
10
28
C6
ENDCHAR
STARTCHAR AC17
ENCODING 12335
SWIDTH 1000 0
DWIDTH 10 0
BBX 8 8 1 -1
BITMAP
F2
13
12
3A
C2
FE
18
E6
ENDCHAR
STARTCHAR AC19
ENCODING 12336
SWIDTH 1000 0
DWIDTH 10 0
BBX 8 8 1 -1
BITMAP
F2
13
12
22
C2
FE
FE
FE
ENDCHAR
STARTCHAR AC1A
ENCODING 12337
SWIDTH 1000 0
DWIDTH 10 0
BBX 8 8 1 -1
BITMAP
F2
13
12
22
C0
7E
24
3C
ENDCHAR
STARTCHAR AC1B
ENCODING 12338
SWIDTH 1000 0
DWIDTH 10 0
BBX 8 9 1 -2
BITMAP
F2
13
12
22
FE
FF
7E
82
7C
ENDCHAR
STARTCHAR AC1C
ENCODING 12339
SWIDTH 1000 0
DWIDTH 10 0
BBX 8 9 1 -2
BITMAP
F5
15
15
17
25
25
45
85
04
ENDCHAR
STARTCHAR AC1D
ENCODING 12340
SWIDTH 1000 0
DWIDTH 10 0
BBX 7 9 2 -1
BITMAP
0A
F2
2E
32
32
4A
FE
02
02
ENDCHAR
STARTCHAR AC20
ENCODING 12341
SWIDTH 1000 0
DWIDTH 10 0
BBX 8 9 1 -1
BITMAP
05
E5
15
27
25
45
C5
40
7F
ENDCHAR
STARTCHAR AC24
ENCODING 12342
SWIDTH 1000 0
DWIDTH 10 0
BBX 8 9 1 -1
BITMAP
01
E9
17
29
21
FF
01
3F
3F
ENDCHAR
STARTCHAR AC2C
ENCODING 12343
SWIDTH 1000 0
DWIDTH 10 0
BBX 8 9 1 -1
BITMAP
05
E5
17
15
25
45
FF
41
7F
ENDCHAR
STARTCHAR AC2D
ENCODING 12344
SWIDTH 1000 0
DWIDTH 10 0
BBX 8 9 1 -1
BITMAP
05
E5
27
25
25
C0
41
7F
7F
ENDCHAR
STARTCHAR AC2F
ENCODING 12345
SWIDTH 1000 0
DWIDTH 10 0
BBX 7 9 2 -1
BITMAP
0A
F2
2E
32
32
4A
90
28
C6
ENDCHAR
STARTCHAR AC30
ENCODING 12346
SWIDTH 1000 0
DWIDTH 10 0
BBX 8 9 1 -1
BITMAP
05
79
17
19
19
65
00
66
91
ENDCHAR
STARTCHAR AC31
ENCODING 12347
SWIDTH 1000 0
DWIDTH 10 0
BBX 8 9 1 -2
BITMAP
E5
15
17
25
45
BE
41
41
3E
ENDCHAR
STARTCHAR AC38
ENCODING 12348
SWIDTH 1000 0
DWIDTH 10 0
BBX 10 9 0 -1
BITMAP
0100
F900
0900
09C0
0900
1100
21C0
4100
8100
ENDCHAR
STARTCHAR AC39
ENCODING 12349
SWIDTH 1000 0
DWIDTH 10 0
BBX 8 8 1 -1
BITMAP
F2
13
12
13
E2
FE
02
02
ENDCHAR
STARTCHAR AC3C
ENCODING 12350
SWIDTH 1000 0
DWIDTH 10 0
BBX 8 8 1 -1
BITMAP
F2
13
12
13
62
82
80
FE
ENDCHAR
STARTCHAR AC40
ENCODING 12351
SWIDTH 1000 0
DWIDTH 10 0
BBX 8 8 1 -1
BITMAP
F2
13
12
23
C2
FE
FE
FE
ENDCHAR
STARTCHAR AC4B
ENCODING 12352
SWIDTH 1000 0
DWIDTH 10 0
BBX 8 9 1 -1
BITMAP
02
F2
13
12
13
62
82
18
66
ENDCHAR
STARTCHAR AC4D
ENCODING 12353
SWIDTH 1000 0
DWIDTH 10 0
BBX 8 10 1 -2
BITMAP
02
F2
13
12
23
C2
7C
82
82
7C
ENDCHAR
STARTCHAR AC54
ENCODING 12354
SWIDTH 1000 0
DWIDTH 10 0
BBX 8 10 1 -2
BITMAP
01
E5
29
27
29
29
47
89
09
01
ENDCHAR
STARTCHAR AC58
ENCODING 12355
SWIDTH 1000 0
DWIDTH 10 0
BBX 8 9 1 -1
BITMAP
05
E5
27
25
27
45
C5
40
7F
ENDCHAR
STARTCHAR AC5C
ENCODING 12356
SWIDTH 1000 0
DWIDTH 10 0
BBX 8 8 1 -1
BITMAP
E5
17
27
25
C0
3F
3F
3F
ENDCHAR
STARTCHAR AC70
ENCODING 12357
SWIDTH 1000 0
DWIDTH 10 0
BBX 8 9 1 -1
BITMAP
01
F9
09
09
0F
11
21
41
81
ENDCHAR
STARTCHAR AC71
ENCODING 12358
SWIDTH 1000 0
DWIDTH 10 0
BBX 8 9 1 -1
BITMAP
01
F9
09
0F
11
61
FF
01
01
ENDCHAR
STARTCHAR AC74
ENCODING 12359
SWIDTH 1000 0
DWIDTH 10 0
BBX 8 8 1 -1
BITMAP
F9
09
0F
11
21
C1
40
7F
ENDCHAR
STARTCHAR AC77
ENCODING 12360
SWIDTH 1000 0
DWIDTH 10 0
BBX 8 9 1 -1
BITMAP
01
F9
09
0F
11
61
FF
40
7F
ENDCHAR
STARTCHAR AC78
ENCODING 12361
SWIDTH 1000 0
DWIDTH 10 0
BBX 8 9 1 -1
BITMAP
01
F9
0F
11
11
FF
01
7F
7F
ENDCHAR
STARTCHAR AC7A
ENCODING 12362
SWIDTH 1000 0
DWIDTH 10 0
BBX 8 10 1 -2
BITMAP
01
F9
0F
09
11
F7
15
75
77
60
ENDCHAR
STARTCHAR AC80
ENCODING 12363
SWIDTH 1000 0
DWIDTH 10 0
BBX 8 8 1 -1
BITMAP
F9
09
0F
11
E1
7F
41
7F
ENDCHAR
STARTCHAR AC81
ENCODING 12364
SWIDTH 1000 0
DWIDTH 10 0
BBX 8 9 1 -1
BITMAP
01
F9
09
17
E1
01
41
7F
7F
ENDCHAR
STARTCHAR AC83
ENCODING 12365
SWIDTH 1000 0
DWIDTH 10 0
BBX 8 10 1 -2
BITMAP
01
F9
09
0F
11
61
89
18
66
01
ENDCHAR
STARTCHAR AC84
ENCODING 12366
SWIDTH 1000 0
DWIDTH 10 0
BBX 8 9 1 -1
BITMAP
01
F1
09
17
11
61
80
66
91
ENDCHAR
STARTCHAR AC85
ENCODING 12367
SWIDTH 1000 0
DWIDTH 10 0
BBX 8 9 1 -2
BITMAP
F9
09
0F
11
61
BE
41
41
3E
ENDCHAR
STARTCHAR AC86
ENCODING 12368
SWIDTH 1000 0
DWIDTH 10 0
BBX 8 9 1 -2
BITMAP
F9
09
0F
11
E1
7F
08
14
63
ENDCHAR
STARTCHAR AC89
ENCODING 12369
SWIDTH 1000 0
DWIDTH 10 0
BBX 8 8 1 -1
BITMAP
F9
09
0F
11
E1
7F
7F
7F
ENDCHAR
STARTCHAR AC8A
ENCODING 12370
SWIDTH 1000 0
DWIDTH 10 0
BBX 8 8 1 -1
BITMAP
F9
09
17
11
E1
7F
22
3E
ENDCHAR
STARTCHAR AC8B
ENCODING 12371
SWIDTH 1000 0
DWIDTH 10 0
BBX 8 9 1 -2
BITMAP
F9
09
0F
11
FD
7F
7E
42
3E
ENDCHAR
STARTCHAR AC8C
ENCODING 12372
SWIDTH 1000 0
DWIDTH 10 0
BBX 8 9 1 -2
BITMAP
F5
15
15
1D
25
25
45
85
04
ENDCHAR
STARTCHAR AC90
ENCODING 12373
SWIDTH 1000 0
DWIDTH 10 0
BBX 8 9 1 -1
BITMAP
04
E5
15
2D
25
45
C5
41
7F
ENDCHAR
STARTCHAR AC94
ENCODING 12374
SWIDTH 1000 0
DWIDTH 10 0
BBX 8 9 1 -1
BITMAP
04
E5
1D
25
25
C1
7F
3F
3F
ENDCHAR
STARTCHAR AC9C
ENCODING 12375
SWIDTH 1000 0
DWIDTH 10 0
BBX 8 8 1 -1
BITMAP
E5
15
1D
25
45
FF
41
7F
ENDCHAR
STARTCHAR AC9D
ENCODING 12376
SWIDTH 1000 0
DWIDTH 10 0
BBX 8 8 1 -1
BITMAP
E5
15
1D
25
C5
41
7F
7F
ENDCHAR
STARTCHAR AC9F
ENCODING 12377
SWIDTH 1000 0
DWIDTH 10 0
BBX 8 10 1 -2
BITMAP
01
E5
25
2D
25
45
88
18
66
01
ENDCHAR
STARTCHAR ACA0
ENCODING 12378
SWIDTH 1000 0
DWIDTH 10 0
BBX 8 8 1 -1
BITMAP
E5
25
2D
25
45
80
66
91
ENDCHAR
STARTCHAR ACA1
ENCODING 12379
SWIDTH 1000 0
DWIDTH 10 0
BBX 8 9 1 -1
BITMAP
01
E5
15
1D
25
45
BE
41
3E
ENDCHAR
STARTCHAR ACA8
ENCODING 12380
SWIDTH 1000 0
DWIDTH 10 0
BBX 7 8 2 -1
BITMAP
F2
12
1E
22
2E
42
42
82
ENDCHAR
STARTCHAR ACA9
ENCODING 12381
SWIDTH 1000 0
DWIDTH 10 0
BBX 8 8 1 -1
BITMAP
F9
0F
09
17
61
FF
01
01
ENDCHAR
STARTCHAR ACAA
ENCODING 12382
SWIDTH 1000 0
DWIDTH 10 0
BBX 8 10 1 -2
BITMAP
01
F9
0F
09
17
E1
F7
11
11
11
ENDCHAR
STARTCHAR ACAC
ENCODING 12383
SWIDTH 1000 0
DWIDTH 10 0
BBX 8 8 1 -1
BITMAP
F9
0F
09
17
21
C1
40
7F
ENDCHAR
STARTCHAR ACAF
ENCODING 12384
SWIDTH 1000 0
DWIDTH 10 0
BBX 8 8 1 -1
BITMAP
F9
0F
11
27
C1
7F
40
7F
ENDCHAR
STARTCHAR ACB0
ENCODING 12385
SWIDTH 1000 0
DWIDTH 10 0
BBX 8 8 1 -1
BITMAP
F9
0F
17
21
C0
7F
7F
7F
ENDCHAR
STARTCHAR ACB8
ENCODING 12386
SWIDTH 1000 0
DWIDTH 10 0
BBX 8 9 1 -1
BITMAP
01
F9
0F
09
17
E1
7F
41
7F
ENDCHAR
STARTCHAR ACB9
ENCODING 12387
SWIDTH 1000 0
DWIDTH 10 0
BBX 8 8 1 -1
BITMAP
F9
0F
09
17
E1
41
7F
7F
ENDCHAR
STARTCHAR ACBB
ENCODING 12388
SWIDTH 1000 0
DWIDTH 10 0
BBX 8 8 1 -1
BITMAP
F1
0F
11
17
61
89
14
63
ENDCHAR
STARTCHAR ACBC
ENCODING 12389
SWIDTH 1000 0
DWIDTH 10 0
BBX 8 8 1 -1
BITMAP
F1
0F
11
17
61
80
66
99
ENDCHAR
STARTCHAR ACBD
ENCODING 12390
SWIDTH 1000 0
DWIDTH 10 0
BBX 8 9 1 -2
BITMAP
F9
0F
09
17
61
BE
41
41
3E
ENDCHAR
STARTCHAR ACC1
ENCODING 12391
SWIDTH 1000 0
DWIDTH 10 0
BBX 8 8 1 -1
BITMAP
F9
0F
09
17
E1
7F
7F
7F
ENDCHAR
STARTCHAR ACC4
ENCODING 12392
SWIDTH 1000 0
DWIDTH 10 0
BBX 8 9 1 -1
BITMAP
04
F5
1D
15
15
1D
25
45
85
ENDCHAR
STARTCHAR ACC8
ENCODING 12393
SWIDTH 1000 0
DWIDTH 10 0
BBX 8 8 1 -1
BITMAP
E5
1D
25
2D
45
C5
40
7F
ENDCHAR
STARTCHAR ACCC
ENCODING 12394
SWIDTH 1000 0
DWIDTH 10 0
BBX 8 9 1 -1
BITMAP
04
ED
15
2D
25
FF
01
7F
7F
ENDCHAR
STARTCHAR ACD5
ENCODING 12395
SWIDTH 1000 0
DWIDTH 10 0
BBX 8 9 1 -1
BITMAP
05
ED
15
1D
25
C0
41
7F
7F
ENDCHAR
STARTCHAR ACD7
ENCODING 12396
SWIDTH 1000 0
DWIDTH 10 0
BBX 8 9 1 -2
BITMAP
E5
2D
25
2D
45
89
18
66
01
ENDCHAR
STARTCHAR ACE0
ENCODING 12397
SWIDTH 1000 0
DWIDTH 10 0
BBX 8 8 1 -1
BITMAP
FE
02
02
02
12
12
12
FF
ENDCHAR
STARTCHAR ACE1
ENCODING 12398
SWIDTH 1000 0
DWIDTH 10 0
BBX 8 9 1 -2
BITMAP
FE
12
12
FF
00
FE
02
02
02
ENDCHAR
STARTCHAR ACE4
ENCODING 12399
SWIDTH 1000 0
DWIDTH 10 0
BBX 8 8 1 -1
BITMAP
FE
02
12
12
FF
40
40
7F
ENDCHAR
STARTCHAR ACE7
ENCODING 12400
SWIDTH 1000 0
DWIDTH 10 0
BBX 8 8 1 -1
BITMAP
FE
12
12
FF
00
7F
40
7F
ENDCHAR
STARTCHAR ACE8
ENCODING 12401
SWIDTH 1000 0
DWIDTH 10 0
BBX 8 8 1 -1
BITMAP
7E
12
12
FF
7E
02
7E
7E
ENDCHAR
STARTCHAR ACEA
ENCODING 12402
SWIDTH 1000 0
DWIDTH 10 0
BBX 8 9 1 -2
BITMAP
FE
12
12
FF
EF
29
E9
FF
C0
ENDCHAR
STARTCHAR ACEC
ENCODING 12403
SWIDTH 1000 0
DWIDTH 10 0
BBX 8 8 1 -1
BITMAP
FE
12
12
FF
00
70
76
79
ENDCHAR
STARTCHAR ACEF
ENCODING 12404
SWIDTH 1000 0
DWIDTH 10 0
BBX 8 8 1 -1
BITMAP
FE
12
12
FF
E6
2F
EE
EE
ENDCHAR
STARTCHAR ACF0
ENCODING 12405
SWIDTH 1000 0
DWIDTH 10 0
BBX 8 8 1 -1
BITMAP
FE
12
12
FF
00
7E
42
7E
ENDCHAR
STARTCHAR ACF1
ENCODING 12406
SWIDTH 1000 0
DWIDTH 10 0
BBX 8 8 1 -1
BITMAP
FE
12
12
FF
42
7E
42
7E
ENDCHAR
STARTCHAR ACF3
ENCODING 12407
SWIDTH 1000 0
DWIDTH 10 0
BBX 8 8 1 -1
BITMAP
FE
02
12
12
FF
00
18
66
ENDCHAR
STARTCHAR ACF5
ENCODING 12408
SWIDTH 1000 0
DWIDTH 10 0
BBX 8 8 1 -1
BITMAP
FE
12
12
FF
00
7E
81
7E
ENDCHAR
STARTCHAR ACF6
ENCODING 12409
SWIDTH 1000 0
DWIDTH 10 0
BBX 8 9 1 -2
BITMAP
FE
12
12
FF
00
7E
18
24
02
ENDCHAR
STARTCHAR ACFC
ENCODING 12410
SWIDTH 1000 0
DWIDTH 10 0
BBX 9 9 0 -2
BITMAP
7D00
0500
0500
2580
2500
2100
FF00
0100
0100
ENDCHAR
STARTCHAR ACFD
ENCODING 12411
SWIDTH 1000 0
DWIDTH 10 0
BBX 9 9 0 -1
BITMAP
0100
7D00
2500
2580
FD00
0300
7F00
0100
0100
ENDCHAR
STARTCHAR AD00
ENCODING 12412
SWIDTH 1000 0
DWIDTH 10 0
BBX 9 8 0 -1
BITMAP
7D00
0500
2580
2500
FF00
4100
4100
7F00
ENDCHAR
STARTCHAR AD04
ENCODING 12413
SWIDTH 1000 0
DWIDTH 10 0
BBX 9 9 0 -1
BITMAP
0100
7900
2900
2980
FF00
0100
7F00
3F00
3F00
ENDCHAR
STARTCHAR AD06
ENCODING 12414
SWIDTH 1000 0
DWIDTH 10 0
BBX 9 9 0 -1
BITMAP
0100
7D00
2580
2500
FF00
7F00
0D00
7D00
7F00
ENDCHAR
STARTCHAR AD0C
ENCODING 12577
SWIDTH 1000 0
DWIDTH 10 0
BBX 9 9 0 -1
BITMAP
0100
7D00
2580
2500
FD00
0300
7F00
4100
7F00
ENDCHAR
STARTCHAR AD0D
ENCODING 12578
SWIDTH 1000 0
DWIDTH 10 0
BBX 9 9 0 -1
BITMAP
0100
7D00
2580
2500
FF00
0100
4100
7F00
7F00
ENDCHAR
STARTCHAR AD0F
ENCODING 12579
SWIDTH 1000 0
DWIDTH 10 0
BBX 9 9 0 -1
BITMAP
0100
7D00
0580
2500
2500
FF00
0100
0C00
7300
ENDCHAR
STARTCHAR AD11
ENCODING 12580
SWIDTH 1000 0
DWIDTH 10 0
BBX 9 9 0 -1
BITMAP
0100
7D00
2580
2500
FD00
3F00
4100
4100
3E00
ENDCHAR
STARTCHAR AD18
ENCODING 12581
SWIDTH 1000 0
DWIDTH 10 0
BBX 8 9 1 -2
BITMAP
F5
15
15
57
55
55
FD
05
05
ENDCHAR
STARTCHAR AD1C
ENCODING 12582
SWIDTH 1000 0
DWIDTH 10 0
BBX 8 9 1 -1
BITMAP
05
F5
15
57
55
FD
45
45
7F
ENDCHAR
STARTCHAR AD20
ENCODING 12583
SWIDTH 1000 0
DWIDTH 10 0
BBX 8 8 1 -1
BITMAP
75
55
57
FD
01
7F
7F
7F
ENDCHAR
STARTCHAR AD29
ENCODING 12584
SWIDTH 1000 0
DWIDTH 10 0
BBX 8 8 1 -1
BITMAP
75
55
57
FD
01
41
7F
7F
ENDCHAR
STARTCHAR AD2C
ENCODING 12585
SWIDTH 1000 0
DWIDTH 10 0
BBX 8 8 1 -1
BITMAP
F5
55
57
FD
01
00
66
99
ENDCHAR
STARTCHAR AD2D
ENCODING 12586
SWIDTH 1000 0
DWIDTH 10 0
BBX 8 9 1 -2
BITMAP
75
55
57
5D
E1
3C
43
41
3E
ENDCHAR
STARTCHAR AD34
ENCODING 12587
SWIDTH 1000 0
DWIDTH 10 0
BBX 8 9 1 -2
BITMAP
F9
09
09
29
29
29
FF
01
01
ENDCHAR
STARTCHAR AD35
ENCODING 12588
SWIDTH 1000 0
DWIDTH 10 0
BBX 8 9 1 -1
BITMAP
01
7D
25
25
FF
01
7F
01
01
ENDCHAR
STARTCHAR AD38
ENCODING 12589
SWIDTH 1000 0
DWIDTH 10 0
BBX 8 8 1 -1
BITMAP
F9
09
29
29
FF
41
41
7F
ENDCHAR
STARTCHAR AD3C
ENCODING 12590
SWIDTH 1000 0
DWIDTH 10 0
BBX 8 9 1 -1
BITMAP
01
79
29
21
FF
01
7F
7F
7F
ENDCHAR
STARTCHAR AD44
ENCODING 12591
SWIDTH 1000 0
DWIDTH 10 0
BBX 8 9 1 -1
BITMAP
01
7D
25
25
FF
01
7F
41
7F
ENDCHAR
STARTCHAR AD45
ENCODING 12592
SWIDTH 1000 0
DWIDTH 10 0
BBX 8 9 1 -1
BITMAP
01
F9
29
29
FF
01
41
7F
7F
ENDCHAR
STARTCHAR AD47
ENCODING 12593
SWIDTH 1000 0
DWIDTH 10 0
BBX 8 9 1 -1
BITMAP
01
F9
09
29
2F
F1
08
14
63
ENDCHAR
STARTCHAR AD49
ENCODING 12594
SWIDTH 1000 0
DWIDTH 10 0
BBX 8 9 1 -1
BITMAP
01
7D
25
25
FF
01
3E
41
3E
ENDCHAR
STARTCHAR AD50
ENCODING 12595
SWIDTH 1000 0
DWIDTH 10 0
BBX 8 8 1 -1
BITMAP
FE
02
02
2A
2A
2A
2A
FF
ENDCHAR
STARTCHAR AD54
ENCODING 12596
SWIDTH 1000 0
DWIDTH 10 0
BBX 8 8 1 -1
BITMAP
7E
02
2A
28
FF
40
40
7F
ENDCHAR
STARTCHAR AD58
ENCODING 12597
SWIDTH 1000 0
DWIDTH 10 0
BBX 9 8 1 -1
BITMAP
FE00
2600
2600
FF80
FE00
0200
FE00
FE00
ENDCHAR
STARTCHAR AD61
ENCODING 12598
SWIDTH 1000 0
DWIDTH 10 0
BBX 8 8 1 -1
BITMAP
7E
2A
2A
FF
42
7E
42
7E
ENDCHAR
STARTCHAR AD63
ENCODING 12599
SWIDTH 1000 0
DWIDTH 10 0
BBX 8 8 1 -1
BITMAP
7E
02
2A
28
FF
08
18
E6
ENDCHAR
STARTCHAR AD6C
ENCODING 12600
SWIDTH 1000 0
DWIDTH 10 0
BBX 9 8 1 -1
BITMAP
7F00
0100
0100
0100
FF80
0800
0800
0800
ENDCHAR
STARTCHAR AD6D
ENCODING 12601
SWIDTH 1000 0
DWIDTH 10 0
BBX 8 9 1 -2
BITMAP
FE
02
02
FF
08
7F
01
01
01
ENDCHAR
STARTCHAR AD70
ENCODING 12602
SWIDTH 1000 0
DWIDTH 10 0
BBX 8 8 1 -1
BITMAP
FE
02
02
FF
08
48
40
7F
ENDCHAR
STARTCHAR AD73
ENCODING 12603
SWIDTH 1000 0
DWIDTH 10 0
BBX 8 8 1 -1
BITMAP
FE
02
02
FF
08
7F
40
7F
ENDCHAR
STARTCHAR AD74
ENCODING 12604
SWIDTH 1000 0
DWIDTH 10 0
BBX 8 8 1 -1
BITMAP
7E
02
02
FF
7E
02
7E
7E
ENDCHAR
STARTCHAR AD75
ENCODING 12605
SWIDTH 1000 0
DWIDTH 10 0
BBX 8 8 1 -1
BITMAP
FE
02
02
FF
7F
11
71
71
ENDCHAR
STARTCHAR AD76
ENCODING 12606
SWIDTH 1000 0
DWIDTH 10 0
BBX 9 9 0 -2
BITMAP
7F00
0100
FF80
0800
7780
1480
7480
7F80
6000
ENDCHAR
STARTCHAR AD7B
ENCODING 12607
SWIDTH 1000 0
DWIDTH 10 0
BBX 9 8 0 -1
BITMAP
7F00
0100
FF80
0800
7300
1780
7780
7F00
ENDCHAR
STARTCHAR AD7C
ENCODING 12608
SWIDTH 1000 0
DWIDTH 10 0
BBX 8 8 1 -1
BITMAP
FE
02
02
FF
08
7F
41
7F
ENDCHAR
STARTCHAR AD7D
ENCODING 12609
SWIDTH 1000 0
DWIDTH 10 0
BBX 8 8 1 -1
BITMAP
FE
02
02
FF
4A
7E
42
7E
ENDCHAR
STARTCHAR AD7F
ENCODING 12610
SWIDTH 1000 0
DWIDTH 10 0
BBX 8 8 1 -1
BITMAP
FE
02
02
FF
08
00
18
E6
ENDCHAR
STARTCHAR AD81
ENCODING 12611
SWIDTH 1000 0
DWIDTH 10 0
BBX 8 8 1 -1
BITMAP
FE
02
02
FF
7E
83
C1
7E
ENDCHAR
STARTCHAR AD82
ENCODING 12612
SWIDTH 1000 0
DWIDTH 10 0
BBX 9 9 0 -2
BITMAP
7F00
0100
0100
FF80
0800
7F00
0800
3600
0100
ENDCHAR
STARTCHAR AD88
ENCODING 12613
SWIDTH 1000 0
DWIDTH 10 0
BBX 8 10 1 -2
BITMAP
01
F9
09
09
0F
79
17
11
11
11
ENDCHAR
STARTCHAR AD89
ENCODING 12614
SWIDTH 1000 0
DWIDTH 10 0
BBX 8 9 1 -1
BITMAP
01
F9
09
FF
27
21
7F
01
01
ENDCHAR
STARTCHAR AD8C
ENCODING 12615
SWIDTH 1000 0
DWIDTH 10 0
BBX 8 8 1 -1
BITMAP
F9
09
09
FF
27
61
40
7F
ENDCHAR
STARTCHAR AD90
ENCODING 12616
SWIDTH 1000 0
DWIDTH 10 0
BBX 8 8 1 -1
BITMAP
79
09
FF
27
21
3F
3F
3F
ENDCHAR
STARTCHAR AD9C
ENCODING 12617
SWIDTH 1000 0
DWIDTH 10 0
BBX 8 9 1 -1
BITMAP
01
F9
09
FF
21
27
00
66
99
ENDCHAR
STARTCHAR AD9D
ENCODING 12618
SWIDTH 1000 0
DWIDTH 10 0
BBX 8 9 1 -1
BITMAP
01
F9
09
FF
27
21
3E
41
3E
ENDCHAR
STARTCHAR ADA4
ENCODING 12619
SWIDTH 1000 0
DWIDTH 10 0
BBX 8 10 1 -2
BITMAP
01
75
15
15
15
FD
3D
25
25
04
ENDCHAR
STARTCHAR ADB7
ENCODING 12620
SWIDTH 1000 0
DWIDTH 10 0
BBX 8 9 1 -1
BITMAP
04
F5
15
1D
F5
3D
2C
14
63
ENDCHAR
STARTCHAR ADC0
ENCODING 12621
SWIDTH 1000 0
DWIDTH 10 0
BBX 8 8 1 -1
BITMAP
F9
09
09
09
FF
11
11
11
ENDCHAR
STARTCHAR ADC1
ENCODING 12622
SWIDTH 1000 0
DWIDTH 10 0
BBX 8 8 1 -1
BITMAP
7D
05
05
FF
11
7F
01
01
ENDCHAR
STARTCHAR ADC4
ENCODING 12623
SWIDTH 1000 0
DWIDTH 10 0
BBX 8 8 1 -1
BITMAP
F9
09
09
FF
11
51
40
7F
ENDCHAR
STARTCHAR ADC8
ENCODING 12624
SWIDTH 1000 0
DWIDTH 10 0
BBX 8 8 1 -1
BITMAP
79
09
09
FF
01
7F
7F
7F
ENDCHAR
STARTCHAR ADD0
ENCODING 12625
SWIDTH 1000 0
DWIDTH 10 0
BBX 8 8 1 -1
BITMAP
7D
05
05
FF
11
7F
41
7F
ENDCHAR
STARTCHAR ADD1
ENCODING 12626
SWIDTH 1000 0
DWIDTH 10 0
BBX 8 8 1 -1
BITMAP
F9
09
09
FF
11
41
7F
7F
ENDCHAR
STARTCHAR ADD3
ENCODING 12627
SWIDTH 1000 0
DWIDTH 10 0
BBX 9 8 0 -1
BITMAP
7C80
0480
0480
FF80
1080
1480
0A00
3180
ENDCHAR
STARTCHAR ADDC
ENCODING 12628
SWIDTH 1000 0
DWIDTH 10 0
BBX 8 9 1 -2
BITMAP
FE
02
02
02
FF
24
24
24
20
ENDCHAR
STARTCHAR ADE0
ENCODING 12629
SWIDTH 1000 0
DWIDTH 10 0
BBX 8 8 1 -1
BITMAP
FE
02
02
FF
24
A4
80
FE
ENDCHAR
STARTCHAR ADE4
ENCODING 12630
SWIDTH 1000 0
DWIDTH 10 0
BBX 8 8 1 -1
BITMAP
7E
02
02
FF
7E
02
7E
7E
ENDCHAR
STARTCHAR ADF8
ENCODING 12631
SWIDTH 1000 0
DWIDTH 10 0
BBX 8 8 1 -1
BITMAP
FE
02
02
02
02
02
02
FF
ENDCHAR
STARTCHAR ADF9
ENCODING 12632
SWIDTH 1000 0
DWIDTH 10 0
BBX 9 9 0 -2
BITMAP
7F00
0100
0100
FF80
0000
7F00
0100
0100
0100
ENDCHAR
STARTCHAR ADFC
ENCODING 12633
SWIDTH 1000 0
DWIDTH 10 0
BBX 9 8 0 -1
BITMAP
3F00
0100
0100
FF80
0000
2000
2000
3F80
ENDCHAR
STARTCHAR ADFF
ENCODING 12634
SWIDTH 1000 0
DWIDTH 10 0
BBX 9 8 0 -1
BITMAP
3F00
0100
0100
FF80
0000
3F80
2000
3F80
ENDCHAR
STARTCHAR AE00
ENCODING 12635
SWIDTH 1000 0
DWIDTH 10 0
BBX 8 8 1 -1
BITMAP
7E
02
02
FF
7E
02
7E
7E
ENDCHAR
STARTCHAR AE01
ENCODING 12636
SWIDTH 1000 0
DWIDTH 10 0
BBX 9 8 0 -1
BITMAP
7F00
0100
0100
FF80
7700
1100
7100
7900
ENDCHAR
STARTCHAR AE08
ENCODING 12637
SWIDTH 1000 0
DWIDTH 10 0
BBX 9 8 0 -1
BITMAP
7F00
0100
0100
FF80
0000
3F80
2080
3F80
ENDCHAR
STARTCHAR AE09
ENCODING 12638
SWIDTH 1000 0
DWIDTH 10 0
BBX 9 8 0 -1
BITMAP
7F00
0100
0100
FF80
2100
3F00
2100
3F00
ENDCHAR
STARTCHAR AE0B
ENCODING 12639
SWIDTH 1000 0
DWIDTH 10 0
BBX 9 8 0 -1
BITMAP
7F00
0100
0100
FF80
0000
0400
0C00
3300
ENDCHAR
STARTCHAR AE0D
ENCODING 12640
SWIDTH 1000 0
DWIDTH 10 0
BBX 9 8 0 -1
BITMAP
7F00
0100
0100
FF80
1F00
2080
2080
1F00
ENDCHAR
STARTCHAR AE14
ENCODING 12641
SWIDTH 1000 0
DWIDTH 10 0
BBX 8 8 1 -1
BITMAP
F9
09
09
09
09
09
FF
01
ENDCHAR
STARTCHAR AE30
ENCODING 12642
SWIDTH 1000 0
DWIDTH 10 0
BBX 9 9 0 -1
BITMAP
0080
7C80
0480
E480
E480
0880
0880
3080
4080
ENDCHAR
STARTCHAR AE31
ENCODING 12643
SWIDTH 1000 0
DWIDTH 10 0
BBX 8 8 1 -1
BITMAP
F9
09
09
11
21
FF
01
01
ENDCHAR
STARTCHAR AE34
ENCODING 12644
SWIDTH 1000 0
DWIDTH 10 0
BBX 8 8 1 -1
BITMAP
F9
09
09
11
21
C1
40
7F
ENDCHAR
STARTCHAR AE37
ENCODING 12645
SWIDTH 1000 0
DWIDTH 10 0
BBX 8 8 1 -1
BITMAP
F9
09
09
11
60
FF
40
7F
ENDCHAR
STARTCHAR AE38
ENCODING 12646
SWIDTH 1000 0
DWIDTH 10 0
BBX 8 8 1 -1
BITMAP
F9
09
09
11
E0
7F
3F
3F
ENDCHAR
STARTCHAR AE3A
ENCODING 12647
SWIDTH 1000 0
DWIDTH 10 0
BBX 8 9 1 -2
BITMAP
F9
09
11
E1
77
15
75
77
60
ENDCHAR
STARTCHAR AE40
ENCODING 12648
SWIDTH 1000 0
DWIDTH 10 0
BBX 8 8 1 -1
BITMAP
F9
09
09
11
60
FF
41
7F
ENDCHAR
STARTCHAR AE41
ENCODING 12649
SWIDTH 1000 0
DWIDTH 10 0
BBX 8 9 1 -1
BITMAP
01
F9
09
09
11
E1
7F
41
7F
ENDCHAR
STARTCHAR AE43
ENCODING 12650
SWIDTH 1000 0
DWIDTH 10 0
BBX 8 8 1 -1
BITMAP
F1
09
09
11
21
C8
14
63
ENDCHAR
STARTCHAR AE45
ENCODING 12651
SWIDTH 1000 0
DWIDTH 10 0
BBX 8 10 1 -2
BITMAP
01
F9
09
09
11
7E
E3
41
63
1E
ENDCHAR
STARTCHAR AE46
ENCODING 12652
SWIDTH 1000 0
DWIDTH 10 0
BBX 8 9 1 -2
BITMAP
79
09
11
21
C1
FF
08
14
63
ENDCHAR
STARTCHAR AE4A
ENCODING 12653
SWIDTH 1000 0
DWIDTH 10 0
BBX 8 8 1 -1
BITMAP
F9
09
11
11
E1
7F
22
3E
ENDCHAR
STARTCHAR AE4C
ENCODING 12654
SWIDTH 1000 0
DWIDTH 10 0
BBX 9 9 0 -2
BITMAP
FD00
2500
2500
2580
2500
4500
4900
0100
0100
ENDCHAR
STARTCHAR AE4D
ENCODING 12655
SWIDTH 1000 0
DWIDTH 10 0
BBX 8 8 1 -1
BITMAP
FA
2A
2B
4A
92
FE
02
02
ENDCHAR
STARTCHAR AE4E
ENCODING 12656
SWIDTH 1000 0
DWIDTH 10 0
BBX 8 9 1 -2
BITMAP
FA
2B
2A
4A
90
FE
22
22
22
ENDCHAR
STARTCHAR AE50
ENCODING 12657
SWIDTH 1000 0
DWIDTH 10 0
BBX 8 8 1 -1
BITMAP
FA
2A
2B
2A
52
A2
80
FE
ENDCHAR
STARTCHAR AE54
ENCODING 12658
SWIDTH 1000 0
DWIDTH 10 0
BBX 8 9 1 -1
BITMAP
02
DA
4B
4A
4A
90
7E
7E
7E
ENDCHAR
STARTCHAR AE56
ENCODING 12659
SWIDTH 1000 0
DWIDTH 10 0
BBX 8 9 1 -2
BITMAP
DA
4A
4B
4A
FE
2A
EA
EE
C0
ENDCHAR
STARTCHAR AE5C
ENCODING 12660
SWIDTH 1000 0
DWIDTH 10 0
BBX 8 8 1 -1
BITMAP
FA
2A
2B
4A
92
7E
42
7E
ENDCHAR
STARTCHAR AE5D
ENCODING 12661
SWIDTH 1000 0
DWIDTH 10 0
BBX 8 8 1 -1
BITMAP
FA
2A
2B
4A
D2
7E
42
7E
ENDCHAR
STARTCHAR AE5F
ENCODING 12662
SWIDTH 1000 0
DWIDTH 10 0
BBX 8 8 1 -1
BITMAP
FA
2A
2B
52
92
12
28
C6
ENDCHAR
STARTCHAR AE60
ENCODING 12663
SWIDTH 1000 0
DWIDTH 10 0
BBX 8 8 1 -1
BITMAP
FA
2A
2B
4A
92
00
66
99
ENDCHAR
STARTCHAR AE61
ENCODING 12664
SWIDTH 1000 0
DWIDTH 10 0
BBX 8 9 1 -2
BITMAP
DA
4A
4B
4A
92
7C
82
82
7C
ENDCHAR
STARTCHAR AE65
ENCODING 12665
SWIDTH 1000 0
DWIDTH 10 0
BBX 8 8 1 -1
BITMAP
FA
2A
2B
4A
92
FE
FE
FE
ENDCHAR
STARTCHAR AE68
ENCODING 12666
SWIDTH 1000 0
DWIDTH 10 0
BBX 8 9 1 -1
BITMAP
65
3D
2D
2D
4F
4D
8D
15
05
ENDCHAR
STARTCHAR AE69
ENCODING 12667
SWIDTH 1000 0
DWIDTH 10 0
BBX 8 8 1 -1
BITMAP
FD
2D
2F
4D
55
7F
01
01
ENDCHAR
STARTCHAR AE6C
ENCODING 12668
SWIDTH 1000 0
DWIDTH 10 0
BBX 8 9 1 -1
BITMAP
04
FD
2D
2F
2D
55
45
40
7F
ENDCHAR
STARTCHAR AE70
ENCODING 12669
SWIDTH 1000 0
DWIDTH 10 0
BBX 8 9 1 -1
BITMAP
04
D5
4F
55
55
FF
01
7F
7F
ENDCHAR
STARTCHAR AE78
ENCODING 12670
SWIDTH 1000 0
DWIDTH 10 0
BBX 8 8 1 -1
BITMAP
FD
2D
2F
55
D5
7F
41
7F
ENDCHAR
STARTCHAR AE79
ENCODING 12833
SWIDTH 1000 0
DWIDTH 10 0
BBX 7 8 2 -1
BITMAP
FA
5A
5E
9A
2A
82
FE
FE
ENDCHAR
STARTCHAR AE7B
ENCODING 12834
SWIDTH 1000 0
DWIDTH 10 0
BBX 9 8 0 -1
BITMAP
EE80
2680
2780
2680
4A80
0480
0C00
7380
ENDCHAR
STARTCHAR AE7C
ENCODING 12835
SWIDTH 1000 0
DWIDTH 10 0
BBX 9 8 0 -1
BITMAP
EE80
2680
2780
4680
0A80
0000
3300
4C80
ENDCHAR
STARTCHAR AE7D
ENCODING 12836
SWIDTH 1000 0
DWIDTH 10 0
BBX 7 9 2 -2
BITMAP
FA
5A
5E
9A
AA
7C
82
82
7C
ENDCHAR
STARTCHAR AE84
ENCODING 12837
SWIDTH 1000 0
DWIDTH 10 0
BBX 9 8 0 -1
BITMAP
FD00
2500
2580
2500
2500
2580
4900
0100
ENDCHAR
STARTCHAR AE85
ENCODING 12838
SWIDTH 1000 0
DWIDTH 10 0
BBX 8 8 1 -1
BITMAP
FA
2B
2A
4B
92
FE
02
02
ENDCHAR
STARTCHAR AE8C
ENCODING 12839
SWIDTH 1000 0
DWIDTH 10 0
BBX 8 9 1 -1
BITMAP
02
DB
4A
4B
4A
90
7E
7E
7E
ENDCHAR
STARTCHAR AEBC
ENCODING 12840
SWIDTH 1000 0
DWIDTH 10 0
BBX 8 8 1 -1
BITMAP
FD
25
25
27
25
45
49
01
ENDCHAR
STARTCHAR AEBD
ENCODING 12841
SWIDTH 1000 0
DWIDTH 10 0
BBX 8 8 1 -1
BITMAP
FD
25
27
49
89
7F
01
01
ENDCHAR
STARTCHAR AEBE
ENCODING 12842
SWIDTH 1000 0
DWIDTH 10 0
BBX 8 9 1 -2
BITMAP
FD
25
27
49
89
7F
11
11
11
ENDCHAR
STARTCHAR AEC0
ENCODING 12843
SWIDTH 1000 0
DWIDTH 10 0
BBX 8 9 1 -1
BITMAP
01
FD
25
27
29
51
41
40
7F
ENDCHAR
STARTCHAR AEC4
ENCODING 12844
SWIDTH 1000 0
DWIDTH 10 0
BBX 8 8 1 -1
BITMAP
FD
25
27
49
91
7F
7F
7F
ENDCHAR
STARTCHAR AECC
ENCODING 12845
SWIDTH 1000 0
DWIDTH 10 0
BBX 8 8 1 -1
BITMAP
FD
25
27
49
89
7F
41
7F
ENDCHAR
STARTCHAR AECD
ENCODING 12846
SWIDTH 1000 0
DWIDTH 10 0
BBX 8 8 1 -1
BITMAP
FD
25
27
49
C9
7F
41
7F
ENDCHAR
STARTCHAR AECF
ENCODING 12847
SWIDTH 1000 0
DWIDTH 10 0
BBX 8 9 1 -1
BITMAP
01
FD
25
27
49
89
09
14
63
ENDCHAR
STARTCHAR AED0
ENCODING 12848
SWIDTH 1000 0
DWIDTH 10 0
BBX 8 9 1 -1
BITMAP
01
F9
29
2B
49
91
00
62
95
ENDCHAR
STARTCHAR AED1
ENCODING 12849
SWIDTH 1000 0
DWIDTH 10 0
BBX 8 10 1 -2
BITMAP
01
FD
25
27
49
D1
3F
41
41
3E
ENDCHAR
STARTCHAR AED8
ENCODING 12850
SWIDTH 1000 0
DWIDTH 10 0
BBX 8 10 1 -2
BITMAP
01
DD
4D
4D
4D
4D
4D
95
05
04
ENDCHAR
STARTCHAR AED9
ENCODING 12851
SWIDTH 1000 0
DWIDTH 10 0
BBX 8 9 1 -1
BITMAP
04
FD
2D
2D
4D
95
7F
01
01
ENDCHAR
STARTCHAR AEDC
ENCODING 12852
SWIDTH 1000 0
DWIDTH 10 0
BBX 9 8 0 -1
BITMAP
EE80
2680
2680
2680
4A80
2280
2000
3F80
ENDCHAR
STARTCHAR AEE8
ENCODING 12853
SWIDTH 1000 0
DWIDTH 10 0
BBX 9 9 0 -1
BITMAP
0200
EE80
2680
2680
4680
4A80
3F80
2080
3F80
ENDCHAR
STARTCHAR AEEB
ENCODING 12854
SWIDTH 1000 0
DWIDTH 10 0
BBX 9 8 0 -1
BITMAP
EE80
2680
2680
2680
4A80
8400
0A00
3180
ENDCHAR
STARTCHAR AEED
ENCODING 12855
SWIDTH 1000 0
DWIDTH 10 0
BBX 8 9 1 -2
BITMAP
FD
2D
2D
4D
D5
3E
41
41
3E
ENDCHAR
STARTCHAR AEF4
ENCODING 12856
SWIDTH 1000 0
DWIDTH 10 0
BBX 8 10 1 -2
BITMAP
01
FD
25
27
25
25
27
49
01
01
ENDCHAR
STARTCHAR AEF8
ENCODING 12857
SWIDTH 1000 0
DWIDTH 10 0
BBX 8 8 1 -1
BITMAP
FD
27
25
27
49
51
40
7F
ENDCHAR
STARTCHAR AEFC
ENCODING 12858
SWIDTH 1000 0
DWIDTH 10 0
BBX 8 8 1 -1
BITMAP
FF
25
27
49
90
7F
7F
7F
ENDCHAR
STARTCHAR AF07
ENCODING 12859
SWIDTH 1000 0
DWIDTH 10 0
BBX 8 9 1 -2
BITMAP
F9
2B
29
4B
91
09
14
62
01
ENDCHAR
STARTCHAR AF08
ENCODING 12860
SWIDTH 1000 0
DWIDTH 10 0
BBX 8 8 1 -1
BITMAP
D9
2B
49
53
81
02
62
95
ENDCHAR
STARTCHAR AF0D
ENCODING 12861
SWIDTH 1000 0
DWIDTH 10 0
BBX 8 8 1 -1
BITMAP
F9
27
29
4B
91
7F
7F
7F
ENDCHAR
STARTCHAR AF10
ENCODING 12862
SWIDTH 1000 0
DWIDTH 10 0
BBX 8 9 1 -1
BITMAP
01
7D
2D
2D
2D
4D
4D
95
05
ENDCHAR
STARTCHAR AF2C
ENCODING 12863
SWIDTH 1000 0
DWIDTH 10 0
BBX 8 8 1 -1
BITMAP
7E
12
12
12
1A
08
08
FF
ENDCHAR
STARTCHAR AF2D
ENCODING 12864
SWIDTH 1000 0
DWIDTH 10 0
BBX 8 8 1 -1
BITMAP
EE
22
2A
08
FF
7E
02
02
ENDCHAR
STARTCHAR AF30
ENCODING 12865
SWIDTH 1000 0
DWIDTH 10 0
BBX 8 8 1 -1
BITMAP
EE
22
2A
08
FF
40
40
7F
ENDCHAR
STARTCHAR AF32
ENCODING 12866
SWIDTH 1000 0
DWIDTH 10 0
BBX 8 8 1 -1
BITMAP
EE
2A
2A
FF
86
8F
EE
0E
ENDCHAR
STARTCHAR AF34
ENCODING 12867
SWIDTH 1000 0
DWIDTH 10 0
BBX 8 8 1 -1
BITMAP
EE
2A
2A
FF
00
7E
7E
7E
ENDCHAR
STARTCHAR AF3C
ENCODING 12868
SWIDTH 1000 0
DWIDTH 10 0
BBX 8 8 1 -1
BITMAP
EE
2A
2A
FF
00
7E
42
7E
ENDCHAR
STARTCHAR AF3D
ENCODING 12869
SWIDTH 1000 0
DWIDTH 10 0
BBX 8 8 1 -1
BITMAP
EE
2A
2A
FF
42
7E
42
7E
ENDCHAR
STARTCHAR AF3F
ENCODING 12870
SWIDTH 1000 0
DWIDTH 10 0
BBX 8 8 1 -1
BITMAP
7F
11
19
19
FF
08
18
66
ENDCHAR
STARTCHAR AF41
ENCODING 12871
SWIDTH 1000 0
DWIDTH 10 0
BBX 8 9 1 -2
BITMAP
7F
11
19
19
FF
3E
41
41
3E
ENDCHAR
STARTCHAR AF42
ENCODING 12872
SWIDTH 1000 0
DWIDTH 10 0
BBX 8 8 1 -1
BITMAP
EE
22
2A
2A
FF
7F
18
66
ENDCHAR
STARTCHAR AF43
ENCODING 12873
SWIDTH 1000 0
DWIDTH 10 0
BBX 8 8 1 -1
BITMAP
EE
FF
22
3E
00
7E
18
66
ENDCHAR
STARTCHAR AF48
ENCODING 12874
SWIDTH 1000 0
DWIDTH 10 0
BBX 9 9 0 -2
BITMAP
FD00
2500
2500
2580
1500
1100
FF00
0100
0100
ENDCHAR
STARTCHAR AF49
ENCODING 12875
SWIDTH 1000 0
DWIDTH 10 0
BBX 8 8 1 -1
BITMAP
DA
4A
5B
5A
E6
FE
02
02
ENDCHAR
STARTCHAR AF50
ENCODING 12876
SWIDTH 1000 0
DWIDTH 10 0
BBX 9 8 0 -1
BITMAP
6D00
1500
1580
FF00
0E00
3F00
3F00
3F00
ENDCHAR
STARTCHAR AF5C
ENCODING 12877
SWIDTH 1000 0
DWIDTH 10 0
BBX 8 8 1 -1
BITMAP
DA
4A
5B
5A
3E
40
46
B9
ENDCHAR
STARTCHAR AF5D
ENCODING 12878
SWIDTH 1000 0
DWIDTH 10 0
BBX 8 9 1 -2
BITMAP
DA
4A
5B
5A
FE
7E
82
82
7C
ENDCHAR
STARTCHAR AF64
ENCODING 12879
SWIDTH 1000 0
DWIDTH 10 0
BBX 8 10 1 -2
BITMAP
C1
5D
4D
4D
4F
2D
25
FD
05
05
ENDCHAR
STARTCHAR AF65
ENCODING 12880
SWIDTH 1000 0
DWIDTH 10 0
BBX 8 8 1 -1
BITMAP
DD
4D
4F
6D
FD
7F
01
01
ENDCHAR
STARTCHAR AF79
ENCODING 12881
SWIDTH 1000 0
DWIDTH 10 0
BBX 8 9 1 -2
BITMAP
DD
4D
4F
6D
FD
3E
41
41
3E
ENDCHAR
STARTCHAR AF80
ENCODING 12882
SWIDTH 1000 0
DWIDTH 10 0
BBX 8 10 1 -2
BITMAP
E0
3D
25
25
25
15
11
FF
01
01
ENDCHAR
STARTCHAR AF84
ENCODING 12883
SWIDTH 1000 0
DWIDTH 10 0
BBX 8 8 1 -1
BITMAP
FD
25
35
15
FF
41
40
7F
ENDCHAR
STARTCHAR AF88
ENCODING 12884
SWIDTH 1000 0
DWIDTH 10 0
BBX 8 9 1 -1
BITMAP
DC
25
25
15
FF
01
7F
7F
7F
ENDCHAR
STARTCHAR AF90
ENCODING 12885
SWIDTH 1000 0
DWIDTH 10 0
BBX 8 9 1 -1
BITMAP
FC
25
25
15
FF
00
7F
41
7F
ENDCHAR
STARTCHAR AF91
ENCODING 12886
SWIDTH 1000 0
DWIDTH 10 0
BBX 8 8 1 -1
BITMAP
FD
25
35
FF
00
41
7F
7F
ENDCHAR
STARTCHAR AF95
ENCODING 12887
SWIDTH 1000 0
DWIDTH 10 0
BBX 8 9 1 -2
BITMAP
FD
35
35
1F
F1
3E
41
41
3E
ENDCHAR
STARTCHAR AF9C
ENCODING 12888
SWIDTH 1000 0
DWIDTH 10 0
BBX 8 8 1 -1
BITMAP
EF
21
21
21
55
55
14
FF
ENDCHAR
STARTCHAR AFB8
ENCODING 12889
SWIDTH 1000 0
DWIDTH 10 0
BBX 8 8 1 -1
BITMAP
FE
12
12
12
FF
08
08
08
ENDCHAR
STARTCHAR AFB9
ENCODING 12890
SWIDTH 1000 0
DWIDTH 10 0
BBX 8 8 1 -1
BITMAP
FE
12
12
FF
08
7E
02
02
ENDCHAR
STARTCHAR AFBC
ENCODING 12891
SWIDTH 1000 0
DWIDTH 10 0
BBX 8 8 1 -1
BITMAP
FE
12
12
FF
08
48
40
7F
ENDCHAR
STARTCHAR AFC0
ENCODING 12892
SWIDTH 1000 0
DWIDTH 10 0
BBX 8 8 1 -1
BITMAP
FE
12
22
FF
7E
02
7E
7E
ENDCHAR
STARTCHAR AFC7
ENCODING 12893
SWIDTH 1000 0
DWIDTH 10 0
BBX 9 8 1 -1
BITMAP
7700
1100
1100
FF80
E600
2F00
EF00
EF00
ENDCHAR
STARTCHAR AFC8
ENCODING 12894
SWIDTH 1000 0
DWIDTH 10 0
BBX 8 8 1 -1
BITMAP
FE
12
12
FF
08
7F
41
7F
ENDCHAR
STARTCHAR AFC9
ENCODING 12895
SWIDTH 1000 0
DWIDTH 10 0
BBX 8 8 1 -1
BITMAP
FE
12
12
FF
4A
7E
42
7E
ENDCHAR
STARTCHAR AFCB
ENCODING 12896
SWIDTH 1000 0
DWIDTH 10 0
BBX 8 9 1 -2
BITMAP
7E
12
12
FF
08
00
18
26
40
ENDCHAR
STARTCHAR AFCD
ENCODING 12897
SWIDTH 1000 0
DWIDTH 10 0
BBX 8 9 1 -2
BITMAP
FE
12
12
FF
08
3E
41
41
3E
ENDCHAR
STARTCHAR AFCE
ENCODING 12898
SWIDTH 1000 0
DWIDTH 10 0
BBX 8 9 1 -2
BITMAP
FE
12
12
FF
08
7E
18
26
40
ENDCHAR
STARTCHAR AFD4
ENCODING 12899
SWIDTH 1000 0
DWIDTH 10 0
BBX 8 10 1 -2
BITMAP
01
FD
25
25
25
E7
1F
11
11
10
ENDCHAR
STARTCHAR AFDC
ENCODING 12900
SWIDTH 1000 0
DWIDTH 10 0
BBX 8 8 1 -1
BITMAP
FD
25
FD
17
00
7F
7F
7F
ENDCHAR
STARTCHAR AFE8
ENCODING 12901
SWIDTH 1000 0
DWIDTH 10 0
BBX 8 8 1 -1
BITMAP
ED
3D
39
F7
11
12
66
99
ENDCHAR
STARTCHAR AFE9
ENCODING 12902
SWIDTH 1000 0
DWIDTH 10 0
BBX 8 9 1 -2
BITMAP
FD
25
25
FF
17
3F
41
41
3E
ENDCHAR
STARTCHAR AFF0
ENCODING 12903
SWIDTH 1000 0
DWIDTH 10 0
BBX 7 9 2 -2
BITMAP
FA
5A
5A
5A
FA
7A
4A
4A
02
ENDCHAR
STARTCHAR AFF1
ENCODING 12904
SWIDTH 1000 0
DWIDTH 10 0
BBX 8 10 1 -2
BITMAP
05
DD
4D
4D
7D
24
7F
01
01
01
ENDCHAR
STARTCHAR AFF4
ENCODING 12905
SWIDTH 1000 0
DWIDTH 10 0
BBX 8 9 1 -1
BITMAP
01
F5
55
55
55
3D
65
44
7F
ENDCHAR
STARTCHAR AFF8
ENCODING 12906
SWIDTH 1000 0
DWIDTH 10 0
BBX 8 9 1 -1
BITMAP
01
D5
55
55
FD
20
7F
7F
7F
ENDCHAR
STARTCHAR B000
ENCODING 12907
SWIDTH 1000 0
DWIDTH 10 0
BBX 8 9 1 -1
BITMAP
05
DD
4D
4D
FD
24
7F
41
7F
ENDCHAR
STARTCHAR B001
ENCODING 12908
SWIDTH 1000 0
DWIDTH 10 0
BBX 8 9 1 -1
BITMAP
05
DD
4D
4D
FD
24
41
7F
7F
ENDCHAR
STARTCHAR B004
ENCODING 12909
SWIDTH 1000 0
DWIDTH 10 0
BBX 8 9 1 -1
BITMAP
05
F5
55
55
FD
24
20
62
15
ENDCHAR
STARTCHAR B00C
ENCODING 12910
SWIDTH 1000 0
DWIDTH 10 0
BBX 8 9 1 -2
BITMAP
FD
25
25
25
FF
11
11
11
10
ENDCHAR
STARTCHAR B010
ENCODING 12911
SWIDTH 1000 0
DWIDTH 10 0
BBX 8 9 1 -1
BITMAP
01
FD
25
25
FD
13
51
40
7F
ENDCHAR
STARTCHAR B014
ENCODING 12912
SWIDTH 1000 0
DWIDTH 10 0
BBX 8 8 1 -1
BITMAP
FD
25
25
FF
11
7F
7F
7F
ENDCHAR
STARTCHAR B01C
ENCODING 12913
SWIDTH 1000 0
DWIDTH 10 0
BBX 8 8 1 -1
BITMAP
FD
25
25
FF
11
7F
41
7F
ENDCHAR
STARTCHAR B01D
ENCODING 12914
SWIDTH 1000 0
DWIDTH 10 0
BBX 8 8 1 -1
BITMAP
FD
25
25
FF
11
51
7F
7F
ENDCHAR
STARTCHAR B028
ENCODING 12915
SWIDTH 1000 0
DWIDTH 10 0
BBX 8 9 1 -2
BITMAP
7E
12
12
12
FF
24
24
24
24
ENDCHAR
STARTCHAR B044
ENCODING 12916
SWIDTH 1000 0
DWIDTH 10 0
BBX 9 8 1 -1
BITMAP
7F00
1100
1100
1100
1100
1100
1100
FF80
ENDCHAR
STARTCHAR B045
ENCODING 12917
SWIDTH 1000 0
DWIDTH 10 0
BBX 8 9 1 -2
BITMAP
7F
11
12
FF
00
FE
02
02
02
ENDCHAR
STARTCHAR B048
ENCODING 12918
SWIDTH 1000 0
DWIDTH 10 0
BBX 9 8 1 -1
BITMAP
7F00
1100
1100
1100
FF80
4000
4000
7F00
ENDCHAR
STARTCHAR B04A
ENCODING 12919
SWIDTH 1000 0
DWIDTH 10 0
BBX 9 9 1 -2
BITMAP
7F00
1100
1100
FF80
4600
4F00
4E00
7900
0E00
ENDCHAR
STARTCHAR B04C
ENCODING 12920
SWIDTH 1000 0
DWIDTH 10 0
BBX 9 8 1 -1
BITMAP
7700
1100
1100
FF80
7E00
0200
7E00
7E00
ENDCHAR
STARTCHAR B04E
ENCODING 12921
SWIDTH 1000 0
DWIDTH 10 0
BBX 9 9 1 -2
BITMAP
7F00
1100
1100
FF80
6F00
2900
6900
7F00
4000
ENDCHAR
STARTCHAR B053
ENCODING 12922
SWIDTH 1000 0
DWIDTH 10 0
BBX 9 8 1 -1
BITMAP
7F00
1100
1100
FF80
E600
2F00
EF00
EE00
ENDCHAR
STARTCHAR B054
ENCODING 12923
SWIDTH 1000 0
DWIDTH 10 0
BBX 9 8 1 -1
BITMAP
7F00
1100
1100
FF80
0000
7F00
4100
7F00
ENDCHAR
STARTCHAR B055
ENCODING 12924
SWIDTH 1000 0
DWIDTH 10 0
BBX 8 8 1 -1
BITMAP
7F
11
12
FF
42
7E
42
7E
ENDCHAR
STARTCHAR B057
ENCODING 12925
SWIDTH 1000 0
DWIDTH 10 0
BBX 9 9 1 -2
BITMAP
7F00
1100
1100
1100
FF80
0800
1800
6600
0100
ENDCHAR
STARTCHAR B059
ENCODING 12926
SWIDTH 1000 0
DWIDTH 10 0
BBX 9 9 1 -2
BITMAP
7F00
1100
1100
FF80
0000
3E00
4100
4100
3E00
ENDCHAR
STARTCHAR B05D
ENCODING 13089
SWIDTH 1000 0
DWIDTH 10 0
BBX 9 8 1 -1
BITMAP
7F00
1100
1100
FF80
7F00
4000
7F00
7F00
ENDCHAR
STARTCHAR B07C
ENCODING 13090
SWIDTH 1000 0
DWIDTH 10 0
BBX 8 8 1 -1
BITMAP
FD
25
25
25
25
25
49
01
ENDCHAR
STARTCHAR B07D
ENCODING 13091
SWIDTH 1000 0
DWIDTH 10 0
BBX 8 8 1 -1
BITMAP
ED
25
25
45
C9
7F
01
01
ENDCHAR
STARTCHAR B080
ENCODING 13092
SWIDTH 1000 0
DWIDTH 10 0
BBX 8 8 1 -1
BITMAP
FD
25
25
25
49
51
40
7F
ENDCHAR
STARTCHAR B084
ENCODING 13093
SWIDTH 1000 0
DWIDTH 10 0
BBX 8 8 1 -1
BITMAP
FD
25
25
49
91
7F
7F
7F
ENDCHAR
STARTCHAR B08C
ENCODING 13094
SWIDTH 1000 0
DWIDTH 10 0
BBX 8 8 1 -1
BITMAP
FD
25
25
49
88
7F
41
7F
ENDCHAR
STARTCHAR B08D
ENCODING 13095
SWIDTH 1000 0
DWIDTH 10 0
BBX 8 8 1 -1
BITMAP
FD
25
25
49
D9
7F
41
7F
ENDCHAR
STARTCHAR B08F
ENCODING 13096
SWIDTH 1000 0
DWIDTH 10 0
BBX 8 9 1 -2
BITMAP
FD
25
25
49
89
00
08
34
C3
ENDCHAR
STARTCHAR B091
ENCODING 13097
SWIDTH 1000 0
DWIDTH 10 0
BBX 8 9 1 -2
BITMAP
FD
25
25
29
C9
3E
41
41
3E
ENDCHAR
STARTCHAR B098
ENCODING 13098
SWIDTH 1000 0
DWIDTH 10 0
BBX 9 9 1 -1
BITMAP
8200
8200
8200
8200
8380
8200
FE00
0200
0200
ENDCHAR
STARTCHAR B099
ENCODING 13099
SWIDTH 1000 0
DWIDTH 10 0
BBX 9 9 0 -1
BITMAP
8100
8100
8180
8100
FF00
0100
7F00
0100
0100
ENDCHAR
STARTCHAR B09A
ENCODING 13100
SWIDTH 1000 0
DWIDTH 10 0
BBX 9 10 0 -2
BITMAP
0100
8100
8180
8100
FF00
0100
FF00
1100
1100
1100
ENDCHAR
STARTCHAR B09C
ENCODING 13101
SWIDTH 1000 0
DWIDTH 10 0
BBX 9 9 0 -1
BITMAP
8000
8100
8100
8180
FF00
0100
4100
4000
7F00
ENDCHAR
STARTCHAR B09F
ENCODING 13102
SWIDTH 1000 0
DWIDTH 10 0
BBX 9 8 0 -1
BITMAP
8100
8180
8100
FF00
0100
7F00
4000
7F00
ENDCHAR
STARTCHAR B0A0
ENCODING 13103
SWIDTH 1000 0
DWIDTH 10 0
BBX 9 8 0 -1
BITMAP
8100
8180
8100
FF00
7F00
0100
7F00
7F00
ENDCHAR
STARTCHAR B0A1
ENCODING 13104
SWIDTH 1000 0
DWIDTH 10 0
BBX 9 8 0 -1
BITMAP
8100
8180
8100
FF00
7F00
1100
7100
7900
ENDCHAR
STARTCHAR B0A2
ENCODING 13105
SWIDTH 1000 0
DWIDTH 10 0
BBX 9 9 0 -2
BITMAP
8100
8180
8100
FF00
7700
1500
7500
7700
6000
ENDCHAR
STARTCHAR B0A8
ENCODING 13106
SWIDTH 1000 0
DWIDTH 10 0
BBX 9 8 0 -1
BITMAP
8100
8180
8100
FF00
0100
7F00
4100
7F00
ENDCHAR
STARTCHAR B0A9
ENCODING 13107
SWIDTH 1000 0
DWIDTH 10 0
BBX 9 8 0 -1
BITMAP
8100
8180
8100
FF00
4100
7F00
4100
7F00
ENDCHAR
STARTCHAR B0AB
ENCODING 13108
SWIDTH 1000 0
DWIDTH 10 0
BBX 9 9 0 -1
BITMAP
8000
8100
8100
8180
FF00
0100
0800
1400
6300
ENDCHAR
STARTCHAR B0AC
ENCODING 13109
SWIDTH 1000 0
DWIDTH 10 0
BBX 8 10 1 -2
BITMAP
80
82
83
82
FE
02
44
44
AA
01
ENDCHAR
STARTCHAR B0AD
ENCODING 13110
SWIDTH 1000 0
DWIDTH 10 0
BBX 9 10 0 -2
BITMAP
8000
8100
8180
8100
FF00
0100
3E00
4100
4100
3E00
ENDCHAR
STARTCHAR B0AE
ENCODING 13111
SWIDTH 1000 0
DWIDTH 10 0
BBX 8 9 1 -2
BITMAP
82
83
82
FE
02
FE
10
28
C6
ENDCHAR
STARTCHAR B0AF
ENCODING 13112
SWIDTH 1000 0
DWIDTH 10 0
BBX 9 8 0 -1
BITMAP
8100
8180
8100
FF00
1D00
7F00
1800
6700
ENDCHAR
STARTCHAR B0B1
ENCODING 13113
SWIDTH 1000 0
DWIDTH 10 0
BBX 9 8 0 -1
BITMAP
8100
8180
8100
FF00
7F00
4000
7F00
7F00
ENDCHAR
STARTCHAR B0B3
ENCODING 13114
SWIDTH 1000 0
DWIDTH 10 0
BBX 9 9 0 -2
BITMAP
8100
8180
8100
FF00
1D00
7F00
3E00
4100
3E00
ENDCHAR
STARTCHAR B0B4
ENCODING 13115
SWIDTH 1000 0
DWIDTH 10 0
BBX 8 10 1 -2
BITMAP
09
89
89
89
8F
89
89
79
09
09
ENDCHAR
STARTCHAR B0B5
ENCODING 13116
SWIDTH 1000 0
DWIDTH 10 0
BBX 8 9 1 -1
BITMAP
80
85
85
87
FD
05
7F
01
01
ENDCHAR
STARTCHAR B0B8
ENCODING 13117
SWIDTH 1000 0
DWIDTH 10 0
BBX 8 9 1 -1
BITMAP
08
89
89
8F
89
F9
49
49
7F
ENDCHAR
STARTCHAR B0BC
ENCODING 13118
SWIDTH 1000 0
DWIDTH 10 0
BBX 8 8 1 -1
BITMAP
89
87
85
FD
7E
01
7E
7F
ENDCHAR
STARTCHAR B0C4
ENCODING 13119
SWIDTH 1000 0
DWIDTH 10 0
BBX 8 9 1 -1
BITMAP
84
85
87
85
FD
05
7F
41
7F
ENDCHAR
STARTCHAR B0C5
ENCODING 13120
SWIDTH 1000 0
DWIDTH 10 0
BBX 8 9 1 -1
BITMAP
84
85
87
85
FD
41
7F
41
7F
ENDCHAR
STARTCHAR B0C7
ENCODING 13121
SWIDTH 1000 0
DWIDTH 10 0
BBX 8 9 1 -1
BITMAP
80
89
89
8F
F9
09
09
18
66
ENDCHAR
STARTCHAR B0C8
ENCODING 13122
SWIDTH 1000 0
DWIDTH 10 0
BBX 8 9 1 -1
BITMAP
84
85
87
85
FD
05
00
66
99
ENDCHAR
STARTCHAR B0C9
ENCODING 13123
SWIDTH 1000 0
DWIDTH 10 0
BBX 8 10 1 -2
BITMAP
80
85
85
87
FD
05
3F
41
41
3E
ENDCHAR
STARTCHAR B0D0
ENCODING 13124
SWIDTH 1000 0
DWIDTH 10 0
BBX 9 9 1 -1
BITMAP
8200
8200
8380
8200
8200
8380
FE00
0200
0200
ENDCHAR
STARTCHAR B0D1
ENCODING 13125
SWIDTH 1000 0
DWIDTH 10 0
BBX 9 9 0 -1
BITMAP
8100
8180
8100
8100
FF80
0100
7F00
0100
0100
ENDCHAR
STARTCHAR B0D4
ENCODING 13126
SWIDTH 1000 0
DWIDTH 10 0
BBX 9 9 0 -1
BITMAP
8100
8100
8180
8100
FF80
0100
4100
4000
7F00
ENDCHAR
STARTCHAR B0D8
ENCODING 13127
SWIDTH 1000 0
DWIDTH 10 0
BBX 9 9 0 -1
BITMAP
0100
8180
8100
8F80
F100
7F00
0100
7F00
7F00
ENDCHAR
STARTCHAR B0E0
ENCODING 13128
SWIDTH 1000 0
DWIDTH 10 0
BBX 9 9 0 -1
BITMAP
0100
8180
8100
8180
FF00
0100
7F00
4100
7F00
ENDCHAR
STARTCHAR B0E5
ENCODING 13129
SWIDTH 1000 0
DWIDTH 10 0
BBX 9 10 0 -2
BITMAP
8100
8180
8100
8100
FF80
0100
3E00
4100
4100
3E00
ENDCHAR
STARTCHAR B108
ENCODING 13130
SWIDTH 1000 0
DWIDTH 10 0
BBX 8 9 1 -1
BITMAP
01
81
81
8F
81
81
85
79
01
ENDCHAR
STARTCHAR B109
ENCODING 13131
SWIDTH 1000 0
DWIDTH 10 0
BBX 8 9 1 -1
BITMAP
01
81
8F
81
9D
61
7F
01
01
ENDCHAR
STARTCHAR B10B
ENCODING 13132
SWIDTH 1000 0
DWIDTH 10 0
BBX 8 10 1 -2
BITMAP
01
81
8F
81
FD
01
F0
16
19
10
ENDCHAR
STARTCHAR B10C
ENCODING 13133
SWIDTH 1000 0
DWIDTH 10 0
BBX 8 9 1 -1
BITMAP
01
81
8F
81
85
79
41
40
7F
ENDCHAR
STARTCHAR B110
ENCODING 13134
SWIDTH 1000 0
DWIDTH 10 0
BBX 8 9 1 -1
BITMAP
01
81
8F
81
79
7F
01
7F
7F
ENDCHAR
STARTCHAR B112
ENCODING 13135
SWIDTH 1000 0
DWIDTH 10 0
BBX 8 10 1 -2
BITMAP
01
81
8F
81
8D
7F
19
79
7F
60
ENDCHAR
STARTCHAR B113
ENCODING 13136
SWIDTH 1000 0
DWIDTH 10 0
BBX 8 9 1 -1
BITMAP
01
81
8F
81
79
E9
1F
E9
FF
ENDCHAR
STARTCHAR B118
ENCODING 13137
SWIDTH 1000 0
DWIDTH 10 0
BBX 8 8 1 -1
BITMAP
81
8F
81
FD
01
7F
41
7F
ENDCHAR
STARTCHAR B119
ENCODING 13138
SWIDTH 1000 0
DWIDTH 10 0
BBX 8 8 1 -1
BITMAP
81
8F
81
FD
41
7F
41
7F
ENDCHAR
STARTCHAR B11B
ENCODING 13139
SWIDTH 1000 0
DWIDTH 10 0
BBX 8 9 1 -1
BITMAP
01
81
8F
81
85
79
09
18
66
ENDCHAR
STARTCHAR B11C
ENCODING 13140
SWIDTH 1000 0
DWIDTH 10 0
BBX 8 9 1 -1
BITMAP
01
81
8F
81
DD
21
00
66
99
ENDCHAR
STARTCHAR B11D
ENCODING 13141
SWIDTH 1000 0
DWIDTH 10 0
BBX 8 10 1 -2
BITMAP
01
81
8F
81
8D
71
3E
41
41
3E
ENDCHAR
STARTCHAR B123
ENCODING 13142
SWIDTH 1000 0
DWIDTH 10 0
BBX 8 10 1 -2
BITMAP
01
81
8F
81
79
3D
FF
7E
42
7E
ENDCHAR
STARTCHAR B124
ENCODING 13143
SWIDTH 1000 0
DWIDTH 10 0
BBX 8 9 1 -1
BITMAP
08
89
89
B9
89
89
89
69
09
ENDCHAR
STARTCHAR B125
ENCODING 13144
SWIDTH 1000 0
DWIDTH 10 0
BBX 8 9 1 -1
BITMAP
05
85
9D
85
95
64
7F
01
01
ENDCHAR
STARTCHAR B128
ENCODING 13145
SWIDTH 1000 0
DWIDTH 10 0
BBX 8 9 1 -1
BITMAP
04
85
9D
85
85
65
45
40
7F
ENDCHAR
STARTCHAR B12C
ENCODING 13146
SWIDTH 1000 0
DWIDTH 10 0
BBX 8 8 1 -1
BITMAP
85
9D
85
75
7F
01
7F
7F
ENDCHAR
STARTCHAR B134
ENCODING 13147
SWIDTH 1000 0
DWIDTH 10 0
BBX 8 9 1 -1
BITMAP
04
85
9D
85
85
65
7F
41
7F
ENDCHAR
STARTCHAR B135
ENCODING 13148
SWIDTH 1000 0
DWIDTH 10 0
BBX 8 9 1 -1
BITMAP
05
85
9D
85
FD
04
41
7F
7F
ENDCHAR
STARTCHAR B137
ENCODING 13149
SWIDTH 1000 0
DWIDTH 10 0
BBX 8 10 1 -2
BITMAP
08
89
B9
89
89
69
10
28
C4
02
ENDCHAR
STARTCHAR B138
ENCODING 13150
SWIDTH 1000 0
DWIDTH 10 0
BBX 8 9 1 -1
BITMAP
05
85
9D
85
85
64
00
66
99
ENDCHAR
STARTCHAR B139
ENCODING 13151
SWIDTH 1000 0
DWIDTH 10 0
BBX 8 10 1 -2
BITMAP
04
85
9D
85
F5
05
3E
41
41
3E
ENDCHAR
STARTCHAR B140
ENCODING 13152
SWIDTH 1000 0
DWIDTH 10 0
BBX 8 8 1 -1
BITMAP
81
8F
81
8F
81
89
71
01
ENDCHAR
STARTCHAR B141
ENCODING 13153
SWIDTH 1000 0
DWIDTH 10 0
BBX 8 9 1 -1
BITMAP
80
87
81
87
F9
01
7F
01
01
ENDCHAR
STARTCHAR B144
ENCODING 13154
SWIDTH 1000 0
DWIDTH 10 0
BBX 8 8 1 -1
BITMAP
87
81
87
81
F9
41
40
7F
ENDCHAR
STARTCHAR B148
ENCODING 13155
SWIDTH 1000 0
DWIDTH 10 0
BBX 8 8 1 -1
BITMAP
8F
81
8F
F9
7E
01
7F
7F
ENDCHAR
STARTCHAR B150
ENCODING 13156
SWIDTH 1000 0
DWIDTH 10 0
BBX 8 8 1 -1
BITMAP
87
81
87
F9
01
7F
41
7F
ENDCHAR
STARTCHAR B151
ENCODING 13157
SWIDTH 1000 0
DWIDTH 10 0
BBX 8 8 1 -1
BITMAP
87
81
87
F9
41
7F
41
7F
ENDCHAR
STARTCHAR B154
ENCODING 13158
SWIDTH 1000 0
DWIDTH 10 0
BBX 8 9 1 -1
BITMAP
80
87
81
87
F9
01
00
66
99
ENDCHAR
STARTCHAR B155
ENCODING 13159
SWIDTH 1000 0
DWIDTH 10 0
BBX 8 10 1 -2
BITMAP
80
87
81
87
F9
01
3E
41
41
3E
ENDCHAR
STARTCHAR B158
ENCODING 13160
SWIDTH 1000 0
DWIDTH 10 0
BBX 8 9 1 -1
BITMAP
80
87
81
87
F9
01
7F
7F
01
ENDCHAR
STARTCHAR B15C
ENCODING 13161
SWIDTH 1000 0
DWIDTH 10 0
BBX 8 9 1 -1
BITMAP
04
85
9D
85
9D
85
85
65
05
ENDCHAR
STARTCHAR B160
ENCODING 13162
SWIDTH 1000 0
DWIDTH 10 0
BBX 8 9 1 -1
BITMAP
04
9D
85
9D
85
65
45
41
7F
ENDCHAR
STARTCHAR B178
ENCODING 13163
SWIDTH 1000 0
DWIDTH 10 0
BBX 9 9 0 -1
BITMAP
4000
4000
4000
4000
7F00
0000
0800
0800
FF80
ENDCHAR
STARTCHAR B179
ENCODING 13164
SWIDTH 1000 0
DWIDTH 10 0
BBX 9 10 0 -2
BITMAP
4000
4000
4000
7F00
0800
FF80
7F00
0100
0100
0100
ENDCHAR
STARTCHAR B17C
ENCODING 13165
SWIDTH 1000 0
DWIDTH 10 0
BBX 9 9 1 -1
BITMAP
8000
8000
8000
FF00
0800
FF80
8000
8000
FE00
ENDCHAR
STARTCHAR B180
ENCODING 13166
SWIDTH 1000 0
DWIDTH 10 0
BBX 8 7 1 -1
BITMAP
80
7F
FF
7E
02
7E
7E
ENDCHAR
STARTCHAR B182
ENCODING 13167
SWIDTH 1000 0
DWIDTH 10 0
BBX 9 9 1 -2
BITMAP
4000
4000
7F00
FF80
7F00
1900
7900
7F00
6000
ENDCHAR
STARTCHAR B188
ENCODING 13168
SWIDTH 1000 0
DWIDTH 10 0
BBX 9 9 1 -1
BITMAP
4000
4000
4000
7F00
FF80
0000
7E00
4200
7E00
ENDCHAR
STARTCHAR B189
ENCODING 13169
SWIDTH 1000 0
DWIDTH 10 0
BBX 9 8 1 -1
BITMAP
4000
4000
7E00
FF80
0000
4200
7E00
7E00
ENDCHAR
STARTCHAR B18B
ENCODING 13170
SWIDTH 1000 0
DWIDTH 10 0
BBX 9 9 1 -1
BITMAP
4000
4000
4000
7F00
0800
FF80
0800
1800
6600
ENDCHAR
STARTCHAR B18D
ENCODING 13171
SWIDTH 1000 0
DWIDTH 10 0
BBX 9 10 1 -2
BITMAP
4000
4000
4000
7F00
0800
FF80
3C00
4300
4100
3E00
ENDCHAR
STARTCHAR B192
ENCODING 13172
SWIDTH 1000 0
DWIDTH 10 0
BBX 9 9 1 -1
BITMAP
4000
4000
4000
7F00
FF80
0000
7E00
2400
3C00
ENDCHAR
STARTCHAR B193
ENCODING 13173
SWIDTH 1000 0
DWIDTH 10 0
BBX 9 9 1 -2
BITMAP
4000
4000
7F00
FF80
1C00
7E00
7E00
4200
3E00
ENDCHAR
STARTCHAR B194
ENCODING 13174
SWIDTH 1000 0
DWIDTH 10 0
BBX 9 9 0 -2
BITMAP
4100
4100
4100
7D80
1100
1100
FF00
0100
0100
ENDCHAR
STARTCHAR B198
ENCODING 13175
SWIDTH 1000 0
DWIDTH 10 0
BBX 9 9 0 -1
BITMAP
4100
4100
4100
7D80
1100
FF00
2100
2100
3F80
ENDCHAR
STARTCHAR B19C
ENCODING 13176
SWIDTH 1000 0
DWIDTH 10 0
BBX 9 8 1 -1
BITMAP
8000
8200
FD80
FE00
0000
7E00
7E00
7E00
ENDCHAR
STARTCHAR B1A8
ENCODING 13177
SWIDTH 1000 0
DWIDTH 10 0
BBX 8 10 1 -2
BITMAP
80
82
FA
23
3E
E2
44
44
BA
01
ENDCHAR
STARTCHAR B1CC
ENCODING 13178
SWIDTH 1000 0
DWIDTH 10 0
BBX 8 8 1 -1
BITMAP
41
41
41
7F
11
11
FF
01
ENDCHAR
STARTCHAR B1D0
ENCODING 13179
SWIDTH 1000 0
DWIDTH 10 0
BBX 8 8 1 -1
BITMAP
41
41
7D
11
FF
41
40
7F
ENDCHAR
STARTCHAR B1D4
ENCODING 13180
SWIDTH 1000 0
DWIDTH 10 0
BBX 8 8 1 -1
BITMAP
41
41
7D
FF
7F
01
7F
7F
ENDCHAR
STARTCHAR B1DC
ENCODING 13181
SWIDTH 1000 0
DWIDTH 10 0
BBX 8 8 1 -1
BITMAP
41
41
7D
FF
01
3F
21
3F
ENDCHAR
STARTCHAR B1DD
ENCODING 13182
SWIDTH 1000 0
DWIDTH 10 0
BBX 8 8 1 -1
BITMAP
41
41
7D
FF
01
21
3F
3F
ENDCHAR
STARTCHAR B1DF
ENCODING 13345
SWIDTH 1000 0
DWIDTH 10 0
BBX 8 9 1 -2
BITMAP
81
81
FD
11
FF
09
18
66
01
ENDCHAR
STARTCHAR B1E8
ENCODING 13346
SWIDTH 1000 0
DWIDTH 10 0
BBX 9 9 1 -1
BITMAP
4000
4000
4000
4000
7F00
0000
2200
2200
FF80
ENDCHAR
STARTCHAR B1E9
ENCODING 13347
SWIDTH 1000 0
DWIDTH 10 0
BBX 8 9 1 -2
BITMAP
40
40
7E
24
FF
FE
02
02
02
ENDCHAR
STARTCHAR B1EC
ENCODING 13348
SWIDTH 1000 0
DWIDTH 10 0
BBX 9 9 0 -1
BITMAP
4000
4000
4000
7F80
1200
FF80
4000
4000
7F00
ENDCHAR
STARTCHAR B1F0
ENCODING 13349
SWIDTH 1000 0
DWIDTH 10 0
BBX 9 8 0 -1
BITMAP
4000
4000
7F00
FF80
3F00
0100
3F00
3F80
ENDCHAR
STARTCHAR B1F9
ENCODING 13350
SWIDTH 1000 0
DWIDTH 10 0
BBX 9 8 0 -1
BITMAP
4000
4000
7F80
1200
FF80
2100
3F00
3F00
ENDCHAR
STARTCHAR B1FB
ENCODING 13351
SWIDTH 1000 0
DWIDTH 10 0
BBX 9 8 0 -1
BITMAP
4000
4000
7F80
1200
FF80
0000
0C00
7300
ENDCHAR
STARTCHAR B1FD
ENCODING 13352
SWIDTH 1000 0
DWIDTH 10 0
BBX 8 9 1 -2
BITMAP
80
80
FF
24
FF
7E
83
81
7E
ENDCHAR
STARTCHAR B204
ENCODING 13353
SWIDTH 1000 0
DWIDTH 10 0
BBX 9 9 1 -1
BITMAP
4000
4000
4000
7F00
0000
FF80
0800
0800
0800
ENDCHAR
STARTCHAR B205
ENCODING 13354
SWIDTH 1000 0
DWIDTH 10 0
BBX 9 10 1 -2
BITMAP
4000
4000
4000
7F00
0000
FF80
7F00
0100
0100
0100
ENDCHAR
STARTCHAR B208
ENCODING 13355
SWIDTH 1000 0
DWIDTH 10 0
BBX 8 9 1 -1
BITMAP
80
80
80
FE
00
FF
88
88
FE
ENDCHAR
STARTCHAR B20B
ENCODING 13356
SWIDTH 1000 0
DWIDTH 10 0
BBX 9 8 1 -1
BITMAP
4000
4000
7F00
FF80
0800
7F00
4000
7F00
ENDCHAR
STARTCHAR B20C
ENCODING 13357
SWIDTH 1000 0
DWIDTH 10 0
BBX 9 8 1 -1
BITMAP
8000
8000
FE00
FF80
FF00
0100
FF00
FF00
ENDCHAR
STARTCHAR B214
ENCODING 13358
SWIDTH 1000 0
DWIDTH 10 0
BBX 9 8 1 -1
BITMAP
4000
4000
7F00
FF80
0800
7F00
4100
7F00
ENDCHAR
STARTCHAR B215
ENCODING 13359
SWIDTH 1000 0
DWIDTH 10 0
BBX 9 8 1 -1
BITMAP
4000
4000
7F00
FF80
0800
4100
7F00
7F00
ENDCHAR
STARTCHAR B217
ENCODING 13360
SWIDTH 1000 0
DWIDTH 10 0
BBX 9 8 1 -1
BITMAP
4000
4000
7F00
FF80
0800
0000
1800
6600
ENDCHAR
STARTCHAR B219
ENCODING 13361
SWIDTH 1000 0
DWIDTH 10 0
BBX 9 8 1 -1
BITMAP
4000
4000
7F00
FF80
0800
7E00
8100
7F00
ENDCHAR
STARTCHAR B220
ENCODING 13362
SWIDTH 1000 0
DWIDTH 10 0
BBX 8 9 1 -1
BITMAP
40
41
41
7D
01
FF
17
11
11
ENDCHAR
STARTCHAR B234
ENCODING 13363
SWIDTH 1000 0
DWIDTH 10 0
BBX 8 10 1 -1
BITMAP
01
41
47
7F
09
F7
11
10
66
99
ENDCHAR
STARTCHAR B23C
ENCODING 13364
SWIDTH 1000 0
DWIDTH 10 0
BBX 8 10 1 -2
BITMAP
81
85
85
FD
05
FD
3D
25
25
20
ENDCHAR
STARTCHAR B258
ENCODING 13365
SWIDTH 1000 0
DWIDTH 10 0
BBX 8 9 1 -1
BITMAP
41
41
41
7F
01
FF
11
11
11
ENDCHAR
STARTCHAR B25C
ENCODING 13366
SWIDTH 1000 0
DWIDTH 10 0
BBX 8 9 1 -1
BITMAP
40
41
41
7F
01
FF
51
51
7F
ENDCHAR
STARTCHAR B260
ENCODING 13367
SWIDTH 1000 0
DWIDTH 10 0
BBX 8 9 1 -1
BITMAP
40
41
7F
01
FF
11
7F
7F
7F
ENDCHAR
STARTCHAR B268
ENCODING 13368
SWIDTH 1000 0
DWIDTH 10 0
BBX 8 8 1 -1
BITMAP
41
41
7F
FF
11
7F
41
7F
ENDCHAR
STARTCHAR B269
ENCODING 13369
SWIDTH 1000 0
DWIDTH 10 0
BBX 8 9 1 -1
BITMAP
40
41
7F
01
FF
11
41
7F
7F
ENDCHAR
STARTCHAR B274
ENCODING 13370
SWIDTH 1000 0
DWIDTH 10 0
BBX 8 9 1 -1
BITMAP
80
80
80
FE
00
FF
24
24
24
ENDCHAR
STARTCHAR B275
ENCODING 13371
SWIDTH 1000 0
DWIDTH 10 0
BBX 8 9 1 -2
BITMAP
40
40
7F
FF
24
FF
01
01
01
ENDCHAR
STARTCHAR B27C
ENCODING 13372
SWIDTH 1000 0
DWIDTH 10 0
BBX 8 7 1 -1
BITMAP
80
7E
FF
24
7E
7E
7F
ENDCHAR
STARTCHAR B284
ENCODING 13373
SWIDTH 1000 0
DWIDTH 10 0
BBX 8 8 1 -1
BITMAP
40
40
7F
FF
24
FF
81
FF
ENDCHAR
STARTCHAR B285
ENCODING 13374
SWIDTH 1000 0
DWIDTH 10 0
BBX 8 8 1 -1
BITMAP
40
40
7E
FF
24
82
FE
FE
ENDCHAR
STARTCHAR B289
ENCODING 13375
SWIDTH 1000 0
DWIDTH 10 0
BBX 8 8 1 -1
BITMAP
40
40
7F
FF
24
7E
81
7E
ENDCHAR
STARTCHAR B290
ENCODING 13376
SWIDTH 1000 0
DWIDTH 10 0
BBX 8 9 1 -1
BITMAP
40
40
40
40
7F
00
00
00
FF
ENDCHAR
STARTCHAR B291
ENCODING 13377
SWIDTH 1000 0
DWIDTH 10 0
BBX 8 9 1 -2
BITMAP
40
40
7F
FF
00
FE
02
02
02
ENDCHAR
STARTCHAR B294
ENCODING 13378
SWIDTH 1000 0
DWIDTH 10 0
BBX 8 9 1 -1
BITMAP
40
40
40
7F
00
FF
40
40
7F
ENDCHAR
STARTCHAR B298
ENCODING 13379
SWIDTH 1000 0
DWIDTH 10 0
BBX 8 8 1 -1
BITMAP
40
40
7F
FF
7E
02
7E
7F
ENDCHAR
STARTCHAR B299
ENCODING 13380
SWIDTH 1000 0
DWIDTH 10 0
BBX 8 9 1 -2
BITMAP
40
40
7F
FF
70
1E
72
72
02
ENDCHAR
STARTCHAR B29A
ENCODING 13381
SWIDTH 1000 0
DWIDTH 10 0
BBX 8 9 1 -2
BITMAP
40
40
7F
FF
EF
29
E9
FF
C0
ENDCHAR
STARTCHAR B2A0
ENCODING 13382
SWIDTH 1000 0
DWIDTH 10 0
BBX 8 8 1 -1
BITMAP
40
40
7F
FF
00
7E
42
7E
ENDCHAR
STARTCHAR B2A1
ENCODING 13383
SWIDTH 1000 0
DWIDTH 10 0
BBX 8 8 1 -1
BITMAP
40
40
7F
FF
00
42
7E
7E
ENDCHAR
STARTCHAR B2A3
ENCODING 13384
SWIDTH 1000 0
DWIDTH 10 0
BBX 8 8 1 -1
BITMAP
40
40
7F
00
FF
00
18
66
ENDCHAR
STARTCHAR B2A5
ENCODING 13385
SWIDTH 1000 0
DWIDTH 10 0
BBX 8 9 1 -2
BITMAP
40
40
7F
00
FF
7C
82
82
7C
ENDCHAR
STARTCHAR B2A6
ENCODING 13386
SWIDTH 1000 0
DWIDTH 10 0
BBX 8 10 1 -2
BITMAP
40
40
7F
00
FF
00
7E
18
18
66
ENDCHAR
STARTCHAR B2AA
ENCODING 13387
SWIDTH 1000 0
DWIDTH 10 0
BBX 8 8 1 -1
BITMAP
40
40
7F
FF
00
7E
24
3C
ENDCHAR
STARTCHAR B2AC
ENCODING 13388
SWIDTH 1000 0
DWIDTH 10 0
BBX 8 9 1 -1
BITMAP
40
41
41
41
7F
01
01
FF
01
ENDCHAR
STARTCHAR B2B0
ENCODING 13389
SWIDTH 1000 0
DWIDTH 10 0
BBX 8 8 1 -1
BITMAP
41
41
7F
01
FF
41
41
7F
ENDCHAR
STARTCHAR B2B4
ENCODING 13390
SWIDTH 1000 0
DWIDTH 10 0
BBX 8 8 1 -1
BITMAP
41
41
7F
FF
01
7F
7F
7F
ENDCHAR
STARTCHAR B2C8
ENCODING 13391
SWIDTH 1000 0
DWIDTH 10 0
BBX 8 9 1 -1
BITMAP
80
81
81
81
81
81
FF
01
01
ENDCHAR
STARTCHAR B2C9
ENCODING 13392
SWIDTH 1000 0
DWIDTH 10 0
BBX 8 8 1 -1
BITMAP
81
81
81
FF
01
7F
01
01
ENDCHAR
STARTCHAR B2CC
ENCODING 13393
SWIDTH 1000 0
DWIDTH 10 0
BBX 8 9 1 -1
BITMAP
80
81
81
81
FF
01
41
40
7F
ENDCHAR
STARTCHAR B2D0
ENCODING 13394
SWIDTH 1000 0
DWIDTH 10 0
BBX 8 9 1 -1
BITMAP
80
81
81
FF
01
7F
01
7F
7F
ENDCHAR
STARTCHAR B2D2
ENCODING 13395
SWIDTH 1000 0
DWIDTH 10 0
BBX 8 9 1 -2
BITMAP
81
81
8F
F1
77
15
75
77
60
ENDCHAR
STARTCHAR B2D8
ENCODING 13396
SWIDTH 1000 0
DWIDTH 10 0
BBX 8 8 1 -1
BITMAP
81
81
81
FF
01
7F
41
7F
ENDCHAR
STARTCHAR B2D9
ENCODING 13397
SWIDTH 1000 0
DWIDTH 10 0
BBX 8 8 1 -1
BITMAP
81
81
81
FF
41
7F
41
7F
ENDCHAR
STARTCHAR B2DB
ENCODING 13398
SWIDTH 1000 0
DWIDTH 10 0
BBX 8 9 1 -1
BITMAP
80
81
81
81
FF
01
09
18
66
ENDCHAR
STARTCHAR B2DD
ENCODING 13399
SWIDTH 1000 0
DWIDTH 10 0
BBX 8 10 1 -2
BITMAP
80
81
81
81
FF
01
3E
41
41
3E
ENDCHAR
STARTCHAR B2E2
ENCODING 13400
SWIDTH 1000 0
DWIDTH 10 0
BBX 8 8 1 -1
BITMAP
81
81
81
FF
01
7F
22
3E
ENDCHAR
STARTCHAR B2E4
ENCODING 13401
SWIDTH 1000 0
DWIDTH 10 0
BBX 8 8 1 -1
BITMAP
FA
82
83
82
82
FE
02
02
ENDCHAR
STARTCHAR B2E5
ENCODING 13402
SWIDTH 1000 0
DWIDTH 10 0
BBX 9 8 0 -1
BITMAP
F900
8180
8100
FF00
0100
7F00
0100
0100
ENDCHAR
STARTCHAR B2E6
ENCODING 13403
SWIDTH 1000 0
DWIDTH 10 0
BBX 9 9 0 -2
BITMAP
F900
8180
8100
FF00
0100
FF00
1100
1100
1100
ENDCHAR
STARTCHAR B2E8
ENCODING 13404
SWIDTH 1000 0
DWIDTH 10 0
BBX 9 8 0 -1
BITMAP
F900
8180
8100
FF00
0100
4100
4000
7F00
ENDCHAR
STARTCHAR B2EB
ENCODING 13405
SWIDTH 1000 0
DWIDTH 10 0
BBX 9 8 0 -1
BITMAP
F900
8180
8100
FF00
0100
7F00
4000
7F00
ENDCHAR
STARTCHAR B2EC
ENCODING 13406
SWIDTH 1000 0
DWIDTH 10 0
BBX 9 8 0 -1
BITMAP
F900
8180
8100
FF00
7F00
0100
7F00
7F00
ENDCHAR
STARTCHAR B2ED
ENCODING 13407
SWIDTH 1000 0
DWIDTH 10 0
BBX 9 8 0 -1
BITMAP
F900
8180
8100
FF00
7F00
1100
7100
7900
ENDCHAR
STARTCHAR B2EE
ENCODING 13408
SWIDTH 1000 0
DWIDTH 10 0
BBX 9 9 0 -2
BITMAP
F900
8180
8100
FF00
7700
1500
7500
7700
6000
ENDCHAR
STARTCHAR B2EF
ENCODING 13409
SWIDTH 1000 0
DWIDTH 10 0
BBX 9 8 0 -1
BITMAP
F900
8180
8100
FF00
7500
1700
7500
0700
ENDCHAR
STARTCHAR B2F3
ENCODING 13410
SWIDTH 1000 0
DWIDTH 10 0
BBX 9 9 0 -2
BITMAP
F900
8180
8100
FF00
7700
1F00
7700
7900
0700
ENDCHAR
STARTCHAR B2F4
ENCODING 13411
SWIDTH 1000 0
DWIDTH 10 0
BBX 9 8 0 -1
BITMAP
F900
8180
8100
FF00
0100
7F00
4100
7F00
ENDCHAR
STARTCHAR B2F5
ENCODING 13412
SWIDTH 1000 0
DWIDTH 10 0
BBX 9 8 0 -1
BITMAP
F900
8180
8100
FF00
4100
7F00
4100
7F00
ENDCHAR
STARTCHAR B2F7
ENCODING 13413
SWIDTH 1000 0
DWIDTH 10 0
BBX 9 8 0 -1
BITMAP
F900
8180
8100
FF00
0100
0100
0C00
3300
ENDCHAR
STARTCHAR B2F8
ENCODING 13414
SWIDTH 1000 0
DWIDTH 10 0
BBX 9 9 0 -2
BITMAP
F900
8180
8100
FF00
0100
2200
2200
5500
0880
ENDCHAR
STARTCHAR B2F9
ENCODING 13415
SWIDTH 1000 0
DWIDTH 10 0
BBX 9 9 0 -2
BITMAP
F900
8180
8100
FF00
0100
3E00
4100
4100
3E00
ENDCHAR
STARTCHAR B2FA
ENCODING 13416
SWIDTH 1000 0
DWIDTH 10 0
BBX 9 9 0 -2
BITMAP
F900
8180
8100
FF00
0100
7F00
0800
1400
6300
ENDCHAR
STARTCHAR B2FB
ENCODING 13417
SWIDTH 1000 0
DWIDTH 10 0
BBX 9 8 0 -1
BITMAP
F900
E180
1100
1F00
0100
7F00
1400
6300
ENDCHAR
STARTCHAR B2FF
ENCODING 13418
SWIDTH 1000 0
DWIDTH 10 0
BBX 9 9 0 -2
BITMAP
F900
8180
8100
FF00
1D00
7F00
3E00
4100
3E00
ENDCHAR
STARTCHAR B300
ENCODING 13419
SWIDTH 1000 0
DWIDTH 10 0
BBX 8 10 1 -2
BITMAP
01
F9
89
8F
89
89
89
F9
09
08
ENDCHAR
STARTCHAR B301
ENCODING 13420
SWIDTH 1000 0
DWIDTH 10 0
BBX 8 9 1 -1
BITMAP
04
F5
87
85
FD
05
7F
01
01
ENDCHAR
STARTCHAR B304
ENCODING 13421
SWIDTH 1000 0
DWIDTH 10 0
BBX 8 9 1 -1
BITMAP
08
F9
8F
89
89
F9
49
40
7F
ENDCHAR
STARTCHAR B308
ENCODING 13422
SWIDTH 1000 0
DWIDTH 10 0
BBX 8 9 1 -1
BITMAP
08
F9
8F
89
F9
7F
01
7F
7F
ENDCHAR
STARTCHAR B310
ENCODING 13423
SWIDTH 1000 0
DWIDTH 10 0
BBX 8 9 1 -1
BITMAP
04
F5
87
85
FD
05
7F
41
7F
ENDCHAR
STARTCHAR B311
ENCODING 13424
SWIDTH 1000 0
DWIDTH 10 0
BBX 8 9 1 -1
BITMAP
04
F5
87
85
FD
04
41
7F
7F
ENDCHAR
STARTCHAR B313
ENCODING 13425
SWIDTH 1000 0
DWIDTH 10 0
BBX 8 9 1 -1
BITMAP
04
F5
87
85
FD
05
08
18
66
ENDCHAR
STARTCHAR B314
ENCODING 13426
SWIDTH 1000 0
DWIDTH 10 0
BBX 8 9 1 -1
BITMAP
08
F9
8F
89
F9
09
00
66
99
ENDCHAR
STARTCHAR B315
ENCODING 13427
SWIDTH 1000 0
DWIDTH 10 0
BBX 8 10 1 -2
BITMAP
04
F5
87
85
FD
05
3E
41
41
3E
ENDCHAR
STARTCHAR B31C
ENCODING 13428
SWIDTH 1000 0
DWIDTH 10 0
BBX 8 9 1 -2
BITMAP
FA
82
83
82
83
82
FE
02
02
ENDCHAR
STARTCHAR B354
ENCODING 13429
SWIDTH 1000 0
DWIDTH 10 0
BBX 8 9 1 -1
BITMAP
01
F9
81
8F
81
81
81
89
71
ENDCHAR
STARTCHAR B355
ENCODING 13430
SWIDTH 1000 0
DWIDTH 10 0
BBX 8 9 1 -1
BITMAP
01
F9
8F
81
81
F9
7F
01
01
ENDCHAR
STARTCHAR B356
ENCODING 13431
SWIDTH 1000 0
DWIDTH 10 0
BBX 8 10 1 -2
BITMAP
01
F9
8F
81
81
F8
FF
11
11
01
ENDCHAR
STARTCHAR B358
ENCODING 13432
SWIDTH 1000 0
DWIDTH 10 0
BBX 8 9 1 -1
BITMAP
01
F9
8F
81
81
BD
41
40
7F
ENDCHAR
STARTCHAR B35B
ENCODING 13433
SWIDTH 1000 0
DWIDTH 10 0
BBX 8 9 1 -1
BITMAP
01
F9
8F
81
81
78
7F
40
7F
ENDCHAR
STARTCHAR B35C
ENCODING 13434
SWIDTH 1000 0
DWIDTH 10 0
BBX 8 9 1 -1
BITMAP
01
F9
8F
81
79
7F
01
7F
7F
ENDCHAR
STARTCHAR B35E
ENCODING 13435
SWIDTH 1000 0
DWIDTH 10 0
BBX 8 9 1 -1
BITMAP
01
F9
8F
81
81
FF
29
E9
FF
ENDCHAR
STARTCHAR B35F
ENCODING 13436
SWIDTH 1000 0
DWIDTH 10 0
BBX 8 9 1 -1
BITMAP
01
F9
8F
81
81
F9
2F
E9
F6
ENDCHAR
STARTCHAR B364
ENCODING 13437
SWIDTH 1000 0
DWIDTH 10 0
BBX 8 9 1 -1
BITMAP
01
F9
8F
81
81
78
7F
41
7F
ENDCHAR
STARTCHAR B365
ENCODING 13438
SWIDTH 1000 0
DWIDTH 10 0
BBX 8 9 1 -1
BITMAP
01
F9
8F
81
81
79
7F
41
7F
ENDCHAR
STARTCHAR B367
ENCODING 13601
SWIDTH 1000 0
DWIDTH 10 0
BBX 8 9 1 -1
BITMAP
01
F9
8F
81
81
FD
08
18
66
ENDCHAR
STARTCHAR B369
ENCODING 13602
SWIDTH 1000 0
DWIDTH 10 0
BBX 8 10 1 -2
BITMAP
01
F9
8F
81
81
F9
3E
41
41
3E
ENDCHAR
STARTCHAR B36B
ENCODING 13603
SWIDTH 1000 0
DWIDTH 10 0
BBX 8 10 1 -2
BITMAP
01
F9
8F
81
F9
3C
00
7F
18
67
ENDCHAR
STARTCHAR B36E
ENCODING 13604
SWIDTH 1000 0
DWIDTH 10 0
BBX 8 9 1 -1
BITMAP
01
F9
8F
81
81
78
FE
24
3C
ENDCHAR
STARTCHAR B370
ENCODING 13605
SWIDTH 1000 0
DWIDTH 10 0
BBX 8 9 1 -1
BITMAP
05
E5
85
9D
85
85
85
F5
05
ENDCHAR
STARTCHAR B371
ENCODING 13606
SWIDTH 1000 0
DWIDTH 10 0
BBX 8 9 1 -1
BITMAP
04
F5
9D
85
85
91
7F
01
01
ENDCHAR
STARTCHAR B374
ENCODING 13607
SWIDTH 1000 0
DWIDTH 10 0
BBX 8 9 1 -1
BITMAP
04
F5
9D
85
85
85
65
40
7F
ENDCHAR
STARTCHAR B378
ENCODING 13608
SWIDTH 1000 0
DWIDTH 10 0
BBX 8 9 1 -1
BITMAP
04
F5
9D
85
85
7E
01
7F
7F
ENDCHAR
STARTCHAR B380
ENCODING 13609
SWIDTH 1000 0
DWIDTH 10 0
BBX 8 9 1 -1
BITMAP
04
F5
9D
85
85
F1
7F
41
7F
ENDCHAR
STARTCHAR B381
ENCODING 13610
SWIDTH 1000 0
DWIDTH 10 0
BBX 8 9 1 -1
BITMAP
04
F5
9D
85
85
70
41
7F
7F
ENDCHAR
STARTCHAR B383
ENCODING 13611
SWIDTH 1000 0
DWIDTH 10 0
BBX 8 9 1 -1
BITMAP
04
F5
9D
85
85
85
68
18
66
ENDCHAR
STARTCHAR B384
ENCODING 13612
SWIDTH 1000 0
DWIDTH 10 0
BBX 8 9 1 -1
BITMAP
04
E5
9D
85
85
61
00
66
99
ENDCHAR
STARTCHAR B385
ENCODING 13613
SWIDTH 1000 0
DWIDTH 10 0
BBX 8 10 1 -2
BITMAP
04
F5
9D
85
85
F1
3E
41
41
3E
ENDCHAR
STARTCHAR B38C
ENCODING 13614
SWIDTH 1000 0
DWIDTH 10 0
BBX 8 8 1 -1
BITMAP
F9
8F
81
81
8F
81
F9
01
ENDCHAR
STARTCHAR B390
ENCODING 13615
SWIDTH 1000 0
DWIDTH 10 0
BBX 8 8 1 -1
BITMAP
F9
87
81
87
F9
41
41
7F
ENDCHAR
STARTCHAR B394
ENCODING 13616
SWIDTH 1000 0
DWIDTH 10 0
BBX 8 8 1 -1
BITMAP
FF
81
87
F9
7E
01
7F
7F
ENDCHAR
STARTCHAR B3A0
ENCODING 13617
SWIDTH 1000 0
DWIDTH 10 0
BBX 8 8 1 -1
BITMAP
FF
81
87
F9
01
00
66
99
ENDCHAR
STARTCHAR B3A1
ENCODING 13618
SWIDTH 1000 0
DWIDTH 10 0
BBX 8 9 1 -2
BITMAP
FF
81
87
F9
01
3E
41
41
3E
ENDCHAR
STARTCHAR B3A8
ENCODING 13619
SWIDTH 1000 0
DWIDTH 10 0
BBX 8 9 1 -1
BITMAP
05
F5
9D
85
9D
85
85
F5
05
ENDCHAR
STARTCHAR B3AC
ENCODING 13620
SWIDTH 1000 0
DWIDTH 10 0
BBX 8 8 1 -1
BITMAP
F5
9D
9D
85
85
75
40
7F
ENDCHAR
STARTCHAR B3C4
ENCODING 13621
SWIDTH 1000 0
DWIDTH 10 0
BBX 9 8 1 -1
BITMAP
FE00
8000
8000
FE00
0000
0800
0800
FF80
ENDCHAR
STARTCHAR B3C5
ENCODING 13622
SWIDTH 1000 0
DWIDTH 10 0
BBX 9 8 1 -1
BITMAP
7F00
4000
7F00
0800
FF80
FE00
0200
0200
ENDCHAR
STARTCHAR B3C8
ENCODING 13623
SWIDTH 1000 0
DWIDTH 10 0
BBX 9 8 1 -1
BITMAP
7F00
4000
7F00
0800
FF80
4000
4000
7F00
ENDCHAR
STARTCHAR B3CB
ENCODING 13624
SWIDTH 1000 0
DWIDTH 10 0
BBX 9 8 1 -1
BITMAP
7F00
4000
7F00
0800
FF80
7F00
4000
7F00
ENDCHAR
STARTCHAR B3CC
ENCODING 13625
SWIDTH 1000 0
DWIDTH 10 0
BBX 9 8 1 -1
BITMAP
7F00
4000
7F00
FF80
7F00
0100
7F00
7F00
ENDCHAR
STARTCHAR B3CE
ENCODING 13626
SWIDTH 1000 0
DWIDTH 10 0
BBX 9 9 1 -2
BITMAP
7F00
4000
7F00
FF80
EF00
1900
E900
FF00
C000
ENDCHAR
STARTCHAR B3D0
ENCODING 13627
SWIDTH 1000 0
DWIDTH 10 0
BBX 9 8 1 -1
BITMAP
7F00
4000
7F00
FF80
0000
E000
6600
7900
ENDCHAR
STARTCHAR B3D4
ENCODING 13628
SWIDTH 1000 0
DWIDTH 10 0
BBX 9 8 1 -1
BITMAP
7F00
4000
7F00
0800
FF80
7E00
4200
7E00
ENDCHAR
STARTCHAR B3D5
ENCODING 13629
SWIDTH 1000 0
DWIDTH 10 0
BBX 9 8 1 -1
BITMAP
7F00
4000
7F00
0800
FF80
4200
7E00
7E00
ENDCHAR
STARTCHAR B3D7
ENCODING 13630
SWIDTH 1000 0
DWIDTH 10 0
BBX 9 8 1 -1
BITMAP
7F00
4000
7F00
0800
FF80
0000
1800
6600
ENDCHAR
STARTCHAR B3D9
ENCODING 13631
SWIDTH 1000 0
DWIDTH 10 0
BBX 9 9 1 -2
BITMAP
7F00
4000
7F00
0800
FF80
3C00
4200
4200
3C00
ENDCHAR
STARTCHAR B3DB
ENCODING 13632
SWIDTH 1000 0
DWIDTH 10 0
BBX 9 9 1 -1
BITMAP
7F00
0800
FF80
0000
3C00
0000
FE00
1800
E600
ENDCHAR
STARTCHAR B3DD
ENCODING 13633
SWIDTH 1000 0
DWIDTH 10 0
BBX 9 8 1 -1
BITMAP
7F00
4000
7F00
FF80
0000
7F00
7F00
7F00
ENDCHAR
STARTCHAR B3E0
ENCODING 13634
SWIDTH 1000 0
DWIDTH 10 0
BBX 10 10 0 -2
BITMAP
0100
7D00
4100
4100
7DC0
1100
1100
FF00
0100
0100
ENDCHAR
STARTCHAR B3E4
ENCODING 13635
SWIDTH 1000 0
DWIDTH 10 0
BBX 9 8 0 -1
BITMAP
7D00
4100
7D80
1100
FF00
2100
2000
3F80
ENDCHAR
STARTCHAR B3E8
ENCODING 13636
SWIDTH 1000 0
DWIDTH 10 0
BBX 9 8 0 -1
BITMAP
7D00
4100
7D80
FF00
0000
3F00
3F00
3F00
ENDCHAR
STARTCHAR B3FC
ENCODING 13637
SWIDTH 1000 0
DWIDTH 10 0
BBX 8 10 1 -2
BITMAP
04
7D
45
47
75
25
25
FD
05
04
ENDCHAR
STARTCHAR B410
ENCODING 13638
SWIDTH 1000 0
DWIDTH 10 0
BBX 8 9 1 -1
BITMAP
F0
85
85
F7
25
FD
05
66
99
ENDCHAR
STARTCHAR B418
ENCODING 13639
SWIDTH 1000 0
DWIDTH 10 0
BBX 8 9 1 -1
BITMAP
01
7D
41
41
7D
11
11
FF
01
ENDCHAR
STARTCHAR B41C
ENCODING 13640
SWIDTH 1000 0
DWIDTH 10 0
BBX 8 9 1 -1
BITMAP
01
7D
41
7D
11
FF
41
40
7F
ENDCHAR
STARTCHAR B420
ENCODING 13641
SWIDTH 1000 0
DWIDTH 10 0
BBX 8 8 1 -1
BITMAP
7D
41
7D
FF
00
7F
7F
7F
ENDCHAR
STARTCHAR B428
ENCODING 13642
SWIDTH 1000 0
DWIDTH 10 0
BBX 8 9 1 -1
BITMAP
01
7D
41
7D
1F
F1
7F
41
7F
ENDCHAR
STARTCHAR B429
ENCODING 13643
SWIDTH 1000 0
DWIDTH 10 0
BBX 8 9 1 -1
BITMAP
01
7D
41
7D
FF
00
41
7F
7F
ENDCHAR
STARTCHAR B42B
ENCODING 13644
SWIDTH 1000 0
DWIDTH 10 0
BBX 8 10 1 -2
BITMAP
01
7D
41
7D
11
FF
09
14
62
01
ENDCHAR
STARTCHAR B434
ENCODING 13645
SWIDTH 1000 0
DWIDTH 10 0
BBX 9 8 1 -1
BITMAP
7F00
4000
4000
7F00
0000
2200
2200
FF80
ENDCHAR
STARTCHAR B450
ENCODING 13646
SWIDTH 1000 0
DWIDTH 10 0
BBX 9 8 1 -1
BITMAP
7F00
4000
4000
7F00
FF80
0800
0800
0800
ENDCHAR
STARTCHAR B451
ENCODING 13647
SWIDTH 1000 0
DWIDTH 10 0
BBX 9 9 1 -2
BITMAP
7F00
4000
7F00
0000
FF80
7F00
0100
0100
0100
ENDCHAR
STARTCHAR B454
ENCODING 13648
SWIDTH 1000 0
DWIDTH 10 0
BBX 8 8 1 -1
BITMAP
FE
80
FE
00
FF
88
88
FE
ENDCHAR
STARTCHAR B458
ENCODING 13649
SWIDTH 1000 0
DWIDTH 10 0
BBX 9 8 1 -1
BITMAP
FE00
8000
FE00
FF80
0800
FF00
FF00
FF00
ENDCHAR
STARTCHAR B460
ENCODING 13650
SWIDTH 1000 0
DWIDTH 10 0
BBX 9 8 1 -1
BITMAP
7F00
4000
7F00
FF80
0800
7F00
4100
7F00
ENDCHAR
STARTCHAR B461
ENCODING 13651
SWIDTH 1000 0
DWIDTH 10 0
BBX 9 8 1 -1
BITMAP
FE00
8000
FE00
FF80
0800
8200
FE00
FE00
ENDCHAR
STARTCHAR B463
ENCODING 13652
SWIDTH 1000 0
DWIDTH 10 0
BBX 9 8 0 -1
BITMAP
7F00
4000
7F00
0000
FF80
0800
0C00
7300
ENDCHAR
STARTCHAR B465
ENCODING 13653
SWIDTH 1000 0
DWIDTH 10 0
BBX 9 8 1 -1
BITMAP
FE00
8000
FE00
0000
FF80
3E00
C100
7E00
ENDCHAR
STARTCHAR B46C
ENCODING 13654
SWIDTH 1000 0
DWIDTH 10 0
BBX 8 8 1 -1
BITMAP
7D
41
7D
01
FF
17
11
11
ENDCHAR
STARTCHAR B480
ENCODING 13655
SWIDTH 1000 0
DWIDTH 10 0
BBX 8 11 1 -2
BITMAP
01
F9
81
F9
07
F9
17
11
00
66
99
ENDCHAR
STARTCHAR B488
ENCODING 13656
SWIDTH 1000 0
DWIDTH 10 0
BBX 8 9 1 -1
BITMAP
05
7D
45
7D
05
FD
3D
25
25
ENDCHAR
STARTCHAR B49D
ENCODING 13657
SWIDTH 1000 0
DWIDTH 10 0
BBX 8 10 1 -2
BITMAP
04
F5
85
F5
FD
3D
3E
41
41
3E
ENDCHAR
STARTCHAR B4A4
ENCODING 13658
SWIDTH 1000 0
DWIDTH 10 0
BBX 8 9 1 -1
BITMAP
01
7D
41
7D
01
FF
11
11
11
ENDCHAR
STARTCHAR B4A8
ENCODING 13659
SWIDTH 1000 0
DWIDTH 10 0
BBX 8 8 1 -1
BITMAP
7D
41
7D
01
FF
51
51
7F
ENDCHAR
STARTCHAR B4AC
ENCODING 13660
SWIDTH 1000 0
DWIDTH 10 0
BBX 8 8 1 -1
BITMAP
7D
41
7D
FF
11
7F
7F
7F
ENDCHAR
STARTCHAR B4B5
ENCODING 13661
SWIDTH 1000 0
DWIDTH 10 0
BBX 8 8 1 -1
BITMAP
7D
41
7D
FF
11
41
7F
7F
ENDCHAR
STARTCHAR B4B7
ENCODING 13662
SWIDTH 1000 0
DWIDTH 10 0
BBX 8 9 1 -2
BITMAP
F9
81
F9
FF
11
19
14
62
01
ENDCHAR
STARTCHAR B4B9
ENCODING 13663
SWIDTH 1000 0
DWIDTH 10 0
BBX 8 9 1 -2
BITMAP
7D
41
7D
FF
11
3F
41
41
3E
ENDCHAR
STARTCHAR B4C0
ENCODING 13664
SWIDTH 1000 0
DWIDTH 10 0
BBX 8 8 1 -1
BITMAP
FE
80
FE
00
FF
24
24
24
ENDCHAR
STARTCHAR B4C4
ENCODING 13665
SWIDTH 1000 0
DWIDTH 10 0
BBX 8 8 1 -1
BITMAP
7F
40
7F
00
FF
54
54
7F
ENDCHAR
STARTCHAR B4C8
ENCODING 13666
SWIDTH 1000 0
DWIDTH 10 0
BBX 8 8 1 -1
BITMAP
7F
40
7F
FF
24
7E
7E
7F
ENDCHAR
STARTCHAR B4D0
ENCODING 13667
SWIDTH 1000 0
DWIDTH 10 0
BBX 8 8 1 -1
BITMAP
7F
40
7F
FF
24
FF
81
FF
ENDCHAR
STARTCHAR B4D5
ENCODING 13668
SWIDTH 1000 0
DWIDTH 10 0
BBX 8 8 1 -1
BITMAP
7F
40
7F
FF
24
7E
81
7E
ENDCHAR
STARTCHAR B4DC
ENCODING 13669
SWIDTH 1000 0
DWIDTH 10 0
BBX 8 8 1 -1
BITMAP
FE
80
80
80
FE
00
00
FF
ENDCHAR
STARTCHAR B4DD
ENCODING 13670
SWIDTH 1000 0
DWIDTH 10 0
BBX 8 8 1 -1
BITMAP
FF
80
FE
00
FF
7F
01
01
ENDCHAR
STARTCHAR B4E0
ENCODING 13671
SWIDTH 1000 0
DWIDTH 10 0
BBX 8 8 1 -1
BITMAP
FE
80
FF
00
FF
40
40
7F
ENDCHAR
STARTCHAR B4E3
ENCODING 13672
SWIDTH 1000 0
DWIDTH 10 0
BBX 8 8 1 -1
BITMAP
FE
80
FE
00
FF
7F
40
7F
ENDCHAR
STARTCHAR B4E4
ENCODING 13673
SWIDTH 1000 0
DWIDTH 10 0
BBX 8 8 1 -1
BITMAP
FE
80
FE
FF
7E
02
7E
7F
ENDCHAR
STARTCHAR B4E6
ENCODING 13674
SWIDTH 1000 0
DWIDTH 10 0
BBX 8 9 1 -2
BITMAP
7F
40
7F
FF
00
EF
E9
FF
C0
ENDCHAR
STARTCHAR B4EC
ENCODING 13675
SWIDTH 1000 0
DWIDTH 10 0
BBX 8 8 1 -1
BITMAP
FE
80
FE
00
FF
7E
42
7E
ENDCHAR
STARTCHAR B4ED
ENCODING 13676
SWIDTH 1000 0
DWIDTH 10 0
BBX 8 8 1 -1
BITMAP
FE
80
FE
00
FF
82
FE
FE
ENDCHAR
STARTCHAR B4EF
ENCODING 13677
SWIDTH 1000 0
DWIDTH 10 0
BBX 8 8 1 -1
BITMAP
FE
80
FE
00
FF
00
18
66
ENDCHAR
STARTCHAR B4F1
ENCODING 13678
SWIDTH 1000 0
DWIDTH 10 0
BBX 8 9 1 -2
BITMAP
7F
40
7F
00
FF
3E
41
41
3E
ENDCHAR
STARTCHAR B4F8
ENCODING 13679
SWIDTH 1000 0
DWIDTH 10 0
BBX 8 8 1 -1
BITMAP
7D
41
41
7D
01
01
FF
01
ENDCHAR
STARTCHAR B514
ENCODING 13680
SWIDTH 1000 0
DWIDTH 10 0
BBX 6 8 2 -1
BITMAP
FC
84
84
84
84
FC
04
04
ENDCHAR
STARTCHAR B515
ENCODING 13681
SWIDTH 1000 0
DWIDTH 10 0
BBX 8 8 1 -1
BITMAP
F9
81
81
FF
00
7F
01
01
ENDCHAR
STARTCHAR B518
ENCODING 13682
SWIDTH 1000 0
DWIDTH 10 0
BBX 8 8 1 -1
BITMAP
F9
81
81
FF
01
41
40
7F
ENDCHAR
STARTCHAR B51B
ENCODING 13683
SWIDTH 1000 0
DWIDTH 10 0
BBX 8 8 1 -1
BITMAP
F9
81
81
FF
00
7F
40
7F
ENDCHAR
STARTCHAR B51C
ENCODING 13684
SWIDTH 1000 0
DWIDTH 10 0
BBX 8 8 1 -1
BITMAP
F9
81
81
FF
7F
01
7F
7F
ENDCHAR
STARTCHAR B524
ENCODING 13685
SWIDTH 1000 0
DWIDTH 10 0
BBX 8 8 1 -1
BITMAP
F9
81
81
FF
00
7F
41
7F
ENDCHAR
STARTCHAR B525
ENCODING 13686
SWIDTH 1000 0
DWIDTH 10 0
BBX 8 8 1 -1
BITMAP
F9
81
81
FF
41
7F
41
7F
ENDCHAR
STARTCHAR B527
ENCODING 13687
SWIDTH 1000 0
DWIDTH 10 0
BBX 8 8 1 -1
BITMAP
F9
81
81
FF
01
08
18
66
ENDCHAR
STARTCHAR B528
ENCODING 13688
SWIDTH 1000 0
DWIDTH 10 0
BBX 8 8 1 -1
BITMAP
F9
81
81
FF
01
00
66
99
ENDCHAR
STARTCHAR B529
ENCODING 13689
SWIDTH 1000 0
DWIDTH 10 0
BBX 8 9 1 -2
BITMAP
F9
81
81
FF
01
3E
41
41
3E
ENDCHAR
STARTCHAR B52A
ENCODING 13690
SWIDTH 1000 0
DWIDTH 10 0
BBX 8 9 1 -2
BITMAP
F9
81
81
FF
00
7F
08
34
03
ENDCHAR
STARTCHAR B530
ENCODING 13691
SWIDTH 1000 0
DWIDTH 10 0
BBX 8 9 1 -2
BITMAP
FE
92
92
93
92
92
EE
02
02
ENDCHAR
STARTCHAR B531
ENCODING 13692
SWIDTH 1000 0
DWIDTH 10 0
BBX 8 8 1 -1
BITMAP
FE
93
92
92
EE
FE
02
02
ENDCHAR
STARTCHAR B534
ENCODING 13693
SWIDTH 1000 0
DWIDTH 10 0
BBX 8 8 1 -1
BITMAP
FE
92
93
92
B6
CA
82
FE
ENDCHAR
STARTCHAR B538
ENCODING 13694
SWIDTH 1000 0
DWIDTH 10 0
BBX 8 8 1 -1
BITMAP
FE
93
92
92
FE
02
FE
FE
ENDCHAR
STARTCHAR B540
ENCODING 13857
SWIDTH 1000 0
DWIDTH 10 0
BBX 8 8 1 -1
BITMAP
FE
93
92
92
CE
FE
82
FE
ENDCHAR
STARTCHAR B541
ENCODING 13858
SWIDTH 1000 0
DWIDTH 10 0
BBX 8 8 1 -1
BITMAP
FE
93
92
92
CC
82
FE
FE
ENDCHAR
STARTCHAR B543
ENCODING 13859
SWIDTH 1000 0
DWIDTH 10 0
BBX 8 8 1 -1
BITMAP
FE
93
92
92
EE
00
18
66
ENDCHAR
STARTCHAR B544
ENCODING 13860
SWIDTH 1000 0
DWIDTH 10 0
BBX 8 9 1 -2
BITMAP
FE
93
92
92
EE
44
44
AA
11
ENDCHAR
STARTCHAR B545
ENCODING 13861
SWIDTH 1000 0
DWIDTH 10 0
BBX 8 9 1 -2
BITMAP
FE
93
92
92
EE
7C
82
82
7C
ENDCHAR
STARTCHAR B54B
ENCODING 13862
SWIDTH 1000 0
DWIDTH 10 0
BBX 8 9 1 -2
BITMAP
FE
93
92
9E
7A
FE
7C
82
7C
ENDCHAR
STARTCHAR B54C
ENCODING 13863
SWIDTH 1000 0
DWIDTH 10 0
BBX 8 9 1 -2
BITMAP
F5
A5
A5
A7
A5
AD
F5
05
04
ENDCHAR
STARTCHAR B54D
ENCODING 13864
SWIDTH 1000 0
DWIDTH 10 0
BBX 8 8 1 -1
BITMAP
F5
A7
A5
BD
C5
7F
01
01
ENDCHAR
STARTCHAR B550
ENCODING 13865
SWIDTH 1000 0
DWIDTH 10 0
BBX 8 8 1 -1
BITMAP
F5
A5
A7
A5
BD
45
40
7F
ENDCHAR
STARTCHAR B554
ENCODING 13866
SWIDTH 1000 0
DWIDTH 10 0
BBX 8 8 1 -1
BITMAP
D5
A7
A5
9D
7F
01
7F
7F
ENDCHAR
STARTCHAR B55C
ENCODING 13867
SWIDTH 1000 0
DWIDTH 10 0
BBX 8 8 1 -1
BITMAP
F5
A7
A5
BD
00
7F
41
7F
ENDCHAR
STARTCHAR B55D
ENCODING 13868
SWIDTH 1000 0
DWIDTH 10 0
BBX 8 8 1 -1
BITMAP
F5
A7
A5
BD
40
41
7F
7F
ENDCHAR
STARTCHAR B55F
ENCODING 13869
SWIDTH 1000 0
DWIDTH 10 0
BBX 8 8 1 -1
BITMAP
F5
A7
A5
BD
C5
08
18
66
ENDCHAR
STARTCHAR B560
ENCODING 13870
SWIDTH 1000 0
DWIDTH 10 0
BBX 8 8 1 -1
BITMAP
F5
A7
A5
BD
45
02
62
95
ENDCHAR
STARTCHAR B561
ENCODING 13871
SWIDTH 1000 0
DWIDTH 10 0
BBX 8 9 1 -2
BITMAP
F5
A7
A5
BD
C5
3E
41
41
3E
ENDCHAR
STARTCHAR B5A0
ENCODING 13872
SWIDTH 1000 0
DWIDTH 10 0
BBX 8 9 1 -1
BITMAP
01
FD
91
97
91
91
FD
01
01
ENDCHAR
STARTCHAR B5A1
ENCODING 13873
SWIDTH 1000 0
DWIDTH 10 0
BBX 8 9 1 -1
BITMAP
01
FD
97
91
FD
01
7F
01
01
ENDCHAR
STARTCHAR B5A4
ENCODING 13874
SWIDTH 1000 0
DWIDTH 10 0
BBX 8 9 1 -1
BITMAP
01
FD
97
91
FD
01
41
40
7F
ENDCHAR
STARTCHAR B5A8
ENCODING 13875
SWIDTH 1000 0
DWIDTH 10 0
BBX 8 8 1 -1
BITMAP
FE
96
92
FE
7E
01
7F
7F
ENDCHAR
STARTCHAR B5AA
ENCODING 13876
SWIDTH 1000 0
DWIDTH 10 0
BBX 8 9 1 -1
BITMAP
01
FD
97
91
FD
EF
29
E9
FF
ENDCHAR
STARTCHAR B5AB
ENCODING 13877
SWIDTH 1000 0
DWIDTH 10 0
BBX 8 9 1 -1
BITMAP
01
FD
97
91
FD
E9
2F
E9
F6
ENDCHAR
STARTCHAR B5B0
ENCODING 13878
SWIDTH 1000 0
DWIDTH 10 0
BBX 8 9 1 -1
BITMAP
01
FD
97
91
FD
01
7F
41
7F
ENDCHAR
STARTCHAR B5B1
ENCODING 13879
SWIDTH 1000 0
DWIDTH 10 0
BBX 8 9 1 -1
BITMAP
01
FD
97
91
FD
00
41
7F
7F
ENDCHAR
STARTCHAR B5B3
ENCODING 13880
SWIDTH 1000 0
DWIDTH 10 0
BBX 8 9 1 -1
BITMAP
01
FD
97
91
FD
01
08
18
66
ENDCHAR
STARTCHAR B5B4
ENCODING 13881
SWIDTH 1000 0
DWIDTH 10 0
BBX 8 9 1 -1
BITMAP
E1
99
97
91
FD
01
00
66
99
ENDCHAR
STARTCHAR B5B5
ENCODING 13882
SWIDTH 1000 0
DWIDTH 10 0
BBX 8 10 1 -2
BITMAP
01
FD
97
91
FD
01
3E
41
41
3E
ENDCHAR
STARTCHAR B5BB
ENCODING 13883
SWIDTH 1000 0
DWIDTH 10 0
BBX 8 10 1 -2
BITMAP
01
FD
97
91
FD
3C
FF
7E
82
7E
ENDCHAR
STARTCHAR B5BC
ENCODING 13884
SWIDTH 1000 0
DWIDTH 10 0
BBX 8 9 1 -1
BITMAP
05
F5
A5
AD
A5
A5
FD
05
05
ENDCHAR
STARTCHAR B5BD
ENCODING 13885
SWIDTH 1000 0
DWIDTH 10 0
BBX 8 9 1 -1
BITMAP
04
F5
AD
A5
A5
FD
7F
01
01
ENDCHAR
STARTCHAR B5C0
ENCODING 13886
SWIDTH 1000 0
DWIDTH 10 0
BBX 8 8 1 -1
BITMAP
F5
A5
AD
A5
A5
55
44
7F
ENDCHAR
STARTCHAR B5C4
ENCODING 13887
SWIDTH 1000 0
DWIDTH 10 0
BBX 8 9 1 -1
BITMAP
04
D5
AD
A5
65
7F
01
7F
7F
ENDCHAR
STARTCHAR B5CC
ENCODING 13888
SWIDTH 1000 0
DWIDTH 10 0
BBX 8 9 1 -1
BITMAP
04
F5
AD
A5
A5
FD
7F
41
7F
ENDCHAR
STARTCHAR B5CD
ENCODING 13889
SWIDTH 1000 0
DWIDTH 10 0
BBX 8 9 1 -1
BITMAP
04
F5
AD
A5
A5
F9
41
7F
7F
ENDCHAR
STARTCHAR B5CF
ENCODING 13890
SWIDTH 1000 0
DWIDTH 10 0
BBX 8 9 1 -1
BITMAP
F4
A5
AD
A5
FD
05
08
18
66
ENDCHAR
STARTCHAR B5D0
ENCODING 13891
SWIDTH 1000 0
DWIDTH 10 0
BBX 8 9 1 -1
BITMAP
F4
A5
AD
A5
FD
05
02
62
95
ENDCHAR
STARTCHAR B5D1
ENCODING 13892
SWIDTH 1000 0
DWIDTH 10 0
BBX 8 10 1 -2
BITMAP
04
F5
AD
A5
A5
FD
3E
41
41
3E
ENDCHAR
STARTCHAR B5D8
ENCODING 13893
SWIDTH 1000 0
DWIDTH 10 0
BBX 8 8 1 -1
BITMAP
FD
97
91
97
91
FD
01
01
ENDCHAR
STARTCHAR B5EC
ENCODING 13894
SWIDTH 1000 0
DWIDTH 10 0
BBX 8 10 1 -1
BITMAP
E0
84
9E
92
96
F2
1E
00
66
99
ENDCHAR
STARTCHAR B610
ENCODING 13895
SWIDTH 1000 0
DWIDTH 10 0
BBX 9 8 0 -1
BITMAP
7F80
4400
4400
7C00
0780
0800
0800
FF80
ENDCHAR
STARTCHAR B611
ENCODING 13896
SWIDTH 1000 0
DWIDTH 10 0
BBX 9 8 1 -1
BITMAP
FF00
8800
FF00
0800
FF80
FE00
0200
0200
ENDCHAR
STARTCHAR B614
ENCODING 13897
SWIDTH 1000 0
DWIDTH 10 0
BBX 9 8 0 -1
BITMAP
7F80
4400
7F80
0800
FF80
2000
2000
3F80
ENDCHAR
STARTCHAR B618
ENCODING 13898
SWIDTH 1000 0
DWIDTH 10 0
BBX 8 8 1 -1
BITMAP
FF
88
FF
FF
7E
02
7E
7E
ENDCHAR
STARTCHAR B625
ENCODING 13899
SWIDTH 1000 0
DWIDTH 10 0
BBX 9 9 0 -2
BITMAP
7F80
4400
7F80
0800
FF80
1F00
2080
2080
1F00
ENDCHAR
STARTCHAR B62C
ENCODING 13900
SWIDTH 1000 0
DWIDTH 10 0
BBX 9 8 0 -1
BITMAP
7F00
4900
4900
7F80
1100
1100
FF00
0100
ENDCHAR
STARTCHAR B634
ENCODING 13901
SWIDTH 1000 0
DWIDTH 10 0
BBX 9 8 1 -1
BITMAP
FC00
9200
FD80
1E00
E000
7E00
7E00
7E00
ENDCHAR
STARTCHAR B648
ENCODING 13902
SWIDTH 1000 0
DWIDTH 10 0
BBX 8 8 1 -1
BITMAP
DB
93
93
DF
03
23
FF
03
ENDCHAR
STARTCHAR B664
ENCODING 13903
SWIDTH 1000 0
DWIDTH 10 0
BBX 8 8 1 -1
BITMAP
FD
91
91
FD
11
11
FF
01
ENDCHAR
STARTCHAR B668
ENCODING 13904
SWIDTH 1000 0
DWIDTH 10 0
BBX 8 9 1 -1
BITMAP
01
FD
91
FD
11
FF
41
40
7F
ENDCHAR
STARTCHAR B69C
ENCODING 13905
SWIDTH 1000 0
DWIDTH 10 0
BBX 9 8 0 -1
BITMAP
7F80
4400
4400
7F80
FF80
0800
0800
0800
ENDCHAR
STARTCHAR B69D
ENCODING 13906
SWIDTH 1000 0
DWIDTH 10 0
BBX 9 8 1 -1
BITMAP
FF00
8800
FF00
0000
FF80
7F00
0100
0100
ENDCHAR
STARTCHAR B6A0
ENCODING 13907
SWIDTH 1000 0
DWIDTH 10 0
BBX 8 8 1 -1
BITMAP
FF
88
FF
00
FF
88
88
FE
ENDCHAR
STARTCHAR B6A4
ENCODING 13908
SWIDTH 1000 0
DWIDTH 10 0
BBX 8 8 1 -1
BITMAP
FF
88
FF
FF
7E
02
7E
7F
ENDCHAR
STARTCHAR B6AB
ENCODING 13909
SWIDTH 1000 0
DWIDTH 10 0
BBX 9 8 1 -1
BITMAP
FF00
8800
FF00
FF80
EE00
2F00
EE00
EF00
ENDCHAR
STARTCHAR B6AC
ENCODING 13910
SWIDTH 1000 0
DWIDTH 10 0
BBX 9 8 1 -1
BITMAP
FF00
8800
FF00
FF80
0800
7F00
4100
7F00
ENDCHAR
STARTCHAR B6B1
ENCODING 13911
SWIDTH 1000 0
DWIDTH 10 0
BBX 9 8 1 -1
BITMAP
FF00
8800
FF00
FF80
0800
7E00
8100
7F00
ENDCHAR
STARTCHAR B6D4
ENCODING 13912
SWIDTH 1000 0
DWIDTH 10 0
BBX 8 9 1 -1
BITMAP
05
DD
95
95
9D
FD
3D
25
25
ENDCHAR
STARTCHAR B6F0
ENCODING 13913
SWIDTH 1000 0
DWIDTH 10 0
BBX 8 9 1 -1
BITMAP
01
7F
49
49
7F
FF
11
11
11
ENDCHAR
STARTCHAR B6F4
ENCODING 13914
SWIDTH 1000 0
DWIDTH 10 0
BBX 8 8 1 -1
BITMAP
EF
89
EF
01
FF
51
51
7F
ENDCHAR
STARTCHAR B6F8
ENCODING 13915
SWIDTH 1000 0
DWIDTH 10 0
BBX 8 8 1 -1
BITMAP
ED
91
ED
FF
11
7F
7F
7F
ENDCHAR
STARTCHAR B700
ENCODING 13916
SWIDTH 1000 0
DWIDTH 10 0
BBX 8 8 1 -1
BITMAP
EF
89
EF
FF
11
7F
41
7F
ENDCHAR
STARTCHAR B701
ENCODING 13917
SWIDTH 1000 0
DWIDTH 10 0
BBX 8 8 1 -1
BITMAP
EF
89
EF
FF
11
41
7F
7F
ENDCHAR
STARTCHAR B705
ENCODING 13918
SWIDTH 1000 0
DWIDTH 10 0
BBX 8 9 1 -2
BITMAP
FD
91
FD
FF
11
3F
41
41
3E
ENDCHAR
STARTCHAR B728
ENCODING 13919
SWIDTH 1000 0
DWIDTH 10 0
BBX 8 8 1 -1
BITMAP
FF
88
88
F8
0F
00
00
FF
ENDCHAR
STARTCHAR B729
ENCODING 13920
SWIDTH 1000 0
DWIDTH 10 0
BBX 8 8 1 -1
BITMAP
FE
88
FF
00
FF
FE
02
02
ENDCHAR
STARTCHAR B72C
ENCODING 13921
SWIDTH 1000 0
DWIDTH 10 0
BBX 8 8 1 -1
BITMAP
FF
88
FF
00
FF
80
80
7E
ENDCHAR
STARTCHAR B72F
ENCODING 13922
SWIDTH 1000 0
DWIDTH 10 0
BBX 8 8 1 -1
BITMAP
FF
88
FF
00
FF
7F
40
7F
ENDCHAR
STARTCHAR B730
ENCODING 13923
SWIDTH 1000 0
DWIDTH 10 0
BBX 8 8 1 -1
BITMAP
FF
88
FF
FF
7E
02
7E
7E
ENDCHAR
STARTCHAR B738
ENCODING 13924
SWIDTH 1000 0
DWIDTH 10 0
BBX 8 8 1 -1
BITMAP
FF
88
FF
FF
00
7E
42
7E
ENDCHAR
STARTCHAR B739
ENCODING 13925
SWIDTH 1000 0
DWIDTH 10 0
BBX 8 8 1 -1
BITMAP
FF
88
FF
00
FF
41
7F
7F
ENDCHAR
STARTCHAR B73B
ENCODING 13926
SWIDTH 1000 0
DWIDTH 10 0
BBX 8 8 1 -1
BITMAP
FF
88
FF
00
FF
00
18
66
ENDCHAR
STARTCHAR B744
ENCODING 13927
SWIDTH 1000 0
DWIDTH 10 0
BBX 8 8 1 -1
BITMAP
FD
91
91
FD
01
01
FF
01
ENDCHAR
STARTCHAR B748
ENCODING 13928
SWIDTH 1000 0
DWIDTH 10 0
BBX 8 8 1 -1
BITMAP
FD
91
FD
01
FF
41
40
7F
ENDCHAR
STARTCHAR B74C
ENCODING 13929
SWIDTH 1000 0
DWIDTH 10 0
BBX 8 8 1 -1
BITMAP
ED
91
ED
FF
00
7F
7F
7F
ENDCHAR
STARTCHAR B754
ENCODING 13930
SWIDTH 1000 0
DWIDTH 10 0
BBX 8 8 1 -1
BITMAP
FD
91
FD
FF
01
7F
41
7F
ENDCHAR
STARTCHAR B755
ENCODING 13931
SWIDTH 1000 0
DWIDTH 10 0
BBX 8 8 1 -1
BITMAP
FD
91
FD
FF
01
41
7F
7F
ENDCHAR
STARTCHAR B760
ENCODING 13932
SWIDTH 1000 0
DWIDTH 10 0
BBX 8 8 1 -1
BITMAP
FD
91
91
91
91
9F
61
01
ENDCHAR
STARTCHAR B764
ENCODING 13933
SWIDTH 1000 0
DWIDTH 10 0
BBX 8 8 1 -1
BITMAP
FD
91
91
9F
61
41
40
7F
ENDCHAR
STARTCHAR B768
ENCODING 13934
SWIDTH 1000 0
DWIDTH 10 0
BBX 8 8 1 -1
BITMAP
FC
92
92
9E
7E
01
7F
7F
ENDCHAR
STARTCHAR B770
ENCODING 13935
SWIDTH 1000 0
DWIDTH 10 0
BBX 8 8 1 -1
BITMAP
FD
91
91
9F
61
7F
41
7F
ENDCHAR
STARTCHAR B771
ENCODING 13936
SWIDTH 1000 0
DWIDTH 10 0
BBX 8 8 1 -1
BITMAP
FD
91
91
9F
61
41
7F
7F
ENDCHAR
STARTCHAR B773
ENCODING 13937
SWIDTH 1000 0
DWIDTH 10 0
BBX 8 8 1 -1
BITMAP
FD
91
91
9F
61
09
18
66
ENDCHAR
STARTCHAR B775
ENCODING 13938
SWIDTH 1000 0
DWIDTH 10 0
BBX 8 9 1 -2
BITMAP
FD
91
91
9F
61
3E
41
41
3E
ENDCHAR
STARTCHAR B77C
ENCODING 13939
SWIDTH 1000 0
DWIDTH 10 0
BBX 8 9 1 -1
BITMAP
F8
0A
0A
FA
83
82
FE
02
02
ENDCHAR
STARTCHAR B77D
ENCODING 13940
SWIDTH 1000 0
DWIDTH 10 0
BBX 8 9 1 -1
BITMAP
F8
0A
FB
82
FE
02
FE
02
02
ENDCHAR
STARTCHAR B780
ENCODING 13941
SWIDTH 1000 0
DWIDTH 10 0
BBX 8 9 1 -1
BITMAP
F8
0A
0B
FA
82
FE
82
80
FE
ENDCHAR
STARTCHAR B784
ENCODING 13942
SWIDTH 1000 0
DWIDTH 10 0
BBX 8 9 1 -1
BITMAP
F8
0A
FB
82
FE
00
7E
7E
7E
ENDCHAR
STARTCHAR B78C
ENCODING 13943
SWIDTH 1000 0
DWIDTH 10 0
BBX 8 9 1 -1
BITMAP
F8
0A
FB
82
FE
02
FE
82
FE
ENDCHAR
STARTCHAR B78D
ENCODING 13944
SWIDTH 1000 0
DWIDTH 10 0
BBX 8 9 1 -1
BITMAP
F8
0A
FB
82
FE
00
82
FE
FE
ENDCHAR
STARTCHAR B78F
ENCODING 13945
SWIDTH 1000 0
DWIDTH 10 0
BBX 8 10 1 -2
BITMAP
F8
0A
0A
FB
82
FE
12
28
C4
02
ENDCHAR
STARTCHAR B790
ENCODING 13946
SWIDTH 1000 0
DWIDTH 10 0
BBX 8 10 1 -2
BITMAP
F8
0A
FB
82
FE
00
44
44
AA
01
ENDCHAR
STARTCHAR B791
ENCODING 13947
SWIDTH 1000 0
DWIDTH 10 0
BBX 8 10 1 -2
BITMAP
F8
0A
FB
82
FE
02
7C
82
82
7C
ENDCHAR
STARTCHAR B792
ENCODING 13948
SWIDTH 1000 0
DWIDTH 10 0
BBX 8 10 1 -2
BITMAP
F8
0A
FB
82
FE
02
FE
10
28
44
ENDCHAR
STARTCHAR B796
ENCODING 13949
SWIDTH 1000 0
DWIDTH 10 0
BBX 8 9 1 -1
BITMAP
F8
0A
FB
82
FE
00
FE
44
7C
ENDCHAR
STARTCHAR B797
ENCODING 13950
SWIDTH 1000 0
DWIDTH 10 0
BBX 8 10 1 -2
BITMAP
F8
0A
FB
82
FE
3A
FE
7C
82
7C
ENDCHAR
STARTCHAR B798
ENCODING 14113
SWIDTH 1000 0
DWIDTH 10 0
BBX 8 9 1 -2
BITMAP
F5
15
F5
87
85
FD
05
05
01
ENDCHAR
STARTCHAR B799
ENCODING 14114
SWIDTH 1000 0
DWIDTH 10 0
BBX 8 9 1 -1
BITMAP
01
F5
F7
85
85
FD
7F
01
01
ENDCHAR
STARTCHAR B79C
ENCODING 14115
SWIDTH 1000 0
DWIDTH 10 0
BBX 8 8 1 -1
BITMAP
F5
15
F7
85
FD
45
41
7F
ENDCHAR
STARTCHAR B7A0
ENCODING 14116
SWIDTH 1000 0
DWIDTH 10 0
BBX 8 9 1 -1
BITMAP
01
F5
F7
85
FD
3F
01
3F
3F
ENDCHAR
STARTCHAR B7A8
ENCODING 14117
SWIDTH 1000 0
DWIDTH 10 0
BBX 8 9 1 -1
BITMAP
01
F5
F7
85
FD
01
7F
41
7F
ENDCHAR
STARTCHAR B7A9
ENCODING 14118
SWIDTH 1000 0
DWIDTH 10 0
BBX 8 9 1 -1
BITMAP
01
F5
F7
85
FD
00
41
7F
7F
ENDCHAR
STARTCHAR B7AB
ENCODING 14119
SWIDTH 1000 0
DWIDTH 10 0
BBX 8 10 1 -2
BITMAP
01
F5
F7
85
85
FD
0C
18
66
01
ENDCHAR
STARTCHAR B7AC
ENCODING 14120
SWIDTH 1000 0
DWIDTH 10 0
BBX 8 8 1 -1
BITMAP
E5
15
E7
FD
05
20
66
99
ENDCHAR
STARTCHAR B7AD
ENCODING 14121
SWIDTH 1000 0
DWIDTH 10 0
BBX 8 10 1 -2
BITMAP
01
F5
F7
85
85
FD
3E
41
41
3E
ENDCHAR
STARTCHAR B7B4
ENCODING 14122
SWIDTH 1000 0
DWIDTH 10 0
BBX 9 8 0 -1
BITMAP
F900
0980
7900
4100
4100
7F80
0100
0100
ENDCHAR
STARTCHAR B7B5
ENCODING 14123
SWIDTH 1000 0
DWIDTH 10 0
BBX 9 8 0 -1
BITMAP
F900
7980
4180
4100
7F00
7F00
0100
0100
ENDCHAR
STARTCHAR B7B8
ENCODING 14124
SWIDTH 1000 0
DWIDTH 10 0
BBX 9 8 0 -1
BITMAP
F900
0980
7900
4180
7F00
2100
2000
3F80
ENDCHAR
STARTCHAR B7C7
ENCODING 14125
SWIDTH 1000 0
DWIDTH 10 0
BBX 9 8 0 -1
BITMAP
F900
7980
4180
4100
7F00
0100
0C00
7300
ENDCHAR
STARTCHAR B7C9
ENCODING 14126
SWIDTH 1000 0
DWIDTH 10 0
BBX 9 9 0 -2
BITMAP
F900
7980
4180
4100
7F00
3F00
4300
4100
3E00
ENDCHAR
STARTCHAR B7EC
ENCODING 14127
SWIDTH 1000 0
DWIDTH 10 0
BBX 8 8 1 -1
BITMAP
F9
09
F9
87
81
FD
01
01
ENDCHAR
STARTCHAR B7ED
ENCODING 14128
SWIDTH 1000 0
DWIDTH 10 0
BBX 8 9 1 -1
BITMAP
01
F9
0F
F9
81
F9
7F
01
01
ENDCHAR
STARTCHAR B7F0
ENCODING 14129
SWIDTH 1000 0
DWIDTH 10 0
BBX 8 9 1 -1
BITMAP
01
F9
0F
F9
81
F9
41
40
7F
ENDCHAR
STARTCHAR B7F4
ENCODING 14130
SWIDTH 1000 0
DWIDTH 10 0
BBX 8 9 1 -1
BITMAP
01
F9
FF
81
F9
00
7F
7F
7F
ENDCHAR
STARTCHAR B7FC
ENCODING 14131
SWIDTH 1000 0
DWIDTH 10 0
BBX 8 9 1 -1
BITMAP
01
F9
FF
81
F9
00
7F
41
7F
ENDCHAR
STARTCHAR B7FD
ENCODING 14132
SWIDTH 1000 0
DWIDTH 10 0
BBX 8 9 1 -1
BITMAP
01
F9
FF
81
F9
00
41
7F
7F
ENDCHAR
STARTCHAR B7FF
ENCODING 14133
SWIDTH 1000 0
DWIDTH 10 0
BBX 8 9 1 -1
BITMAP
01
F9
0F
F9
81
F9
08
14
63
ENDCHAR
STARTCHAR B800
ENCODING 14134
SWIDTH 1000 0
DWIDTH 10 0
BBX 8 9 1 -1
BITMAP
01
F9
FF
81
B9
41
00
66
99
ENDCHAR
STARTCHAR B801
ENCODING 14135
SWIDTH 1000 0
DWIDTH 10 0
BBX 8 10 1 -2
BITMAP
01
F9
FF
81
F9
01
3E
43
41
3E
ENDCHAR
STARTCHAR B807
ENCODING 14136
SWIDTH 1000 0
DWIDTH 10 0
BBX 8 10 1 -2
BITMAP
01
F9
FF
81
F9
3C
FF
7E
82
7E
ENDCHAR
STARTCHAR B808
ENCODING 14137
SWIDTH 1000 0
DWIDTH 10 0
BBX 8 9 1 -1
BITMAP
04
F5
15
F5
9D
85
F5
05
05
ENDCHAR
STARTCHAR B809
ENCODING 14138
SWIDTH 1000 0
DWIDTH 10 0
BBX 8 8 1 -1
BITMAP
F5
15
FD
85
F5
7F
01
01
ENDCHAR
STARTCHAR B80C
ENCODING 14139
SWIDTH 1000 0
DWIDTH 10 0
BBX 8 8 1 -1
BITMAP
F5
15
FD
85
F5
45
41
7F
ENDCHAR
STARTCHAR B810
ENCODING 14140
SWIDTH 1000 0
DWIDTH 10 0
BBX 8 9 1 -1
BITMAP
04
F5
FD
85
F5
7F
01
7F
7F
ENDCHAR
STARTCHAR B818
ENCODING 14141
SWIDTH 1000 0
DWIDTH 10 0
BBX 8 9 1 -1
BITMAP
04
F5
FD
85
85
F1
7F
41
7F
ENDCHAR
STARTCHAR B819
ENCODING 14142
SWIDTH 1000 0
DWIDTH 10 0
BBX 8 9 1 -1
BITMAP
04
F5
FD
85
85
F1
41
7F
7F
ENDCHAR
STARTCHAR B81B
ENCODING 14143
SWIDTH 1000 0
DWIDTH 10 0
BBX 8 9 1 -2
BITMAP
F5
15
FD
85
F5
0C
18
66
01
ENDCHAR
STARTCHAR B81D
ENCODING 14144
SWIDTH 1000 0
DWIDTH 10 0
BBX 8 9 1 -2
BITMAP
F5
15
FD
85
F5
3E
41
41
3E
ENDCHAR
STARTCHAR B824
ENCODING 14145
SWIDTH 1000 0
DWIDTH 10 0
BBX 8 8 1 -1
BITMAP
79
0F
F9
81
87
F9
01
01
ENDCHAR
STARTCHAR B825
ENCODING 14146
SWIDTH 1000 0
DWIDTH 10 0
BBX 8 8 1 -1
BITMAP
79
0F
F9
87
F9
7F
01
01
ENDCHAR
STARTCHAR B828
ENCODING 14147
SWIDTH 1000 0
DWIDTH 10 0
BBX 8 8 1 -1
BITMAP
F1
17
F1
87
F9
41
41
7F
ENDCHAR
STARTCHAR B82C
ENCODING 14148
SWIDTH 1000 0
DWIDTH 10 0
BBX 8 8 1 -1
BITMAP
F1
F7
83
F9
3F
01
3F
3F
ENDCHAR
STARTCHAR B834
ENCODING 14149
SWIDTH 1000 0
DWIDTH 10 0
BBX 8 8 1 -1
BITMAP
F1
17
F7
81
F8
7F
41
7F
ENDCHAR
STARTCHAR B835
ENCODING 14150
SWIDTH 1000 0
DWIDTH 10 0
BBX 8 8 1 -1
BITMAP
79
FF
87
F9
00
41
7F
7F
ENDCHAR
STARTCHAR B837
ENCODING 14151
SWIDTH 1000 0
DWIDTH 10 0
BBX 8 8 1 -1
BITMAP
F1
17
F1
87
F9
09
18
66
ENDCHAR
STARTCHAR B838
ENCODING 14152
SWIDTH 1000 0
DWIDTH 10 0
BBX 8 9 1 -1
BITMAP
F0
11
F7
81
FF
01
41
46
A9
ENDCHAR
STARTCHAR B839
ENCODING 14153
SWIDTH 1000 0
DWIDTH 10 0
BBX 8 9 1 -2
BITMAP
79
0F
FF
81
F9
3E
41
41
3E
ENDCHAR
STARTCHAR B840
ENCODING 14154
SWIDTH 1000 0
DWIDTH 10 0
BBX 8 10 1 -2
BITMAP
05
75
1D
F5
85
8D
85
65
05
04
ENDCHAR
STARTCHAR B844
ENCODING 14155
SWIDTH 1000 0
DWIDTH 10 0
BBX 8 8 1 -1
BITMAP
E5
2D
E5
8D
85
65
44
7F
ENDCHAR
STARTCHAR B851
ENCODING 14156
SWIDTH 1000 0
DWIDTH 10 0
BBX 8 8 1 -1
BITMAP
75
FD
8D
F5
01
41
7F
7F
ENDCHAR
STARTCHAR B853
ENCODING 14157
SWIDTH 1000 0
DWIDTH 10 0
BBX 8 8 1 -1
BITMAP
75
1D
FD
85
85
68
18
66
ENDCHAR
STARTCHAR B85C
ENCODING 14158
SWIDTH 1000 0
DWIDTH 10 0
BBX 9 8 1 -1
BITMAP
FE00
0200
7E00
4000
7F00
0800
0800
FF80
ENDCHAR
STARTCHAR B85D
ENCODING 14159
SWIDTH 1000 0
DWIDTH 10 0
BBX 9 8 1 -1
BITMAP
FE00
7E00
4000
7E00
FF80
7F00
0100
0100
ENDCHAR
STARTCHAR B860
ENCODING 14160
SWIDTH 1000 0
DWIDTH 10 0
BBX 9 8 1 -1
BITMAP
FE00
7E00
4000
7F00
FF80
4000
4000
7E00
ENDCHAR
STARTCHAR B864
ENCODING 14161
SWIDTH 1000 0
DWIDTH 10 0
BBX 8 8 1 -1
BITMAP
7E
7E
7E
10
FF
7E
7E
7E
ENDCHAR
STARTCHAR B86C
ENCODING 14162
SWIDTH 1000 0
DWIDTH 10 0
BBX 9 8 1 -1
BITMAP
FE00
7E00
4000
7E00
FF80
7E00
4200
7E00
ENDCHAR
STARTCHAR B86D
ENCODING 14163
SWIDTH 1000 0
DWIDTH 10 0
BBX 9 8 1 -1
BITMAP
FE00
7E00
4000
7E00
FF80
8200
FE00
FE00
ENDCHAR
STARTCHAR B86F
ENCODING 14164
SWIDTH 1000 0
DWIDTH 10 0
BBX 9 8 1 -1
BITMAP
FE00
7E00
4000
7E00
FF80
0000
1800
6600
ENDCHAR
STARTCHAR B871
ENCODING 14165
SWIDTH 1000 0
DWIDTH 10 0
BBX 9 9 1 -2
BITMAP
FE00
7E00
4000
7E00
FF80
3C00
4200
4200
3C00
ENDCHAR
STARTCHAR B878
ENCODING 14166
SWIDTH 1000 0
DWIDTH 10 0
BBX 9 9 0 -2
BITMAP
7D00
7D00
4100
4180
7D00
1100
FF00
0100
0100
ENDCHAR
STARTCHAR B87C
ENCODING 14167
SWIDTH 1000 0
DWIDTH 10 0
BBX 9 9 0 -1
BITMAP
0100
7D00
7D80
4100
7D00
FF00
4100
4000
7F00
ENDCHAR
STARTCHAR B88D
ENCODING 14168
SWIDTH 1000 0
DWIDTH 10 0
BBX 9 10 0 -2
BITMAP
0100
7D00
7D80
7D00
1100
FF00
3F00
4100
4100
3E00
ENDCHAR
STARTCHAR B8A8
ENCODING 14169
SWIDTH 1000 0
DWIDTH 10 0
BBX 8 9 1 -1
BITMAP
01
F5
F7
FD
25
FD
00
66
91
ENDCHAR
STARTCHAR B8B0
ENCODING 14170
SWIDTH 1000 0
DWIDTH 10 0
BBX 7 8 2 -1
BITMAP
FA
0A
FA
82
FA
22
FE
02
ENDCHAR
STARTCHAR B8B4
ENCODING 14171
SWIDTH 1000 0
DWIDTH 10 0
BBX 8 8 1 -1
BITMAP
F9
F9
81
FD
FF
41
40
7F
ENDCHAR
STARTCHAR B8B8
ENCODING 14172
SWIDTH 1000 0
DWIDTH 10 0
BBX 8 8 1 -1
BITMAP
79
79
7D
1F
F1
7F
7F
7F
ENDCHAR
STARTCHAR B8C0
ENCODING 14173
SWIDTH 1000 0
DWIDTH 10 0
BBX 8 8 1 -1
BITMAP
7D
7D
7D
11
FF
7F
41
7F
ENDCHAR
STARTCHAR B8C1
ENCODING 14174
SWIDTH 1000 0
DWIDTH 10 0
BBX 8 8 1 -1
BITMAP
7D
7D
7D
1F
F1
41
7F
7F
ENDCHAR
STARTCHAR B8C3
ENCODING 14175
SWIDTH 1000 0
DWIDTH 10 0
BBX 8 8 1 -1
BITMAP
7D
7D
41
7D
FF
09
18
66
ENDCHAR
STARTCHAR B8C5
ENCODING 14176
SWIDTH 1000 0
DWIDTH 10 0
BBX 8 9 1 -2
BITMAP
7D
7D
7D
11
FF
3F
41
41
3E
ENDCHAR
STARTCHAR B8CC
ENCODING 14177
SWIDTH 1000 0
DWIDTH 10 0
BBX 8 8 1 -1
BITMAP
FE
02
7E
40
7F
24
24
FF
ENDCHAR
STARTCHAR B8D0
ENCODING 14178
SWIDTH 1000 0
DWIDTH 10 0
BBX 8 8 1 -1
BITMAP
FE
FE
80
FF
FF
40
40
7F
ENDCHAR
STARTCHAR B8D4
ENCODING 14179
SWIDTH 1000 0
DWIDTH 10 0
BBX 8 8 1 -1
BITMAP
7E
7E
7F
24
FF
7E
7E
7E
ENDCHAR
STARTCHAR B8DD
ENCODING 14180
SWIDTH 1000 0
DWIDTH 10 0
BBX 8 8 1 -1
BITMAP
FE
FE
80
FF
FF
42
7E
7E
ENDCHAR
STARTCHAR B8DF
ENCODING 14181
SWIDTH 1000 0
DWIDTH 10 0
BBX 8 8 1 -1
BITMAP
FE
FE
80
FF
FF
00
18
66
ENDCHAR
STARTCHAR B8E1
ENCODING 14182
SWIDTH 1000 0
DWIDTH 10 0
BBX 8 9 1 -2
BITMAP
FE
FE
80
FF
FF
3E
41
41
3E
ENDCHAR
STARTCHAR B8E8
ENCODING 14183
SWIDTH 1000 0
DWIDTH 10 0
BBX 9 8 0 -1
BITMAP
7F00
7F00
4000
7F00
0000
FF80
0800
0800
ENDCHAR
STARTCHAR B8E9
ENCODING 14184
SWIDTH 1000 0
DWIDTH 10 0
BBX 9 8 1 -1
BITMAP
7F00
7F00
4000
7F00
FF80
7F00
0100
0100
ENDCHAR
STARTCHAR B8EC
ENCODING 14185
SWIDTH 1000 0
DWIDTH 10 0
BBX 9 8 1 -1
BITMAP
7F00
7F00
4000
7F00
FF80
4800
4000
7F00
ENDCHAR
STARTCHAR B8F0
ENCODING 14186
SWIDTH 1000 0
DWIDTH 10 0
BBX 8 8 1 -1
BITMAP
7E
7E
7F
FF
10
7E
7E
7F
ENDCHAR
STARTCHAR B8F8
ENCODING 14187
SWIDTH 1000 0
DWIDTH 10 0
BBX 9 8 1 -1
BITMAP
FE00
FE00
8000
FE00
FF80
FE00
8200
FE00
ENDCHAR
STARTCHAR B8F9
ENCODING 14188
SWIDTH 1000 0
DWIDTH 10 0
BBX 8 8 1 -1
BITMAP
7E
7E
80
7F
FF
82
FE
FE
ENDCHAR
STARTCHAR B8FB
ENCODING 14189
SWIDTH 1000 0
DWIDTH 10 0
BBX 8 8 1 -1
BITMAP
7E
7E
80
7F
FF
00
18
66
ENDCHAR
STARTCHAR B8FD
ENCODING 14190
SWIDTH 1000 0
DWIDTH 10 0
BBX 8 9 1 -2
BITMAP
7E
7E
80
7F
FF
3C
42
42
3C
ENDCHAR
STARTCHAR B904
ENCODING 14191
SWIDTH 1000 0
DWIDTH 10 0
BBX 8 9 1 -2
BITMAP
F9
79
41
7D
FF
11
17
11
01
ENDCHAR
STARTCHAR B918
ENCODING 14192
SWIDTH 1000 0
DWIDTH 10 0
BBX 8 8 1 -1
BITMAP
F9
F9
F9
FD
27
01
66
91
ENDCHAR
STARTCHAR B920
ENCODING 14193
SWIDTH 1000 0
DWIDTH 10 0
BBX 8 10 1 -2
BITMAP
05
F5
F5
85
F5
FD
25
3D
25
04
ENDCHAR
STARTCHAR B93C
ENCODING 14194
SWIDTH 1000 0
DWIDTH 10 0
BBX 8 9 1 -2
BITMAP
7D
7D
41
7D
01
FF
11
11
10
ENDCHAR
STARTCHAR B93D
ENCODING 14195
SWIDTH 1000 0
DWIDTH 10 0
BBX 8 8 1 -1
BITMAP
79
79
7D
01
FF
7F
01
01
ENDCHAR
STARTCHAR B940
ENCODING 14196
SWIDTH 1000 0
DWIDTH 10 0
BBX 8 8 1 -1
BITMAP
79
79
7D
01
FF
51
41
7F
ENDCHAR
STARTCHAR B944
ENCODING 14197
SWIDTH 1000 0
DWIDTH 10 0
BBX 8 9 1 -1
BITMAP
01
79
79
7D
0F
F0
7F
3F
3F
ENDCHAR
STARTCHAR B94C
ENCODING 14198
SWIDTH 1000 0
DWIDTH 10 0
BBX 8 8 1 -1
BITMAP
79
79
7D
FF
11
7F
41
7F
ENDCHAR
STARTCHAR B94F
ENCODING 14199
SWIDTH 1000 0
DWIDTH 10 0
BBX 8 9 1 -2
BITMAP
79
79
7D
01
FF
19
18
66
01
ENDCHAR
STARTCHAR B951
ENCODING 14200
SWIDTH 1000 0
DWIDTH 10 0
BBX 8 9 1 -2
BITMAP
79
79
7D
FF
11
3E
41
41
3E
ENDCHAR
STARTCHAR B958
ENCODING 14201
SWIDTH 1000 0
DWIDTH 10 0
BBX 9 9 0 -2
BITMAP
7F00
7F00
4000
7F00
0000
FF80
2200
2200
2000
ENDCHAR
STARTCHAR B959
ENCODING 14202
SWIDTH 1000 0
DWIDTH 10 0
BBX 9 8 1 -1
BITMAP
7E00
7E00
8000
7F00
FF80
7F00
0100
0100
ENDCHAR
STARTCHAR B95C
ENCODING 14203
SWIDTH 1000 0
DWIDTH 10 0
BBX 8 8 1 -1
BITMAP
7F
7F
40
7F
FF
64
64
7F
ENDCHAR
STARTCHAR B960
ENCODING 14204
SWIDTH 1000 0
DWIDTH 10 0
BBX 8 8 1 -1
BITMAP
7E
7E
7F
FF
24
7E
7E
7E
ENDCHAR
STARTCHAR B968
ENCODING 14205
SWIDTH 1000 0
DWIDTH 10 0
BBX 10 8 0 -1
BITMAP
3F00
3F00
4000
3F80
FFC0
7F80
4080
7F80
ENDCHAR
STARTCHAR B969
ENCODING 14206
SWIDTH 1000 0
DWIDTH 10 0
BBX 8 8 1 -1
BITMAP
7E
7E
80
7F
FF
A6
FE
FE
ENDCHAR
STARTCHAR B96B
ENCODING 14369
SWIDTH 1000 0
DWIDTH 10 0
BBX 8 8 1 -1
BITMAP
7E
7E
80
7F
FF
40
18
66
ENDCHAR
STARTCHAR B96D
ENCODING 14370
SWIDTH 1000 0
DWIDTH 10 0
BBX 8 8 1 -1
BITMAP
7E
7E
80
7F
FF
3C
C2
7E
ENDCHAR
STARTCHAR B974
ENCODING 14371
SWIDTH 1000 0
DWIDTH 10 0
BBX 8 8 1 -1
BITMAP
FE
02
7E
40
7E
00
00
FF
ENDCHAR
STARTCHAR B975
ENCODING 14372
SWIDTH 1000 0
DWIDTH 10 0
BBX 8 8 1 -1
BITMAP
7E
7E
80
7F
FF
FE
02
02
ENDCHAR
STARTCHAR B978
ENCODING 14373
SWIDTH 1000 0
DWIDTH 10 0
BBX 8 8 1 -1
BITMAP
7F
7F
40
7F
FF
40
40
7F
ENDCHAR
STARTCHAR B97C
ENCODING 14374
SWIDTH 1000 0
DWIDTH 10 0
BBX 8 8 1 -1
BITMAP
7E
7E
7F
00
FF
7E
7E
7E
ENDCHAR
STARTCHAR B984
ENCODING 14375
SWIDTH 1000 0
DWIDTH 10 0
BBX 8 8 1 -1
BITMAP
7E
7E
80
7F
FF
7E
42
7E
ENDCHAR
STARTCHAR B985
ENCODING 14376
SWIDTH 1000 0
DWIDTH 10 0
BBX 8 8 1 -1
BITMAP
7E
7E
80
7F
FF
82
FE
FE
ENDCHAR
STARTCHAR B987
ENCODING 14377
SWIDTH 1000 0
DWIDTH 10 0
BBX 8 8 1 -1
BITMAP
7E
7E
80
7F
FF
00
18
66
ENDCHAR
STARTCHAR B989
ENCODING 14378
SWIDTH 1000 0
DWIDTH 10 0
BBX 8 9 1 -2
BITMAP
7F
7F
80
7F
FF
3E
41
41
3E
ENDCHAR
STARTCHAR B98A
ENCODING 14379
SWIDTH 1000 0
DWIDTH 10 0
BBX 8 8 1 -1
BITMAP
7E
7E
80
7F
FF
7E
18
24
ENDCHAR
STARTCHAR B98D
ENCODING 14380
SWIDTH 1000 0
DWIDTH 10 0
BBX 8 8 1 -1
BITMAP
7F
7F
40
7F
FF
7F
7F
7F
ENDCHAR
STARTCHAR B98E
ENCODING 14381
SWIDTH 1000 0
DWIDTH 10 0
BBX 8 8 1 -1
BITMAP
7E
7E
80
7F
FF
7F
24
7D
ENDCHAR
STARTCHAR B9AC
ENCODING 14382
SWIDTH 1000 0
DWIDTH 10 0
BBX 8 8 1 -1
BITMAP
F9
09
F9
81
81
FF
01
01
ENDCHAR
STARTCHAR B9AD
ENCODING 14383
SWIDTH 1000 0
DWIDTH 10 0
BBX 8 8 1 -1
BITMAP
F9
09
F9
81
FF
7F
01
01
ENDCHAR
STARTCHAR B9B0
ENCODING 14384
SWIDTH 1000 0
DWIDTH 10 0
BBX 8 8 1 -1
BITMAP
F9
09
F9
81
FF
41
40
7F
ENDCHAR
STARTCHAR B9B4
ENCODING 14385
SWIDTH 1000 0
DWIDTH 10 0
BBX 8 8 1 -1
BITMAP
F9
F9
81
FF
7F
01
7F
7F
ENDCHAR
STARTCHAR B9BC
ENCODING 14386
SWIDTH 1000 0
DWIDTH 10 0
BBX 8 8 1 -1
BITMAP
F9
F9
81
FF
01
7F
41
7F
ENDCHAR
STARTCHAR B9BD
ENCODING 14387
SWIDTH 1000 0
DWIDTH 10 0
BBX 8 8 1 -1
BITMAP
F9
F9
81
FF
01
41
7F
7F
ENDCHAR
STARTCHAR B9BF
ENCODING 14388
SWIDTH 1000 0
DWIDTH 10 0
BBX 8 8 1 -1
BITMAP
F9
F9
81
81
FF
09
18
66
ENDCHAR
STARTCHAR B9C1
ENCODING 14389
SWIDTH 1000 0
DWIDTH 10 0
BBX 8 9 1 -2
BITMAP
F9
F9
81
FF
01
3E
41
41
3E
ENDCHAR
STARTCHAR B9C8
ENCODING 14390
SWIDTH 1000 0
DWIDTH 10 0
BBX 8 9 1 -2
BITMAP
F2
92
92
93
92
F2
02
02
02
ENDCHAR
STARTCHAR B9C9
ENCODING 14391
SWIDTH 1000 0
DWIDTH 10 0
BBX 8 8 1 -1
BITMAP
F2
93
92
F2
02
FE
02
02
ENDCHAR
STARTCHAR B9CC
ENCODING 14392
SWIDTH 1000 0
DWIDTH 10 0
BBX 8 8 1 -1
BITMAP
F2
92
93
92
F2
82
82
FE
ENDCHAR
STARTCHAR B9CE
ENCODING 14393
SWIDTH 1000 0
DWIDTH 10 0
BBX 8 9 1 -2
BITMAP
F2
93
92
F2
0C
9E
9E
BE
40
ENDCHAR
STARTCHAR B9CF
ENCODING 14394
SWIDTH 1000 0
DWIDTH 10 0
BBX 8 8 1 -1
BITMAP
F2
93
92
F2
02
7F
40
7F
ENDCHAR
STARTCHAR B9D0
ENCODING 14395
SWIDTH 1000 0
DWIDTH 10 0
BBX 8 8 1 -1
BITMAP
F2
93
92
F2
FE
02
FE
FE
ENDCHAR
STARTCHAR B9D1
ENCODING 14396
SWIDTH 1000 0
DWIDTH 10 0
BBX 8 8 1 -1
BITMAP
F2
93
92
F2
EE
12
F2
F2
ENDCHAR
STARTCHAR B9D2
ENCODING 14397
SWIDTH 1000 0
DWIDTH 10 0
BBX 8 9 1 -2
BITMAP
F2
93
92
F2
EE
2A
EA
EE
C0
ENDCHAR
STARTCHAR B9D8
ENCODING 14398
SWIDTH 1000 0
DWIDTH 10 0
BBX 8 8 1 -1
BITMAP
F2
93
92
F2
00
FE
82
FE
ENDCHAR
STARTCHAR B9D9
ENCODING 14399
SWIDTH 1000 0
DWIDTH 10 0
BBX 8 8 1 -1
BITMAP
F2
93
92
F2
82
FE
82
FE
ENDCHAR
STARTCHAR B9DB
ENCODING 14400
SWIDTH 1000 0
DWIDTH 10 0
BBX 8 9 1 -2
BITMAP
F2
93
92
F2
02
08
14
62
01
ENDCHAR
STARTCHAR B9DD
ENCODING 14401
SWIDTH 1000 0
DWIDTH 10 0
BBX 8 9 1 -2
BITMAP
F2
93
92
F2
02
7C
82
82
7C
ENDCHAR
STARTCHAR B9DE
ENCODING 14402
SWIDTH 1000 0
DWIDTH 10 0
BBX 8 9 1 -2
BITMAP
F2
93
92
F2
02
FE
10
28
C6
ENDCHAR
STARTCHAR B9E1
ENCODING 14403
SWIDTH 1000 0
DWIDTH 10 0
BBX 8 8 1 -1
BITMAP
F2
93
92
F2
FE
80
FE
FE
ENDCHAR
STARTCHAR B9E3
ENCODING 14404
SWIDTH 1000 0
DWIDTH 10 0
BBX 8 9 1 -2
BITMAP
F2
93
92
F2
38
FE
7C
82
7C
ENDCHAR
STARTCHAR B9E4
ENCODING 14405
SWIDTH 1000 0
DWIDTH 10 0
BBX 8 9 1 -2
BITMAP
F5
95
95
97
95
F5
05
05
04
ENDCHAR
STARTCHAR B9E5
ENCODING 14406
SWIDTH 1000 0
DWIDTH 10 0
BBX 8 9 1 -1
BITMAP
04
F5
97
95
95
F5
7F
01
01
ENDCHAR
STARTCHAR B9E8
ENCODING 14407
SWIDTH 1000 0
DWIDTH 10 0
BBX 8 9 1 -1
BITMAP
04
F5
97
95
95
F5
45
40
7F
ENDCHAR
STARTCHAR B9EC
ENCODING 14408
SWIDTH 1000 0
DWIDTH 10 0
BBX 8 9 1 -1
BITMAP
04
F5
97
95
F5
7F
01
7F
7F
ENDCHAR
STARTCHAR B9F4
ENCODING 14409
SWIDTH 1000 0
DWIDTH 10 0
BBX 8 9 1 -1
BITMAP
04
F5
97
95
F5
00
7F
41
7F
ENDCHAR
STARTCHAR B9F5
ENCODING 14410
SWIDTH 1000 0
DWIDTH 10 0
BBX 8 9 1 -1
BITMAP
04
F5
97
95
F5
00
41
7F
7F
ENDCHAR
STARTCHAR B9F7
ENCODING 14411
SWIDTH 1000 0
DWIDTH 10 0
BBX 8 9 1 -1
BITMAP
04
F5
97
95
95
F5
08
18
66
ENDCHAR
STARTCHAR B9F8
ENCODING 14412
SWIDTH 1000 0
DWIDTH 10 0
BBX 8 9 1 -1
BITMAP
04
F5
97
95
F5
01
00
46
B9
ENDCHAR
STARTCHAR B9F9
ENCODING 14413
SWIDTH 1000 0
DWIDTH 10 0
BBX 8 10 1 -2
BITMAP
04
F5
97
95
F5
05
3C
43
41
3E
ENDCHAR
STARTCHAR B9FA
ENCODING 14414
SWIDTH 1000 0
DWIDTH 10 0
BBX 8 9 1 -1
BITMAP
04
F5
97
95
F5
01
7F
08
36
ENDCHAR
STARTCHAR BA00
ENCODING 14415
SWIDTH 1000 0
DWIDTH 10 0
BBX 9 9 1 -1
BITMAP
0200
F200
9380
9200
9200
9380
F200
0200
0200
ENDCHAR
STARTCHAR BA01
ENCODING 14416
SWIDTH 1000 0
DWIDTH 10 0
BBX 9 8 0 -1
BITMAP
F900
8980
8900
F980
0100
7F00
0100
0100
ENDCHAR
STARTCHAR BA08
ENCODING 14417
SWIDTH 1000 0
DWIDTH 10 0
BBX 9 8 0 -1
BITMAP
F900
8980
8980
F900
7F00
0100
7F00
7F00
ENDCHAR
STARTCHAR BA15
ENCODING 14418
SWIDTH 1000 0
DWIDTH 10 0
BBX 9 9 0 -2
BITMAP
F900
8980
8900
F980
0100
3F00
4100
4100
3E00
ENDCHAR
STARTCHAR BA38
ENCODING 14419
SWIDTH 1000 0
DWIDTH 10 0
BBX 8 8 1 -1
BITMAP
F9
89
8F
89
89
F9
01
01
ENDCHAR
STARTCHAR BA39
ENCODING 14420
SWIDTH 1000 0
DWIDTH 10 0
BBX 8 8 1 -1
BITMAP
F9
89
8F
F9
01
7F
01
01
ENDCHAR
STARTCHAR BA3C
ENCODING 14421
SWIDTH 1000 0
DWIDTH 10 0
BBX 8 8 1 -1
BITMAP
F9
89
8F
89
F9
41
41
7F
ENDCHAR
STARTCHAR BA40
ENCODING 14422
SWIDTH 1000 0
DWIDTH 10 0
BBX 8 8 1 -1
BITMAP
F9
8F
89
F9
7F
01
7F
7F
ENDCHAR
STARTCHAR BA42
ENCODING 14423
SWIDTH 1000 0
DWIDTH 10 0
BBX 8 9 1 -2
BITMAP
F9
8F
89
F9
77
15
75
77
40
ENDCHAR
STARTCHAR BA48
ENCODING 14424
SWIDTH 1000 0
DWIDTH 10 0
BBX 8 8 1 -1
BITMAP
F9
8F
89
F9
00
7F
41
7F
ENDCHAR
STARTCHAR BA49
ENCODING 14425
SWIDTH 1000 0
DWIDTH 10 0
BBX 8 8 1 -1
BITMAP
F9
8F
89
F9
41
7F
41
7F
ENDCHAR
STARTCHAR BA4B
ENCODING 14426
SWIDTH 1000 0
DWIDTH 10 0
BBX 8 8 1 -1
BITMAP
F9
8F
89
89
F9
08
18
66
ENDCHAR
STARTCHAR BA4D
ENCODING 14427
SWIDTH 1000 0
DWIDTH 10 0
BBX 8 9 1 -2
BITMAP
F9
8F
89
F9
01
3E
41
41
3E
ENDCHAR
STARTCHAR BA4E
ENCODING 14428
SWIDTH 1000 0
DWIDTH 10 0
BBX 8 9 1 -2
BITMAP
F9
8F
89
F9
01
7F
08
14
63
ENDCHAR
STARTCHAR BA53
ENCODING 14429
SWIDTH 1000 0
DWIDTH 10 0
BBX 8 9 1 -2
BITMAP
F9
8F
89
F9
1C
7F
7E
42
3E
ENDCHAR
STARTCHAR BA54
ENCODING 14430
SWIDTH 1000 0
DWIDTH 10 0
BBX 8 9 1 -1
BITMAP
05
F5
95
9D
95
95
F5
05
05
ENDCHAR
STARTCHAR BA55
ENCODING 14431
SWIDTH 1000 0
DWIDTH 10 0
BBX 8 8 1 -1
BITMAP
F5
95
9D
95
F5
7F
01
01
ENDCHAR
STARTCHAR BA58
ENCODING 14432
SWIDTH 1000 0
DWIDTH 10 0
BBX 8 8 1 -1
BITMAP
F5
95
9D
95
F5
45
44
7F
ENDCHAR
STARTCHAR BA5C
ENCODING 14433
SWIDTH 1000 0
DWIDTH 10 0
BBX 8 9 1 -1
BITMAP
04
F5
9D
95
F5
7F
01
7F
7F
ENDCHAR
STARTCHAR BA64
ENCODING 14434
SWIDTH 1000 0
DWIDTH 10 0
BBX 8 9 1 -1
BITMAP
04
F5
9D
95
F5
01
7F
41
7F
ENDCHAR
STARTCHAR BA65
ENCODING 14435
SWIDTH 1000 0
DWIDTH 10 0
BBX 8 9 1 -1
BITMAP
04
F5
9D
95
F5
01
41
7F
7F
ENDCHAR
STARTCHAR BA67
ENCODING 14436
SWIDTH 1000 0
DWIDTH 10 0
BBX 8 9 1 -1
BITMAP
04
F5
9D
95
95
F5
09
18
66
ENDCHAR
STARTCHAR BA68
ENCODING 14437
SWIDTH 1000 0
DWIDTH 10 0
BBX 8 9 1 -1
BITMAP
04
F5
9D
95
F5
01
00
46
B9
ENDCHAR
STARTCHAR BA69
ENCODING 14438
SWIDTH 1000 0
DWIDTH 10 0
BBX 8 10 1 -2
BITMAP
04
F5
9D
95
F5
01
3E
41
41
3E
ENDCHAR
STARTCHAR BA70
ENCODING 14439
SWIDTH 1000 0
DWIDTH 10 0
BBX 8 9 1 -2
BITMAP
F9
8F
89
89
8F
F9
01
01
01
ENDCHAR
STARTCHAR BA71
ENCODING 14440
SWIDTH 1000 0
DWIDTH 10 0
BBX 8 9 1 -1
BITMAP
01
F9
8F
89
FF
01
7F
01
01
ENDCHAR
STARTCHAR BA74
ENCODING 14441
SWIDTH 1000 0
DWIDTH 10 0
BBX 8 9 1 -1
BITMAP
01
F9
8F
89
8F
F9
41
41
7F
ENDCHAR
STARTCHAR BA78
ENCODING 14442
SWIDTH 1000 0
DWIDTH 10 0
BBX 8 9 1 -1
BITMAP
01
FF
89
8B
F9
7F
01
7F
7F
ENDCHAR
STARTCHAR BA83
ENCODING 14443
SWIDTH 1000 0
DWIDTH 10 0
BBX 8 9 1 -1
BITMAP
01
F9
8F
89
FF
01
08
18
66
ENDCHAR
STARTCHAR BA84
ENCODING 14444
SWIDTH 1000 0
DWIDTH 10 0
BBX 8 9 1 -1
BITMAP
01
FF
89
89
FF
01
00
66
99
ENDCHAR
STARTCHAR BA85
ENCODING 14445
SWIDTH 1000 0
DWIDTH 10 0
BBX 8 10 1 -2
BITMAP
01
F9
8F
89
FF
01
3F
41
41
3E
ENDCHAR
STARTCHAR BA87
ENCODING 14446
SWIDTH 1000 0
DWIDTH 10 0
BBX 8 9 1 -1
BITMAP
01
FF
89
97
FD
01
7F
18
67
ENDCHAR
STARTCHAR BA8C
ENCODING 14447
SWIDTH 1000 0
DWIDTH 10 0
BBX 8 10 1 -2
BITMAP
04
F5
9D
95
95
9D
F5
05
05
04
ENDCHAR
STARTCHAR BAA8
ENCODING 14448
SWIDTH 1000 0
DWIDTH 10 0
BBX 9 8 1 -1
BITMAP
7E00
4200
4200
7E00
0000
0800
0800
FF80
ENDCHAR
STARTCHAR BAA9
ENCODING 14449
SWIDTH 1000 0
DWIDTH 10 0
BBX 9 8 1 -1
BITMAP
7E00
4200
7E00
0800
FF80
FE00
0200
0200
ENDCHAR
STARTCHAR BAAB
ENCODING 14450
SWIDTH 1000 0
DWIDTH 10 0
BBX 9 8 1 -1
BITMAP
7E00
4200
7E00
0800
FF80
E000
2600
2900
ENDCHAR
STARTCHAR BAAC
ENCODING 14451
SWIDTH 1000 0
DWIDTH 10 0
BBX 9 8 1 -1
BITMAP
7E00
4200
4200
7E00
FF80
4000
4000
7F00
ENDCHAR
STARTCHAR BAB0
ENCODING 14452
SWIDTH 1000 0
DWIDTH 10 0
BBX 9 9 1 -2
BITMAP
7E00
4200
7E00
0800
FF80
7E00
0200
7E00
7E00
ENDCHAR
STARTCHAR BAB2
ENCODING 14453
SWIDTH 1000 0
DWIDTH 10 0
BBX 9 9 1 -2
BITMAP
7E00
4200
7E00
FF80
0000
EF00
2900
E900
E700
ENDCHAR
STARTCHAR BAB8
ENCODING 14454
SWIDTH 1000 0
DWIDTH 10 0
BBX 9 8 1 -1
BITMAP
7E00
4200
7E00
0800
FF80
7E00
4200
7E00
ENDCHAR
STARTCHAR BAB9
ENCODING 14455
SWIDTH 1000 0
DWIDTH 10 0
BBX 9 8 1 -1
BITMAP
7E00
4200
7E00
0800
FF80
4200
7E00
7E00
ENDCHAR
STARTCHAR BABB
ENCODING 14456
SWIDTH 1000 0
DWIDTH 10 0
BBX 9 8 1 -1
BITMAP
7E00
4200
7E00
0800
FF80
0000
1800
6600
ENDCHAR
STARTCHAR BABD
ENCODING 14457
SWIDTH 1000 0
DWIDTH 10 0
BBX 9 9 1 -2
BITMAP
7E00
4200
7E00
0800
FF80
3C00
4300
4100
3E00
ENDCHAR
STARTCHAR BAC4
ENCODING 14458
SWIDTH 1000 0
DWIDTH 10 0
BBX 8 9 1 -2
BITMAP
FA
8A
8A
FB
22
22
FE
02
02
ENDCHAR
STARTCHAR BAC8
ENCODING 14459
SWIDTH 1000 0
DWIDTH 10 0
BBX 8 8 1 -1
BITMAP
FA
8A
8B
FA
FE
42
40
7F
ENDCHAR
STARTCHAR BAD8
ENCODING 14460
SWIDTH 1000 0
DWIDTH 10 0
BBX 8 9 1 -2
BITMAP
FA
FA
2B
E2
1E
46
44
AA
11
ENDCHAR
STARTCHAR BAD9
ENCODING 14461
SWIDTH 1000 0
DWIDTH 10 0
BBX 9 9 0 -2
BITMAP
7D00
4500
7D80
1100
FF00
3F00
4100
4100
3E00
ENDCHAR
STARTCHAR BAFC
ENCODING 14462
SWIDTH 1000 0
DWIDTH 10 0
BBX 8 9 1 -2
BITMAP
7D
45
45
7D
11
11
FF
01
01
ENDCHAR
STARTCHAR BB00
ENCODING 14625
SWIDTH 1000 0
DWIDTH 10 0
BBX 9 8 0 -1
BITMAP
7E80
4280
7E80
1080
FF80
2080
2000
3F80
ENDCHAR
STARTCHAR BB04
ENCODING 14626
SWIDTH 1000 0
DWIDTH 10 0
BBX 8 8 1 -1
BITMAP
F9
89
F9
FF
01
3F
3F
3F
ENDCHAR
STARTCHAR BB0D
ENCODING 14627
SWIDTH 1000 0
DWIDTH 10 0
BBX 8 8 1 -1
BITMAP
FD
85
FD
1F
F9
41
7F
7F
ENDCHAR
STARTCHAR BB0F
ENCODING 14628
SWIDTH 1000 0
DWIDTH 10 0
BBX 8 8 1 -1
BITMAP
7D
45
7D
11
FF
09
18
66
ENDCHAR
STARTCHAR BB11
ENCODING 14629
SWIDTH 1000 0
DWIDTH 10 0
BBX 8 9 1 -2
BITMAP
7D
45
7D
11
FF
3D
43
41
3E
ENDCHAR
STARTCHAR BB18
ENCODING 14630
SWIDTH 1000 0
DWIDTH 10 0
BBX 8 8 1 -1
BITMAP
7F
41
41
7F
00
24
24
FF
ENDCHAR
ENDFONT
